<svg width="600" height="600" viewBox="0 0 600 600" fill="none" xmlns="http://www.w3.org/2000/svg">
<path d="M574.508 330.672C558.32 379.752 523.436 433.536 472.088 451.056C394.52 477.516 387.596 541.2 246.812 540.696C226.259 540.73 205.762 538.529 185.684 534.132C175.868 531.95 166.2 529.144 156.74 525.732C73.3404 495.648 27.6804 424.104 21.1404 347.652C12.5484 247.104 80.9844 196.368 125.54 166.452C170.096 136.536 220.976 25.5121 359.384 24.8521C380.513 24.6734 401.592 26.9282 422.204 31.5721C469.196 42.3721 517.556 68.3761 546.608 108.012C548.776 110.988 550.868 114.036 552.884 117.156C592.112 178.152 596.588 263.76 574.508 330.672Z" fill="#92E3A9"/>
<path opacity="0.7" d="M574.508 330.672C558.32 379.752 523.436 433.536 472.088 451.056C394.52 477.516 387.596 541.2 246.812 540.696C226.259 540.73 205.762 538.529 185.684 534.132C175.868 531.95 166.2 529.144 156.74 525.732C73.3404 495.648 27.6804 424.104 21.1404 347.652C12.5484 247.104 80.9844 196.368 125.54 166.452C170.096 136.536 220.976 25.5121 359.384 24.8521C380.513 24.6734 401.592 26.9282 422.204 31.5721C469.196 42.3721 517.556 68.3761 546.608 108.012C548.776 110.988 550.868 114.036 552.884 117.156C592.112 178.152 596.588 263.76 574.508 330.672Z" fill="white"/>
<path d="M167.349 241.728H48.3931V415.572H167.349V241.728Z" stroke="#263238" stroke-width="1.2" stroke-linecap="round" stroke-linejoin="round"/>
<path d="M160.784 251.328H54.9556V405.984H160.784V251.328Z" stroke="#263238" stroke-width="1.2" stroke-linecap="round" stroke-linejoin="round"/>
<path d="M135.01 289.008H80.7461V368.304H135.01V289.008Z" stroke="#263238" stroke-width="1.2" stroke-linecap="round" stroke-linejoin="round"/>
<path d="M562.355 241.728H443.399V415.572H562.355V241.728Z" stroke="#263238" stroke-width="1.2" stroke-linecap="round" stroke-linejoin="round"/>
<path d="M555.79 251.328H449.962V405.984H555.79V251.328Z" stroke="#263238" stroke-width="1.2" stroke-linecap="round" stroke-linejoin="round"/>
<path d="M530 289.008H475.748V368.304H530V289.008Z" stroke="#263238" stroke-width="1.2" stroke-linecap="round" stroke-linejoin="round"/>
<path d="M508.716 63.8999H102.816C101.531 63.8999 100.258 64.1533 99.0705 64.6455C97.8831 65.1377 96.8045 65.8592 95.8962 66.7686C94.9878 67.6781 94.2677 68.7576 93.7769 69.9456C93.2861 71.1335 93.0343 72.4066 93.0359 73.6919V389.664C93.0359 390.948 93.2889 392.22 93.7804 393.407C94.2718 394.593 94.9922 395.671 95.9004 396.579C96.8085 397.488 97.8867 398.208 99.0732 398.699C100.26 399.191 101.532 399.444 102.816 399.444H349.02L377.82 421.836L373.464 399.444H508.716C511.31 399.444 513.797 398.414 515.631 396.579C517.466 394.745 518.496 392.258 518.496 389.664V73.6919C518.497 72.4066 518.246 71.1335 517.755 69.9456C517.264 68.7576 516.544 67.6781 515.636 66.7686C514.727 65.8592 513.649 65.1377 512.461 64.6455C511.274 64.1533 510.001 63.8999 508.716 63.8999Z" fill="#263238" stroke="#263238" stroke-width="1.2" stroke-linecap="round" stroke-linejoin="round"/>
<path d="M515.846 54.1079H109.946C107.352 54.1079 104.864 55.1383 103.03 56.9724C101.196 58.8065 100.166 61.2941 100.166 63.8879V379.86C100.166 382.454 101.196 384.941 103.03 386.775C104.864 388.61 107.352 389.64 109.946 389.64H356.138L384.938 412.032L380.594 389.64H515.846C518.439 389.64 520.927 388.61 522.761 386.775C524.595 384.941 525.626 382.454 525.626 379.86V63.8879C525.626 61.2941 524.595 58.8065 522.761 56.9724C520.927 55.1383 518.439 54.1079 515.846 54.1079Z" fill="#92E3A9"/>
<path d="M211.562 208.272C211.562 208.272 200.642 190.08 183.962 189.072C167.282 188.064 164.21 202.584 158.498 206.232C152.786 209.88 148.106 203.112 140.822 205.704C133.538 208.296 134.582 212.46 128.822 215.064C123.062 217.668 118.946 210.9 113.222 213.504C107.498 216.108 105.95 219.216 105.95 219.216H234.35C234.35 219.216 230.75 209.34 224.99 207.792C219.23 206.244 217.802 212.952 211.562 208.272Z" fill="white"/>
<path d="M501.601 140.88C501.601 140.88 493.621 127.572 481.441 126.804C469.261 126.036 466.981 136.704 462.805 139.368C458.629 142.032 455.197 137.076 449.869 138.984C444.541 140.892 445.297 143.928 441.121 145.836C436.945 147.744 433.921 142.788 429.709 144.636C425.497 146.484 424.381 148.824 424.381 148.824H518.401C518.401 148.824 515.737 141.624 511.561 140.424C507.385 139.224 506.221 144.312 501.601 140.88Z" fill="white"/>
<path d="M464.953 90.3839C464.953 90.3839 450.205 65.7959 427.753 64.3919C405.301 62.9879 401.041 82.6559 393.313 87.5999C385.585 92.5439 379.261 83.3879 369.433 86.9039C359.605 90.4199 361.033 96.0359 353.281 99.5399C345.529 103.044 339.937 93.9239 332.209 97.4398C324.481 100.956 322.381 105.168 322.381 105.168H495.853C495.853 105.168 490.933 91.8239 483.217 89.7119C475.501 87.5999 473.377 96.6959 464.953 90.3839Z" fill="white"/>
<g opacity="0.15">
<path d="M144.709 342.648C144.438 342.131 144.059 341.678 143.599 341.318C143.14 340.958 142.609 340.699 142.041 340.56C141.474 340.42 140.884 340.403 140.31 340.508C139.735 340.614 139.19 340.84 138.709 341.172C136.621 342.48 135.733 345.384 135.529 347.712C135.289 350.436 137.389 356.196 137.389 356.196C137.389 356.196 140.773 353.664 140.989 353.484C143.221 351.3 146.269 345.78 144.709 342.648Z" fill="black"/>
<path d="M111.602 373.068C112.13 372.36 112.598 371.724 112.658 371.628C114.242 368.94 115.706 362.82 113.378 360.204C112.98 359.782 112.498 359.449 111.962 359.226C111.427 359.003 110.851 358.896 110.271 358.911C109.691 358.925 109.121 359.062 108.598 359.312C108.075 359.561 107.61 359.918 107.234 360.36C105.566 362.172 105.47 365.16 105.89 367.5C106.31 369.84 109.01 373.872 109.742 374.928L108.182 376.488C105.782 378.888 103.382 381.384 100.982 383.688C101.184 384.149 101.421 384.594 101.69 385.02L101.798 384.924C104.198 382.452 106.67 379.872 109.094 377.304L111.338 374.976C111.59 375.384 114.566 380.208 116.75 381.66C118.682 382.956 121.55 384.06 123.842 383.268C124.396 383.095 124.907 382.807 125.343 382.424C125.779 382.041 126.13 381.571 126.373 381.044C126.616 380.517 126.746 379.945 126.754 379.365C126.763 378.785 126.65 378.21 126.422 377.676C124.946 374.508 118.742 373.428 115.622 373.812C115.394 373.812 112.238 374.592 111.446 374.832C113.09 373.116 114.746 371.424 116.438 369.828C118.709 367.659 121.114 365.635 123.638 363.768C123.758 363.96 126.854 369.012 129.086 370.5C131.018 371.796 133.886 372.9 136.178 372.108C136.733 371.936 137.245 371.65 137.682 371.267C138.119 370.885 138.471 370.414 138.714 369.887C138.958 369.359 139.087 368.787 139.095 368.206C139.102 367.625 138.988 367.049 138.758 366.516C137.282 363.348 131.078 362.268 127.958 362.652C127.718 362.652 124.358 363.504 123.722 363.696C123.866 363.588 124.01 363.456 124.166 363.36C126.765 361.56 129.52 359.998 132.398 358.692C133.982 357.96 135.53 357.336 137.054 356.772C137.534 357.768 139.79 362.304 141.638 363.876C143.486 365.448 146.114 366.792 148.514 366.276C149.085 366.166 149.627 365.938 150.104 365.606C150.581 365.273 150.982 364.844 151.282 364.345C151.582 363.847 151.774 363.292 151.845 362.714C151.916 362.137 151.864 361.552 151.694 360.996C150.578 357.684 144.494 355.932 141.41 355.98C141.242 355.98 139.514 356.184 138.266 356.364C138.962 356.112 139.67 355.848 140.33 355.632C142.838 354.78 145.13 354.168 147.266 353.64C148.466 353.34 149.534 353.1 150.542 352.884C151.526 353.628 155.522 356.484 157.85 357.06C160.178 357.636 163.166 357.588 165.05 355.992C165.505 355.632 165.878 355.181 166.147 354.668C166.416 354.154 166.574 353.59 166.61 353.011C166.646 352.433 166.56 351.853 166.357 351.31C166.155 350.767 165.84 350.273 165.434 349.86C162.914 347.46 156.734 348.66 153.986 350.136C153.746 350.256 150.266 352.68 150.314 352.716H150.374C149.39 352.896 148.346 353.112 147.218 353.364C145.118 353.856 142.754 354.42 140.222 355.212C137.482 356.03 134.793 357.012 132.17 358.152C129.243 359.416 126.432 360.934 123.77 362.688L123.674 362.76C124.322 361.956 126.074 359.664 126.146 359.484C127.73 356.784 129.206 350.664 126.878 348.048C126.479 347.626 125.995 347.293 125.459 347.07C124.923 346.847 124.346 346.739 123.765 346.754C123.185 346.768 122.614 346.905 122.089 347.155C121.565 347.405 121.099 347.762 120.722 348.204C119.066 350.016 118.958 353.004 119.378 355.344C119.858 357.936 123.11 362.604 123.374 362.976C120.695 364.833 118.145 366.869 115.742 369.072C114.35 370.404 112.97 371.724 111.602 373.068Z" fill="black"/>
<path d="M100.167 374.304V379.86C100.165 380.496 100.226 381.131 100.347 381.756C101.055 379.2 101.271 376.188 100.167 374.304Z" fill="black"/>
<path d="M151.826 265.2C154.97 260.712 158.402 250.2 154.694 245.304C154.055 244.508 153.256 243.855 152.348 243.389C151.44 242.922 150.444 242.653 149.425 242.597C148.406 242.542 147.387 242.702 146.434 243.067C145.481 243.432 144.615 243.994 143.894 244.716C140.726 247.656 140.126 252.96 140.546 257.028C141.038 261.828 146.546 271.068 146.546 271.068C146.546 271.068 151.55 265.632 151.826 265.2Z" fill="black"/>
<path d="M192.913 250.992C187.789 247.632 177.529 251.784 173.269 255.216C172.909 255.516 167.677 260.832 167.785 260.88H167.893C166.273 261.516 164.545 262.224 162.661 263.04C159.205 264.564 155.317 266.316 151.201 268.512C146.75 270.829 142.438 273.405 138.289 276.228C133.621 279.357 129.243 282.899 125.209 286.812L125.065 286.956C125.917 285.372 128.125 280.86 128.257 280.5C130.105 275.34 130.657 264.288 125.773 260.556C124.951 259.948 124.01 259.523 123.011 259.307C122.013 259.092 120.98 259.091 119.981 259.306C118.982 259.52 118.04 259.945 117.218 260.551C116.396 261.158 115.713 261.933 115.213 262.824C112.933 266.508 113.761 271.776 115.213 275.592C116.869 279.888 124.021 286.884 124.597 287.448C120.587 291.526 116.855 295.867 113.425 300.444C111.409 303.096 109.465 305.844 107.545 308.604C108.229 307.212 108.841 305.964 108.901 305.772C110.749 300.624 111.301 289.572 106.417 285.84C105.54 285.158 104.508 284.704 103.414 284.515C102.319 284.327 101.195 284.411 100.141 284.76V307.224C102.097 309.54 104.125 311.592 104.941 312.42C104.221 313.488 103.489 314.544 102.769 315.624L100.129 319.548V323.724C101.605 321.42 103.093 319.116 104.569 316.8C105.589 315.204 106.621 313.632 107.653 312C108.217 312.624 114.949 319.968 119.185 321.768C122.953 323.364 128.197 324.36 131.953 322.2C132.859 321.728 133.654 321.07 134.286 320.268C134.917 319.467 135.371 318.54 135.618 317.549C135.864 316.558 135.897 315.526 135.714 314.522C135.531 313.518 135.137 312.564 134.557 311.724C130.957 306.744 119.929 306.924 114.709 308.592C114.325 308.712 109.129 311.052 107.845 311.712C110.113 308.22 112.417 304.764 114.817 301.452C118.041 296.954 121.557 292.673 125.341 288.636C125.605 288.924 132.541 296.616 136.933 298.464C140.689 300.06 145.933 301.056 149.689 298.896C150.596 298.426 151.392 297.768 152.025 296.967C152.658 296.165 153.113 295.239 153.361 294.248C153.608 293.257 153.642 292.225 153.46 291.22C153.278 290.215 152.884 289.261 152.305 288.42C148.705 283.44 137.665 283.62 132.457 285.288C132.049 285.408 126.457 287.94 125.485 288.468C125.713 288.228 125.917 287.964 126.133 287.736C130.037 283.793 134.282 280.204 138.817 277.008C141.301 275.208 143.785 273.636 146.221 272.208C147.421 273.78 152.737 280.884 156.457 283.008C160.177 285.132 165.121 286.608 169.093 284.844C170.045 284.475 170.909 283.909 171.626 283.181C172.342 282.454 172.896 281.582 173.25 280.624C173.604 279.667 173.751 278.644 173.679 277.626C173.608 276.607 173.321 275.615 172.837 274.716C169.837 269.364 158.821 268.32 153.457 269.412C153.157 269.472 150.265 270.408 148.165 271.116C149.269 270.468 150.409 269.772 151.489 269.172C155.533 266.892 159.373 265.056 162.781 263.46C164.737 262.572 166.513 261.804 168.193 261.06C170.125 261.996 177.973 265.716 182.161 265.86C186.349 266.004 191.497 265.032 194.161 261.66C194.825 260.897 195.322 260.004 195.621 259.038C195.919 258.072 196.013 257.054 195.895 256.05C195.778 255.045 195.452 254.077 194.938 253.206C194.425 252.335 193.735 251.58 192.913 250.992Z" fill="black"/>
<path d="M100.167 334.128V347.52C100.505 347.719 100.853 347.899 101.21 348.06C104.978 349.656 110.223 350.652 113.979 348.492C114.884 348.021 115.679 347.363 116.311 346.561C116.943 345.759 117.397 344.832 117.643 343.841C117.89 342.851 117.922 341.819 117.739 340.815C117.557 339.81 117.162 338.856 116.583 338.016C113.679 333.96 105.807 333.312 100.167 334.128Z" fill="black"/>
<path d="M102.852 386.58C103.763 387.547 104.862 388.318 106.081 388.844C107.301 389.371 108.616 389.641 109.944 389.64H113.004C110.964 387.132 105.684 386.256 102.852 386.58Z" fill="black"/>
<path d="M449.295 236.232C449.427 236.232 443.883 229.032 443.475 228.6C438.831 223.8 427.035 217.332 420.339 220.656C415.539 223.056 414.435 229.056 417.183 233.412C419.931 237.768 426.183 239.795 431.151 240.215C436.971 240.719 449.295 236.232 449.295 236.232Z" fill="black"/>
<path d="M525.6 379.572V374.676C523.38 373.584 521.076 372.492 518.712 371.388C519.75 367.768 520.571 364.089 521.172 360.372C522.674 360.209 524.157 359.899 525.6 359.448V343.848C522.41 342.294 518.99 341.269 515.472 340.812C514.966 340.399 514.424 340.033 513.852 339.72C509.328 337.236 503.4 338.7 501.312 343.656C498.408 350.532 505.608 361.908 510.66 366.264C510.948 366.516 514.5 368.94 516.756 370.44C515.292 369.756 513.888 369.084 512.364 368.412C509.388 367.056 506.364 365.784 503.124 364.404L498.324 362.556C496.728 361.908 494.964 361.428 493.26 360.84C489.312 359.58 485.232 358.44 481.116 357.48C482.316 354.864 486.36 345.48 486.396 340.512C486.432 335.544 485.064 329.184 480.888 325.98C476.712 322.776 470.712 323.4 467.892 327.972C463.968 334.332 469.368 346.668 473.7 351.744C473.964 352.056 477.48 355.344 479.448 357.108C476.964 356.52 474.492 355.908 471.96 355.416C464.64 353.94 457.2 352.68 449.772 351.384C447.504 350.988 445.236 350.568 442.98 350.184C443.412 349.26 448.488 338.244 448.512 332.652C448.512 327.672 447.192 321.312 443.004 318.12C442.046 317.331 440.932 316.753 439.736 316.424C438.539 316.095 437.287 316.022 436.06 316.21C434.834 316.398 433.66 316.842 432.617 317.515C431.575 318.187 430.685 319.072 430.008 320.112C426.096 326.472 431.484 338.808 435.816 343.872C436.152 344.256 441.216 348.972 442.56 350.112C437.568 349.2 432.612 348.24 427.752 347.1C421.19 345.593 414.733 343.665 408.42 341.328C408.624 340.896 413.976 329.424 414.012 323.688C414.012 318.708 412.68 312.36 408.492 309.156C407.534 308.369 406.421 307.793 405.226 307.465C404.031 307.137 402.78 307.064 401.555 307.252C400.33 307.44 399.158 307.884 398.116 308.555C397.074 309.227 396.185 310.11 395.508 311.148C391.584 317.508 396.984 329.844 401.316 334.908C401.652 335.304 407.112 340.38 408.168 341.232C407.796 341.1 407.4 340.992 407.04 340.848C400.78 338.322 394.756 335.246 389.04 331.656C385.86 329.712 382.92 327.672 380.112 325.656C381.312 323.616 386.772 314.256 387.372 309.096C387.948 304.152 387.312 297.696 383.496 294.048C379.68 290.4 373.668 290.364 370.368 294.612C365.772 300.492 369.78 313.356 373.524 318.864C373.728 319.164 376.14 321.984 377.928 324.012C376.668 323.064 375.36 322.116 374.172 321.192C369.72 317.724 365.856 314.268 362.46 311.184C360.54 309.42 358.86 307.776 357.264 306.228C357.42 303.612 357.9 293.028 356.064 288.228C354.228 283.428 350.748 278.136 345.684 276.66C340.62 275.184 335.256 277.86 334.284 283.2C332.928 290.544 342.396 300.108 348.264 303.264C348.78 303.54 357.192 306.864 357.204 306.768C357.216 306.672 357.204 306.648 357.204 306.612C358.692 308.136 360.3 309.744 362.088 311.472C365.424 314.64 369.288 318.192 373.62 321.768C378.318 325.673 383.238 329.303 388.356 332.64C394.053 336.407 400.077 339.656 406.356 342.348L406.584 342.432C404.412 342.228 398.304 341.868 397.824 341.892C391.176 342.24 378.516 346.848 376.608 354.06C376.324 355.267 376.297 356.522 376.529 357.74C376.762 358.959 377.248 360.115 377.956 361.134C378.665 362.153 379.58 363.011 380.642 363.653C381.703 364.294 382.888 364.706 384.12 364.86C389.328 365.688 394.86 362.292 398.448 358.86C402.492 354.96 406.98 343.644 407.34 342.744C413.827 345.339 420.482 347.496 427.26 349.2C431.196 350.208 435.18 351.108 439.188 351.96C437.304 351.84 435.588 351.756 435.372 351.768C428.712 352.128 416.064 356.724 414.156 363.936C412.776 369.144 416.556 373.92 421.668 374.736C426.78 375.552 432.408 372.168 435.996 368.736C439.584 365.304 443.652 355.656 444.684 353.136L449.304 354.072C456.708 355.536 464.1 356.964 471.312 358.572C473.856 359.148 476.34 359.772 478.824 360.444C477.144 360.348 475.728 360.276 475.512 360.288C468.864 360.636 456.204 365.244 454.296 372.456C452.916 377.652 456.696 382.44 461.808 383.256C466.92 384.072 472.608 380.688 476.136 377.256C479.664 373.824 483.396 365.112 484.644 362.088C487.164 362.82 489.696 363.564 492.108 364.392C493.74 364.992 495.36 365.46 496.968 366.156L501.768 368.1C504.756 369.456 507.852 370.836 510.732 372.228C512.748 373.176 514.644 374.124 516.564 375.072C514.044 374.472 509.076 373.404 508.644 373.368C502.02 372.708 488.808 375.336 485.844 382.188C485.315 383.395 485.084 384.712 485.17 386.027C485.255 387.343 485.655 388.619 486.336 389.748H507.24C511.644 386.148 517.14 376.92 517.848 375.708C520.536 376.944 523.2 378.264 525.6 379.572Z" fill="black"/>
<path d="M514.226 310.296C514.226 310.704 515.426 315.384 516.062 317.94C514.31 316.08 512.582 314.22 510.746 312.396C505.466 307.128 499.946 301.968 494.474 296.796C492.794 295.212 491.138 293.616 489.482 291.996C490.346 291.456 500.654 285.072 503.774 280.416C506.546 276.288 508.922 270.24 507.194 265.26C505.466 260.28 500.138 257.484 495.194 259.752C488.426 262.896 486.122 276.156 486.938 282.78C486.998 283.272 488.618 289.98 489.122 291.696C485.522 288.192 481.85 284.652 478.43 281.028C473.825 276.153 469.541 270.986 465.602 265.56C466.01 265.32 476.798 258.696 480.002 253.932C482.762 249.792 485.15 243.756 483.422 238.776C481.694 233.796 476.354 231 471.482 233.268C464.702 236.412 462.398 249.672 463.214 256.296C463.286 256.812 465.026 264.06 465.446 265.344C465.218 265.032 464.942 264.72 464.714 264.408C460.888 258.843 457.559 252.952 454.766 246.804C453.182 243.42 451.862 240.108 450.638 236.844C452.774 235.824 462.482 231.024 465.83 227.052C469.178 223.08 472.07 217.452 470.906 212.364C469.742 207.276 464.738 203.856 459.638 205.572C452.558 207.972 448.838 220.884 448.838 227.556C448.838 227.916 449.294 231.6 449.666 234.264C449.138 232.788 448.574 231.276 448.094 229.848C446.294 224.496 444.974 219.492 443.846 215.04C443.222 212.508 442.706 210.24 442.25 208.044C443.822 205.944 450.038 197.4 451.154 192.444C452.27 187.488 452.354 181.104 448.886 177.072C445.418 173.04 439.502 172.368 435.77 176.244C430.586 181.62 433.214 194.82 436.358 200.7C436.634 201.204 441.794 208.656 441.878 208.548L441.974 208.428C442.382 210.516 442.826 212.748 443.366 215.172C444.41 219.66 445.622 224.772 447.314 230.124C449.072 235.966 451.172 241.699 453.602 247.296C456.289 253.571 459.53 259.595 463.286 265.296C463.338 265.357 463.386 265.421 463.43 265.488C461.726 264.12 456.842 260.448 456.434 260.208C450.686 256.836 437.594 253.68 432.014 258.648C431.104 259.5 430.384 260.535 429.902 261.685C429.42 262.835 429.187 264.074 429.218 265.32C429.248 266.567 429.542 267.793 430.08 268.918C430.617 270.043 431.387 271.041 432.338 271.848C436.226 275.448 442.706 275.616 447.602 274.716C453.134 273.708 463.118 266.736 463.91 266.184C467.881 271.905 472.227 277.356 476.918 282.504C479.642 285.516 482.474 288.504 485.318 291.384C483.818 290.244 482.45 289.236 482.246 289.116C476.498 285.744 463.406 282.6 457.838 287.568C453.818 291.168 454.346 297.168 458.15 300.768C461.954 304.368 468.53 304.536 473.426 303.636C478.322 302.736 487.022 296.964 489.29 295.404L492.626 298.74C498.002 304.044 503.426 309.312 508.502 314.628C510.302 316.512 512.018 318.42 513.734 320.328C512.39 319.32 511.25 318.48 511.058 318.372C505.31 315 492.218 311.856 486.65 316.824C482.63 320.424 483.158 326.424 486.962 329.964C490.766 333.504 497.342 333.744 502.238 332.844C507.134 331.944 514.994 326.724 517.694 324.888C519.398 326.892 521.102 328.896 522.662 330.888C523.646 332.232 524.678 333.468 525.602 334.848V328.848C525.566 328.807 525.534 328.762 525.506 328.716C522.902 325.476 520.106 322.32 517.214 319.212C520.115 317.387 522.918 315.412 525.614 313.296V286.536C524.53 286.584 523.465 286.845 522.482 287.304C515.714 290.4 513.41 303.672 514.226 310.296Z" fill="black"/>
<path d="M245.786 387.948C244.01 386.856 242.366 385.716 240.794 384.576C241.478 383.376 244.526 378.204 244.862 375.312C245.198 372.42 244.862 368.928 242.69 366.912C242.204 366.417 241.619 366.029 240.973 365.774C240.328 365.519 239.636 365.402 238.942 365.432C238.249 365.461 237.569 365.636 236.948 365.945C236.326 366.253 235.776 366.689 235.334 367.224C232.766 370.524 235.01 377.712 237.11 380.796C237.218 380.964 238.574 382.548 239.51 383.676C238.802 383.148 238.07 382.62 237.41 382.104C234.914 380.16 232.754 378.228 230.858 376.5C229.778 375.516 228.83 374.592 227.954 373.728C228.038 372.264 228.302 366.36 227.294 363.684C226.286 361.008 224.318 358.044 221.486 357.216C220.831 356.998 220.137 356.919 219.45 356.986C218.763 357.052 218.097 357.261 217.495 357.6C216.894 357.94 216.37 358.401 215.958 358.955C215.546 359.509 215.254 360.143 215.102 360.816C214.346 364.92 219.65 370.272 222.926 372.048C223.214 372.204 227.918 374.076 227.93 374.004V373.92C228.77 374.772 229.67 375.672 230.666 376.644C232.538 378.408 234.662 380.388 237.122 382.392C239.745 384.587 242.498 386.623 245.366 388.488L247.166 389.604H248.642C247.706 389.088 246.722 388.524 245.786 387.948Z" fill="black"/>
<path d="M240.002 384.684C240.002 384.624 235.202 382.98 234.926 382.92C231.326 382.128 223.778 382.74 221.726 386.352C221.154 387.346 220.974 388.519 221.222 389.64H235.838C237.324 388.073 238.715 386.418 240.002 384.684Z" fill="black"/>
<path d="M304.801 368.4C303.853 367.512 302.929 366.612 302.005 365.724C302.485 365.424 308.257 361.848 309.997 359.244C311.545 356.928 312.877 353.556 311.917 350.76C311.711 350.097 311.368 349.485 310.91 348.964C310.453 348.443 309.89 348.023 309.26 347.734C308.629 347.444 307.945 347.29 307.251 347.282C306.557 347.274 305.87 347.413 305.233 347.688C301.441 349.44 300.157 356.868 300.613 360.564C300.613 360.84 301.549 364.608 301.813 365.556C299.761 363.6 297.745 361.62 295.813 359.556C293.233 356.818 290.828 353.921 288.613 350.88C288.841 350.748 294.877 347.04 296.665 344.376C298.213 342.06 299.545 338.676 298.573 335.892C298.368 335.23 298.027 334.618 297.57 334.096C297.114 333.575 296.553 333.155 295.924 332.864C295.294 332.573 294.611 332.418 293.918 332.408C293.225 332.399 292.538 332.535 291.901 332.808C288.109 334.572 286.813 342 287.269 345.696C287.269 345.984 288.289 350.04 288.469 350.76L288.061 350.232C285.918 347.119 284.055 343.822 282.493 340.38C281.605 338.496 280.873 336.636 280.189 334.812C281.389 334.236 286.813 331.56 288.685 329.34C290.557 327.12 292.177 323.988 291.529 321.12C291.397 320.438 291.124 319.79 290.726 319.22C290.329 318.651 289.815 318.171 289.22 317.812C288.625 317.453 287.961 317.224 287.271 317.138C286.582 317.053 285.882 317.113 285.217 317.316C281.257 318.648 279.217 325.884 279.217 329.616C279.217 329.82 279.469 331.872 279.673 333.372C279.385 332.544 279.061 331.704 278.797 330.9C277.789 327.912 277.045 325.104 276.397 322.62C276.049 321.192 275.761 319.908 275.497 318.696C276.373 317.496 279.865 312.696 280.489 309.96C281.113 307.224 281.125 303.612 279.217 301.356C278.787 300.811 278.247 300.363 277.632 300.04C277.018 299.717 276.342 299.528 275.649 299.484C274.956 299.439 274.262 299.542 273.611 299.784C272.961 300.026 272.368 300.402 271.873 300.888C268.969 303.9 270.445 311.292 272.209 314.58C272.353 314.856 275.245 319.032 275.293 318.972V318.9C275.509 320.1 275.761 321.3 276.073 322.68C276.649 325.188 277.333 328.008 278.281 331.08C279.266 334.344 280.435 337.549 281.785 340.68C283.296 344.196 285.11 347.572 287.209 350.772L287.293 350.88C286.345 350.112 283.609 348.06 283.381 347.928C280.165 346.032 272.833 344.328 269.713 347.052C269.209 347.529 268.812 348.107 268.546 348.747C268.28 349.388 268.151 350.077 268.168 350.77C268.185 351.463 268.347 352.145 268.644 352.772C268.941 353.399 269.367 353.956 269.893 354.408C272.065 356.4 275.701 356.52 278.437 356.016C281.533 355.452 287.113 351.552 287.557 351.216C289.778 354.419 292.212 357.47 294.841 360.348C296.365 362.04 297.949 363.684 299.557 365.316C298.717 364.68 297.949 364.116 297.841 364.056C294.613 362.16 287.293 360.456 284.173 363.18C283.669 363.657 283.272 364.235 283.006 364.875C282.74 365.516 282.611 366.205 282.628 366.898C282.645 367.591 282.807 368.273 283.104 368.9C283.401 369.527 283.827 370.084 284.353 370.536C286.525 372.528 290.161 372.648 292.897 372.144C295.633 371.64 300.505 368.412 301.777 367.536L303.649 369.408C306.649 372.372 309.649 375.312 312.529 378.3C313.537 379.344 314.497 380.412 315.457 381.492C314.701 380.916 314.065 380.448 313.957 380.388C310.741 378.504 303.421 376.788 300.301 379.524C299.796 380 299.397 380.577 299.129 381.218C298.862 381.859 298.733 382.548 298.75 383.242C298.767 383.936 298.93 384.619 299.228 385.245C299.526 385.872 299.953 386.429 300.481 386.88C302.653 388.872 306.277 388.992 309.025 388.488C311.773 387.984 316.165 385.056 317.677 384.036C318.625 385.152 319.573 386.28 320.449 387.408C320.977 388.14 321.541 388.812 322.045 389.556H324.589L323.869 388.548C323.329 387.756 322.669 386.988 322.033 386.148C320.581 384.336 319.021 382.548 317.401 380.82C318.769 379.968 323.545 376.86 325.105 374.532C326.665 372.204 327.985 368.832 327.025 366.048C326.819 365.385 326.476 364.773 326.018 364.252C325.561 363.73 324.999 363.31 324.369 363.02C323.739 362.729 323.054 362.574 322.361 362.564C321.667 362.555 320.979 362.691 320.341 362.964C316.549 364.728 315.253 372.156 315.721 375.852C315.721 376.08 316.369 378.708 316.741 380.136C315.769 379.092 314.797 378.048 313.765 377.028C310.933 374.22 307.849 371.328 304.801 368.4Z" fill="black"/>
<path d="M279.075 388.5C279.075 385.716 278.331 382.164 275.991 380.364C275.453 379.926 274.83 379.605 274.161 379.423C273.492 379.241 272.792 379.201 272.107 379.306C271.421 379.411 270.766 379.659 270.182 380.033C269.598 380.408 269.1 380.901 268.719 381.48C267.447 383.556 267.939 386.76 269.055 389.64H278.967C279.029 389.263 279.066 388.882 279.075 388.5Z" fill="black"/>
<path d="M350.402 341.208C355.202 343.38 361.442 341.556 365.81 339.168C370.946 336.372 378.746 325.848 378.746 325.836C378.746 325.824 370.202 322.8 369.602 322.68C363.086 321.264 349.67 322.356 345.914 328.812C345.327 329.908 344.976 331.115 344.886 332.356C344.797 333.596 344.969 334.842 345.392 336.011C345.816 337.18 346.481 338.248 347.344 339.143C348.207 340.038 349.249 340.742 350.402 341.208Z" fill="black"/>
<path d="M338.292 382.8C337.99 382.175 337.559 381.621 337.029 381.174C336.498 380.727 335.88 380.396 335.213 380.204C334.546 380.011 333.846 379.961 333.159 380.057C332.472 380.153 331.813 380.392 331.224 380.76C328.896 382.308 328.068 386.196 328.068 389.664H338.4C339.267 387.45 339.228 384.985 338.292 382.8Z" fill="black"/>
<path d="M269.353 336.78C272.605 337.056 279.505 334.548 279.505 334.548C279.505 334.548 276.469 330.504 276.253 330.276C273.649 327.6 267.049 323.964 263.305 325.824C262.683 326.148 262.137 326.601 261.704 327.153C261.271 327.704 260.96 328.342 260.792 329.023C260.624 329.704 260.602 330.413 260.73 331.103C260.857 331.792 261.129 332.447 261.529 333.024C263.101 335.46 266.569 336.54 269.353 336.78Z" fill="black"/>
<path d="M297.182 384.792C296.645 384.352 296.022 384.03 295.352 383.846C294.683 383.663 293.983 383.623 293.297 383.728C292.611 383.833 291.955 384.082 291.371 384.457C290.788 384.833 290.29 385.327 289.91 385.908C289.292 387.048 289.04 388.351 289.19 389.64H299.93C299.606 387.753 298.634 386.039 297.182 384.792Z" fill="black"/>
<path d="M259.766 383.484C259.766 380.7 259.022 377.148 256.682 375.36C256.146 374.918 255.523 374.595 254.853 374.41C254.184 374.226 253.482 374.185 252.796 374.29C252.109 374.396 251.453 374.645 250.869 375.022C250.286 375.398 249.788 375.894 249.41 376.476C247.25 379.98 250.154 386.736 252.566 389.676H258.194C259.03 387.704 259.56 385.616 259.766 383.484Z" fill="black"/>
<path d="M101.557 130.944C102.457 129.48 103.393 128.136 104.329 126.84C105.265 127.404 109.561 129.912 111.937 130.188C114.313 130.464 117.181 130.188 118.849 128.4C119.251 128.002 119.566 127.525 119.773 126.999C119.98 126.473 120.075 125.909 120.051 125.344C120.027 124.779 119.886 124.225 119.635 123.718C119.385 123.211 119.031 122.762 118.597 122.4C115.897 120.288 109.981 122.136 107.449 123.852C107.317 123.948 106.021 125.052 105.049 125.88C105.481 125.304 105.913 124.68 106.345 124.152C107.941 122.1 109.525 120.324 110.941 118.764C111.757 117.888 112.513 117.108 113.221 116.364C114.421 116.436 119.281 116.652 121.477 115.824C123.673 114.996 126.109 113.424 126.793 111.024C126.97 110.483 127.032 109.91 126.974 109.344C126.915 108.777 126.738 108.229 126.454 107.736C126.17 107.242 125.785 106.814 125.325 106.479C124.864 106.144 124.338 105.91 123.781 105.792C120.409 105.168 116.005 109.524 114.553 112.212C114.433 112.452 112.885 116.316 112.945 116.328H113.017C112.321 117.012 111.577 117.756 110.785 118.572C109.321 120.108 107.701 121.86 106.057 123.876C104.254 126.033 102.583 128.297 101.053 130.656C100.741 131.136 100.429 131.628 100.129 132.132V133.332C100.621 132.528 101.089 131.724 101.557 130.944Z" fill="black"/>
<path d="M104.235 126.192C104.235 126.192 105.639 122.292 105.687 122.028C106.347 119.028 105.843 112.86 102.867 111.144C102.052 110.669 101.087 110.519 100.167 110.724V122.724C101.453 123.959 102.811 125.117 104.235 126.192Z" fill="black"/>
<path d="M117.6 179.412L119.796 177.12C120.048 177.528 122.976 182.256 125.112 183.696C127.02 184.968 129.792 186.096 132.084 185.268C132.629 185.1 133.132 184.82 133.561 184.445C133.99 184.07 134.335 183.609 134.574 183.091C134.813 182.574 134.94 182.012 134.947 181.442C134.955 180.872 134.842 180.307 134.616 179.784C133.176 176.664 127.08 175.608 124.032 175.98C123.804 175.98 120.708 176.76 119.928 176.988C121.548 175.296 123.168 173.64 124.836 172.068C127.079 169.92 129.456 167.916 131.952 166.068C132.072 166.26 135.108 171.216 137.304 172.692C139.212 173.964 141.984 175.092 144.276 174.264C144.82 174.093 145.322 173.811 145.75 173.434C146.178 173.058 146.523 172.596 146.761 172.078C147 171.56 147.127 170.998 147.135 170.428C147.143 169.858 147.032 169.292 146.808 168.768C145.356 165.66 139.26 164.592 136.224 164.976C135.984 164.976 132.624 165.804 132.06 165.996L132.492 165.66C135.045 163.897 137.752 162.366 140.58 161.088C142.14 160.356 143.664 159.756 145.164 159.192C145.632 160.176 147.84 164.64 149.664 166.176C151.488 167.712 154.056 169.044 156.42 168.504C156.979 168.396 157.509 168.171 157.975 167.845C158.442 167.519 158.835 167.099 159.129 166.611C159.423 166.124 159.612 165.58 159.683 165.015C159.753 164.45 159.705 163.877 159.54 163.332C158.436 160.08 152.496 158.352 149.436 158.388C149.268 158.388 147.576 158.604 146.34 158.772C147.024 158.532 147.72 158.268 148.38 158.052C150.78 157.224 153.18 156.612 155.184 156.096C156.384 155.808 157.404 155.568 158.4 155.364C159.36 156.084 163.296 158.964 165.6 159.456C167.904 159.948 170.82 159.984 172.668 158.412C173.109 158.058 173.472 157.616 173.733 157.114C173.995 156.612 174.148 156.061 174.184 155.497C174.22 154.932 174.138 154.366 173.943 153.835C173.748 153.304 173.445 152.819 173.052 152.412C170.58 150.012 164.508 151.212 161.808 152.688C161.58 152.82 158.148 155.196 158.208 155.232C157.248 155.424 156.228 155.628 155.112 155.88C153.048 156.36 150.72 156.912 148.236 157.692C145.545 158.5 142.905 159.465 140.328 160.584C137.434 161.813 134.659 163.303 132.036 165.036L131.94 165.096C132.576 164.316 134.268 162.072 134.34 161.88C135.888 159.24 137.34 153.216 135.048 150.66C134.658 150.251 134.187 149.928 133.664 149.712C133.142 149.496 132.581 149.391 132.016 149.405C131.451 149.419 130.895 149.55 130.384 149.791C129.873 150.032 129.418 150.377 129.048 150.804C127.404 152.592 127.308 155.604 127.728 157.824C128.196 160.368 131.328 164.952 131.652 165.324C129.019 167.152 126.513 169.156 124.152 171.324C122.76 172.524 121.404 173.88 120.06 175.2C120.588 174.504 121.056 173.88 121.104 173.784C122.664 171.144 124.104 165.12 121.824 162.564C121.433 162.157 120.961 161.835 120.439 161.62C119.917 161.405 119.356 161.301 118.792 161.315C118.228 161.328 117.672 161.459 117.161 161.699C116.65 161.939 116.195 162.282 115.824 162.708C114.192 164.496 114.096 167.508 114.504 169.728C114.912 171.948 117.576 175.98 118.284 177.024L116.76 178.56C114.36 181.02 111.96 183.504 109.452 185.856C108.588 186.684 107.712 187.464 106.836 188.256L107.736 187.056C109.284 184.416 110.724 178.392 108.444 175.836C108.054 175.427 107.583 175.104 107.06 174.888C106.538 174.672 105.977 174.567 105.412 174.581C104.847 174.595 104.291 174.726 103.78 174.967C103.269 175.208 102.814 175.553 102.444 175.98C100.8 177.768 100.704 180.78 101.112 183C101.52 185.22 103.932 188.868 104.712 190.104C103.788 190.884 102.864 191.676 101.94 192.384C101.34 192.828 100.74 193.284 100.176 193.692V195.792L101.004 195.192C101.652 194.748 102.288 194.196 102.936 193.692C104.436 192.492 105.876 191.208 107.316 189.888C108.012 191.004 110.568 194.928 112.476 196.212C114.384 197.496 117.156 198.612 119.448 197.784C119.993 197.616 120.496 197.336 120.925 196.961C121.354 196.586 121.699 196.125 121.938 195.607C122.177 195.09 122.304 194.528 122.311 193.958C122.319 193.388 122.206 192.823 121.98 192.3C120.54 189.18 114.432 188.124 111.396 188.496C111.204 188.496 109.056 189.036 107.88 189.348C108.732 188.544 109.584 187.74 110.424 186.948C112.8 184.464 115.2 181.932 117.6 179.412Z" fill="black"/>
<path d="M101.103 158.292C103.395 158.292 106.311 157.692 107.787 155.76C108.153 155.318 108.422 154.804 108.575 154.251C108.728 153.698 108.762 153.119 108.674 152.552C108.587 151.985 108.38 151.443 108.068 150.962C107.756 150.48 107.345 150.071 106.863 149.76C105.159 148.716 102.531 149.124 100.167 150.036V158.184C100.476 158.242 100.788 158.278 101.103 158.292Z" fill="black"/>
<path d="M105.806 206.952C106.32 206.704 106.775 206.35 107.142 205.914C107.509 205.477 107.781 204.969 107.938 204.421C108.095 203.872 108.136 203.297 108.056 202.733C107.976 202.168 107.778 201.627 107.474 201.144C106.274 199.236 103.023 198.54 100.167 198.552V207.024C101.983 207.74 104.009 207.714 105.806 206.952Z" fill="black"/>
<path d="M143.595 150.312C143.367 152.988 145.431 158.712 145.431 158.712C145.431 158.712 148.755 156.216 148.947 156.036C151.131 153.9 154.119 148.476 152.547 145.404C152.279 144.9 151.909 144.459 151.46 144.107C151.01 143.756 150.492 143.503 149.939 143.365C149.386 143.227 148.81 143.207 148.248 143.306C147.686 143.405 147.152 143.621 146.679 143.94C144.675 145.2 143.799 148.02 143.595 150.312Z" fill="black"/>
<path d="M104.151 173.172C104.518 172.731 104.787 172.218 104.941 171.665C105.095 171.113 105.13 170.534 105.044 169.967C104.957 169.4 104.752 168.858 104.441 168.376C104.13 167.894 103.72 167.484 103.239 167.172C102.303 166.653 101.228 166.443 100.167 166.572V175.392C101.712 175.136 103.12 174.351 104.151 173.172Z" fill="black"/>
<path d="M105.218 142.428C107.51 142.428 110.426 141.828 111.902 139.896C112.269 139.455 112.538 138.942 112.692 138.389C112.846 137.837 112.881 137.258 112.795 136.691C112.709 136.124 112.503 135.582 112.192 135.1C111.881 134.618 111.471 134.208 110.99 133.896C108.098 132.12 102.59 134.508 100.19 136.476V141.108C101.789 141.802 103.484 142.247 105.218 142.428Z" fill="black"/>
</g>
<path d="M515.846 54.1079H109.946C107.352 54.1079 104.864 55.1383 103.03 56.9724C101.196 58.8065 100.166 61.2941 100.166 63.8879V379.86C100.166 382.454 101.196 384.941 103.03 386.775C104.864 388.61 107.352 389.64 109.946 389.64H356.138L384.938 412.032L380.594 389.64H515.846C518.439 389.64 520.927 388.61 522.761 386.775C524.595 384.941 525.626 382.454 525.626 379.86V63.8879C525.626 61.2941 524.595 58.8065 522.761 56.9724C520.927 55.1383 518.439 54.1079 515.846 54.1079Z" stroke="#263238" stroke-width="1.2" stroke-linecap="round" stroke-linejoin="round"/>
<path d="M429.311 123.66H340.859C337.016 118.793 332.121 114.86 326.541 112.156C320.961 109.452 314.84 108.047 308.639 108.047C302.438 108.047 296.318 109.452 290.737 112.156C285.157 114.86 280.262 118.793 276.419 123.66H187.967C185.109 123.679 182.373 124.823 180.351 126.844C178.33 128.865 177.186 131.601 177.167 134.46V320.46C177.17 323.329 178.307 326.08 180.33 328.115C182.353 330.149 185.098 331.301 187.967 331.32H429.311C432.18 331.301 434.925 330.149 436.948 328.115C438.971 326.08 440.108 323.329 440.111 320.46V134.46C440.092 131.601 438.948 128.865 436.927 126.844C434.906 124.823 432.17 123.679 429.311 123.66Z" fill="#263238"/>
<path d="M433.559 118.62H192.227C186.561 118.62 181.967 123.214 181.967 128.88V314.868C181.967 320.535 186.561 325.128 192.227 325.128H433.559C439.226 325.128 443.819 320.535 443.819 314.868V128.88C443.819 123.214 439.226 118.62 433.559 118.62Z" fill="white" stroke="#263238" stroke-width="1.2" stroke-linecap="round" stroke-linejoin="round"/>
<path d="M353.424 143.544C353.424 151.562 351.046 159.4 346.591 166.066C342.137 172.732 335.805 177.928 328.397 180.996C320.99 184.063 312.839 184.865 304.975 183.3C297.111 181.735 289.889 177.873 284.22 172.203C278.551 166.533 274.692 159.309 273.129 151.445C271.566 143.581 272.371 135.43 275.441 128.023C278.511 120.617 283.708 114.287 290.376 109.834C297.043 105.381 304.882 103.006 312.9 103.008C318.228 102.987 323.508 104.022 328.435 106.052C333.361 108.082 337.837 111.067 341.605 114.836C345.372 118.604 348.356 123.081 350.384 128.008C352.413 132.935 353.446 138.216 353.424 143.544Z" fill="white" stroke="#263238" stroke-width="1.2" stroke-linecap="round" stroke-linejoin="round"/>
<path d="M329.822 137.196C329.824 133.846 328.833 130.571 326.973 127.785C325.114 124.998 322.469 122.826 319.375 121.543C316.281 120.26 312.875 119.924 309.589 120.577C306.304 121.23 303.286 122.843 300.917 125.211C298.548 127.58 296.935 130.598 296.283 133.884C295.63 137.169 295.966 140.575 297.249 143.669C298.532 146.764 300.704 149.408 303.49 151.267C306.277 153.127 309.552 154.118 312.902 154.116C317.389 154.116 321.693 152.333 324.866 149.16C328.039 145.987 329.822 141.683 329.822 137.196Z" fill="#263238" stroke="#263238" stroke-width="1.2" stroke-linecap="round" stroke-linejoin="round"/>
<path d="M337.931 175.404C330.795 181.017 321.979 184.069 312.899 184.069C303.82 184.069 295.004 181.017 287.867 175.404C289.123 169.7 292.29 164.597 296.842 160.938C301.394 157.28 307.059 155.285 312.899 155.285C318.739 155.285 324.404 157.28 328.957 160.938C333.509 164.597 336.675 169.7 337.931 175.404Z" fill="#263238" stroke="#263238" stroke-width="1.2" stroke-linecap="round" stroke-linejoin="round"/>
<path d="M382.248 229.212H243.528V251.028H382.248V229.212Z" stroke="#263238" stroke-width="1.2" stroke-linecap="round" stroke-linejoin="round"/>
<path d="M382.248 271.86H243.528V293.676H382.248V271.86Z" stroke="#263238" stroke-width="1.2" stroke-linecap="round" stroke-linejoin="round"/>
<path d="M290.507 245.532C289.899 245.565 289.296 245.41 288.779 245.088C288.371 244.774 288.083 244.329 287.963 243.828C287.81 243.204 287.737 242.563 287.747 241.92V235.056H289.127V241.992C289.123 242.394 289.151 242.795 289.211 243.192C289.251 243.514 289.389 243.816 289.607 244.056C289.862 244.266 290.183 244.38 290.513 244.38C290.843 244.38 291.164 244.266 291.419 244.056C291.629 243.812 291.762 243.512 291.803 243.192C291.863 242.795 291.891 242.394 291.887 241.992V235.056H293.255V241.92C293.265 242.563 293.192 243.204 293.039 243.828C292.919 244.329 292.631 244.774 292.223 245.088C291.712 245.414 291.112 245.569 290.507 245.532Z" fill="#CCCCCC"/>
<path d="M297.225 245.532C296.703 245.55 296.186 245.417 295.737 245.148C295.334 244.891 295.016 244.519 294.825 244.08C294.608 243.584 294.49 243.05 294.477 242.508L295.749 242.172C295.772 242.529 295.832 242.883 295.929 243.228C295.999 243.54 296.148 243.83 296.361 244.068C296.6 244.273 296.905 244.385 297.219 244.385C297.534 244.385 297.838 244.273 298.077 244.068C298.284 243.816 298.387 243.494 298.365 243.168C298.398 242.743 298.284 242.319 298.041 241.968C297.797 241.659 297.528 241.37 297.237 241.104L295.497 239.568C295.174 239.306 294.915 238.974 294.741 238.596C294.567 238.183 294.485 237.736 294.501 237.288C294.48 236.965 294.527 236.641 294.638 236.337C294.75 236.034 294.924 235.757 295.149 235.524C295.387 235.304 295.667 235.134 295.972 235.024C296.277 234.915 296.602 234.869 296.925 234.888C297.292 234.883 297.657 234.94 298.005 235.056C298.303 235.15 298.572 235.32 298.785 235.548C299.016 235.786 299.188 236.073 299.289 236.388C299.42 236.777 299.505 237.18 299.541 237.588L298.341 237.924C298.321 237.604 298.273 237.287 298.197 236.976C298.125 236.716 297.984 236.48 297.789 236.292C297.617 236.148 297.408 236.056 297.186 236.025C296.964 235.994 296.737 236.026 296.532 236.117C296.328 236.208 296.152 236.355 296.027 236.541C295.901 236.727 295.83 236.944 295.821 237.168C295.813 237.438 295.871 237.706 295.989 237.948C296.124 238.185 296.298 238.396 296.505 238.572L298.257 240.108C298.655 240.458 299.003 240.862 299.289 241.308C299.601 241.812 299.759 242.396 299.745 242.988C299.76 243.449 299.648 243.906 299.421 244.308C299.219 244.671 298.914 244.967 298.545 245.16C298.146 245.398 297.69 245.527 297.225 245.532Z" fill="#CCCCCC"/>
<path d="M300.829 245.412V235.056H304.801V236.124H302.281V239.556H304.369V240.576H302.281V244.38H304.873V245.412H300.829Z" fill="#CCCCCC"/>
<path d="M305.999 245.412V235.056H308.087C308.672 235.035 309.255 235.129 309.803 235.332C310.228 235.497 310.581 235.808 310.799 236.208C311.045 236.703 311.161 237.252 311.135 237.804C311.137 238.172 311.093 238.539 311.003 238.896C310.929 239.198 310.79 239.481 310.595 239.724C310.401 239.958 310.142 240.129 309.851 240.216L311.327 245.412H309.959L308.603 240.612H307.487V245.412H305.999ZM307.451 239.52H307.991C308.334 239.534 308.676 239.481 308.999 239.364C309.135 239.32 309.259 239.247 309.363 239.15C309.466 239.052 309.547 238.933 309.599 238.8C309.734 238.474 309.796 238.121 309.779 237.768C309.819 237.308 309.705 236.848 309.455 236.46C309.277 236.301 309.068 236.182 308.84 236.112C308.612 236.041 308.372 236.021 308.135 236.052H307.499L307.451 239.52Z" fill="#CCCCCC"/>
<path d="M312.67 245.412V235.056H313.666L316.606 241.932V235.056H317.806V245.412H316.882L313.906 238.344V245.412H312.67Z" fill="#CCCCCC"/>
<path d="M318.862 245.412L321.07 235.056H322.462L324.67 245.412H323.302L322.834 242.808H320.722L320.218 245.412H318.862ZM320.914 241.812H322.642L321.766 237.144L320.914 241.812Z" fill="#CCCCCC"/>
<path d="M325.705 245.412L325.897 235.056H327.313L329.137 243.456L330.985 235.056H332.401L332.593 245.412H331.393L331.273 237.888L329.521 245.412H328.705L326.965 237.888L326.857 245.412H325.705Z" fill="#CCCCCC"/>
<path d="M334.162 245.412V235.056H338.182V236.124H335.614V239.556H337.69V240.576H335.614V244.38H338.206V245.412H334.162Z" fill="#CCCCCC"/>
<path d="M286.799 288.288V277.92H289.367C289.885 277.893 290.399 278.01 290.855 278.256C291.23 278.483 291.518 278.83 291.671 279.24C291.852 279.736 291.938 280.261 291.923 280.788C291.935 281.276 291.837 281.76 291.635 282.204C291.455 282.594 291.157 282.917 290.783 283.128C290.356 283.369 289.869 283.485 289.379 283.464H288.179V288.264L286.799 288.288ZM288.239 282.42H288.899C289.236 282.43 289.573 282.386 289.895 282.288C290.122 282.197 290.303 282.02 290.399 281.796C290.518 281.478 290.571 281.139 290.555 280.8C290.567 280.417 290.53 280.034 290.447 279.66C290.418 279.54 290.362 279.427 290.283 279.332C290.204 279.236 290.104 279.16 289.991 279.108C289.648 278.99 289.286 278.937 288.923 278.952H288.239V282.42Z" fill="#CCCCCC"/>
<path d="M291.923 288.288L294.119 277.92H295.511L297.731 288.288H296.399L295.919 285.672H293.807L293.315 288.288H291.923ZM293.963 284.688H295.691L294.827 280.02L293.963 284.688Z" fill="#CCCCCC"/>
<path d="M301.2 288.396C300.678 288.414 300.161 288.281 299.712 288.012C299.315 287.756 299.002 287.389 298.812 286.956C298.592 286.456 298.47 285.918 298.452 285.372L299.724 285.036C299.747 285.393 299.807 285.747 299.904 286.092C299.971 286.405 300.121 286.695 300.336 286.932C300.575 287.136 300.88 287.249 301.194 287.249C301.509 287.249 301.813 287.136 302.052 286.932C302.26 286.68 302.363 286.358 302.34 286.032C302.361 285.63 302.247 285.233 302.016 284.904C301.778 284.59 301.509 284.3 301.212 284.04L299.472 282.504C299.155 282.231 298.898 281.896 298.716 281.52C298.546 281.105 298.465 280.66 298.476 280.212C298.46 279.889 298.509 279.567 298.62 279.264C298.732 278.961 298.903 278.683 299.124 278.448C299.363 278.23 299.643 278.062 299.949 277.955C300.254 277.847 300.577 277.803 300.9 277.824C301.266 277.816 301.631 277.868 301.98 277.98C302.278 278.074 302.547 278.243 302.76 278.472C302.988 278.711 303.16 278.998 303.264 279.312C303.395 279.701 303.48 280.103 303.516 280.512L302.316 280.848C302.295 280.532 302.247 280.219 302.172 279.912C302.103 279.647 301.962 279.406 301.764 279.216C301.531 279.028 301.236 278.933 300.936 278.952C300.772 278.922 300.603 278.932 300.444 278.982C300.285 279.032 300.14 279.12 300.022 279.238C299.904 279.356 299.816 279.5 299.767 279.66C299.717 279.819 299.706 279.988 299.736 280.152C299.728 280.422 299.786 280.689 299.904 280.932C300.035 281.171 300.21 281.382 300.42 281.556L302.172 283.092C302.57 283.442 302.918 283.846 303.204 284.292C303.514 284.797 303.673 285.38 303.66 285.972C303.673 286.437 303.561 286.897 303.336 287.304C303.13 287.664 302.826 287.959 302.46 288.156C302.065 288.333 301.633 288.416 301.2 288.396Z" fill="#CCCCCC"/>
<path d="M307.271 288.396C306.748 288.414 306.231 288.281 305.783 288.012C305.385 287.756 305.072 287.389 304.883 286.956C304.668 286.454 304.546 285.918 304.523 285.372L305.795 285.036C305.823 285.393 305.884 285.746 305.975 286.092C306.046 286.406 306.199 286.696 306.419 286.932C306.655 287.138 306.957 287.252 307.271 287.252C307.584 287.252 307.887 287.138 308.123 286.932C308.331 286.68 308.434 286.358 308.411 286.032C308.432 285.63 308.318 285.233 308.087 284.904C307.848 284.59 307.579 284.3 307.283 284.04L305.543 282.504C305.226 282.231 304.968 281.896 304.787 281.52C304.617 281.105 304.535 280.66 304.547 280.212C304.53 279.89 304.579 279.567 304.691 279.264C304.802 278.961 304.973 278.683 305.195 278.448C305.685 278.012 306.328 277.788 306.983 277.824C307.349 277.816 307.714 277.869 308.063 277.98C308.359 278.077 308.627 278.246 308.843 278.472C309.062 278.716 309.23 279.001 309.335 279.312C309.472 279.699 309.556 280.103 309.587 280.512L308.387 280.848C308.362 280.532 308.31 280.219 308.231 279.912C308.161 279.647 308.02 279.406 307.823 279.216C307.592 279.031 307.302 278.937 307.007 278.952C306.7 278.937 306.399 279.04 306.167 279.24C306.06 279.353 305.978 279.488 305.927 279.634C305.875 279.781 305.854 279.937 305.867 280.092C305.855 280.361 305.908 280.628 306.023 280.872C306.154 281.111 306.329 281.322 306.539 281.496L308.291 283.032C308.693 283.382 309.044 283.786 309.335 284.232C309.635 284.74 309.789 285.322 309.779 285.912C309.791 286.377 309.68 286.837 309.455 287.244C309.248 287.604 308.945 287.9 308.579 288.096C308.174 288.303 307.725 288.406 307.271 288.396Z" fill="#CCCCCC"/>
<path d="M312.229 288.288L310.537 277.92H311.737L312.853 285.36L314.245 277.956H315.265L316.681 285.408L317.761 277.92H318.961L317.305 288.288H316.249L314.809 280.608L313.345 288.288H312.229Z" fill="#CCCCCC"/>
<path d="M322.799 288.396C322.211 288.426 321.627 288.285 321.119 287.988C320.693 287.702 320.379 287.278 320.231 286.788C320.037 286.216 319.944 285.615 319.955 285.012V281.076C319.944 280.48 320.037 279.887 320.231 279.324C320.393 278.856 320.711 278.458 321.131 278.196C321.639 277.913 322.218 277.779 322.799 277.812C323.377 277.783 323.952 277.92 324.455 278.208C324.869 278.472 325.185 278.864 325.355 279.324C325.544 279.888 325.633 280.481 325.619 281.076V285.024C325.632 285.623 325.543 286.219 325.355 286.788C325.196 287.277 324.88 287.699 324.455 287.988C323.958 288.292 323.38 288.434 322.799 288.396ZM322.799 287.196C323.106 287.222 323.413 287.137 323.663 286.956C323.872 286.793 324.013 286.558 324.059 286.296C324.135 285.966 324.172 285.627 324.167 285.288V280.8C324.173 280.465 324.136 280.13 324.059 279.804C324.013 279.549 323.872 279.321 323.663 279.168C323.406 279.001 323.104 278.922 322.799 278.94C322.49 278.924 322.184 279.004 321.923 279.168C321.715 279.324 321.57 279.55 321.515 279.804C321.448 280.132 321.416 280.466 321.419 280.8V285.336C321.416 285.674 321.448 286.012 321.515 286.344C321.574 286.603 321.717 286.835 321.923 287.004C322.176 287.188 322.486 287.278 322.799 287.256V287.196Z" fill="#CCCCCC"/>
<path d="M326.999 288.288V277.92H329.087C329.667 277.904 330.246 277.997 330.791 278.196C331.225 278.358 331.584 278.675 331.799 279.084C332.035 279.578 332.146 280.122 332.123 280.668C332.13 281.036 332.089 281.403 332.003 281.76C331.929 282.066 331.79 282.353 331.595 282.6C331.396 282.828 331.139 282.998 330.851 283.092L332.315 288.288H330.923L329.567 283.416H328.439V288.288H326.999ZM328.439 282.384H328.991C329.33 282.398 329.669 282.345 329.987 282.228C330.11 282.184 330.224 282.115 330.321 282.027C330.417 281.938 330.496 281.831 330.551 281.712C330.686 281.381 330.747 281.025 330.731 280.668C330.773 280.207 330.654 279.745 330.395 279.36C330.218 279.204 330.01 279.086 329.785 279.016C329.559 278.945 329.322 278.924 329.087 278.952H328.439V282.384Z" fill="#CCCCCC"/>
<path d="M333.599 288.288V277.92H335.855C336.482 277.894 337.106 278.013 337.679 278.268C338.112 278.498 338.451 278.871 338.639 279.324C338.842 279.885 338.936 280.48 338.915 281.076V284.892C338.935 285.523 338.842 286.153 338.639 286.752C338.463 287.226 338.134 287.627 337.703 287.892C337.17 288.181 336.569 288.318 335.963 288.288H333.599ZM335.039 287.244H335.867C336.267 287.283 336.668 287.177 336.995 286.944C337.23 286.7 337.37 286.381 337.391 286.044C337.443 285.574 337.467 285.101 337.463 284.628V281.256C337.472 280.821 337.436 280.387 337.355 279.96C337.336 279.814 337.286 279.673 337.21 279.547C337.133 279.422 337.032 279.313 336.911 279.228C336.581 279.05 336.206 278.971 335.831 279H335.039V287.244Z" fill="#CCCCCC"/>
<path d="M290.985 212.892V196.092H293.325V211.2H297.597V212.868L290.985 212.892Z" fill="#263238"/>
<path d="M303.382 213.084C302.432 213.138 301.488 212.908 300.67 212.424C299.984 211.976 299.472 211.307 299.218 210.528C298.913 209.583 298.771 208.593 298.798 207.6V201.24C298.777 200.268 298.932 199.301 299.254 198.384C299.519 197.634 300.025 196.992 300.694 196.56C301.522 196.104 302.461 195.887 303.406 195.936C304.344 195.884 305.278 196.105 306.094 196.572C306.766 197 307.274 197.643 307.534 198.396C307.852 199.31 308.002 200.273 307.978 201.24V207.6C307.999 208.575 307.848 209.545 307.534 210.468C307.275 211.241 306.769 211.908 306.094 212.364C305.282 212.869 304.337 213.12 303.382 213.084ZM303.382 211.236C303.88 211.276 304.377 211.141 304.786 210.852C305.122 210.58 305.352 210.197 305.434 209.772C305.552 209.24 305.608 208.697 305.602 208.152V200.796C305.608 200.255 305.552 199.716 305.434 199.188C305.348 198.778 305.118 198.411 304.786 198.156C304.369 197.887 303.876 197.76 303.382 197.796C302.884 197.766 302.389 197.892 301.966 198.156C301.626 198.407 301.391 198.775 301.306 199.188C301.187 199.716 301.131 200.255 301.138 200.796V208.152C301.131 208.697 301.188 209.24 301.306 209.772C301.387 210.201 301.621 210.585 301.966 210.852C302.384 211.127 302.884 211.25 303.382 211.2V211.236Z" fill="#263238"/>
<path d="M314.268 213.108C313.379 213.152 312.498 212.917 311.748 212.436C311.088 211.949 310.607 211.257 310.38 210.468C310.071 209.47 309.925 208.429 309.948 207.384V201.768C309.929 200.707 310.058 199.649 310.332 198.624C310.55 197.831 311.033 197.137 311.7 196.656C312.527 196.157 313.484 195.919 314.448 195.972C315.327 195.93 316.203 196.112 316.992 196.5C317.633 196.853 318.127 197.424 318.384 198.108C318.697 198.99 318.844 199.921 318.816 200.856V201.48H316.62V200.964C316.631 200.361 316.583 199.758 316.476 199.164C316.414 198.76 316.204 198.392 315.888 198.132C315.472 197.874 314.984 197.757 314.496 197.796C313.95 197.746 313.407 197.915 312.984 198.264C312.657 198.622 312.454 199.077 312.408 199.56C312.328 200.177 312.288 200.798 312.288 201.42V207.6C312.276 208.273 312.337 208.945 312.468 209.604C312.546 210.07 312.783 210.495 313.14 210.804C313.554 211.092 314.053 211.232 314.556 211.2C315.062 211.233 315.561 211.08 315.96 210.768C316.324 210.428 316.564 209.976 316.644 209.484C316.787 208.79 316.851 208.081 316.836 207.372V206.172H314.7V204.516H318.948V212.82H317.472L317.244 210.9C317.043 211.495 316.687 212.025 316.212 212.436C315.668 212.889 314.976 213.128 314.268 213.108Z" fill="#263238"/>
<path d="M321.468 212.892V196.092H323.772V212.892H321.468Z" fill="#263238"/>
<path d="M326.484 212.892V196.092H328.08L332.88 207.24V196.092H334.8V212.892H333.3L328.5 201.432V212.892H326.484Z" fill="#263238"/>
<path d="M438.49 443.052C440.228 443.508 442.023 443.706 443.818 443.64C443.818 443.64 443.014 441.168 442.942 441.012C442.102 439.272 439.486 436.404 437.35 436.692C436.996 436.75 436.658 436.882 436.358 437.079C436.058 437.276 435.803 437.534 435.609 437.836C435.415 438.138 435.288 438.478 435.234 438.833C435.181 439.188 435.202 439.55 435.298 439.896C435.568 440.623 435.994 441.281 436.545 441.827C437.097 442.372 437.76 442.79 438.49 443.052Z" fill="#263238"/>
<path d="M439.797 454.008C441.576 454 443.344 453.725 445.041 453.192C445.603 455.122 446.288 457.014 447.093 458.856C447.561 459.936 448.065 461.004 448.581 462.072L447.945 461.16C446.685 459.708 443.397 457.632 441.405 458.472C441.085 458.624 440.8 458.84 440.567 459.107C440.334 459.375 440.16 459.687 440.054 460.025C439.948 460.364 439.913 460.72 439.951 461.072C439.99 461.424 440.101 461.765 440.277 462.072C440.73 462.701 441.315 463.224 441.99 463.603C442.666 463.982 443.417 464.209 444.189 464.268C445.919 464.268 447.639 464.005 449.289 463.488L449.901 464.688C450.873 466.644 451.857 468.576 452.769 470.508C453.093 471.192 453.381 471.876 453.669 472.56C453.393 472.152 453.165 471.816 453.117 471.768C451.857 470.316 448.569 468.24 446.589 469.092C446.267 469.241 445.979 469.456 445.744 469.723C445.509 469.99 445.333 470.303 445.227 470.642C445.12 470.981 445.086 471.339 445.127 471.692C445.167 472.045 445.281 472.386 445.461 472.692C445.914 473.321 446.499 473.844 447.174 474.223C447.85 474.602 448.601 474.829 449.373 474.888C451.058 474.899 452.734 474.648 454.341 474.144C454.617 474.852 454.893 475.56 455.133 476.256C455.289 476.736 455.469 477.192 455.589 477.672C455.709 478.152 455.853 478.644 455.985 479.112C456.213 480.036 456.441 480.984 456.633 481.884C456.777 482.52 456.897 483.084 457.017 483.72C456.717 483.036 456.069 481.716 456.009 481.62C454.989 479.988 452.049 477.432 450.009 478.02C449.665 478.117 449.344 478.286 449.069 478.515C448.794 478.744 448.57 479.029 448.413 479.351C448.255 479.673 448.168 480.024 448.155 480.382C448.143 480.74 448.206 481.096 448.341 481.428C448.693 482.119 449.191 482.724 449.8 483.203C450.409 483.681 451.115 484.022 451.869 484.2C453.624 484.46 455.407 484.46 457.161 484.2C457.353 485.196 457.545 486.168 457.701 487.092C458.061 489.132 458.337 490.968 458.541 492.516H459.957C459.705 490.908 459.381 489 458.961 486.864C458.757 485.844 458.529 484.764 458.277 483.648C459.288 483.249 460.274 482.788 461.229 482.268C462.529 483.383 463.974 484.315 465.525 485.04C465.141 485.976 464.757 486.9 464.325 487.752C463.545 489.552 462.801 491.148 462.153 492.552H463.677C464.241 491.292 464.877 489.864 465.501 488.292C465.897 487.332 466.305 486.3 466.701 485.232C468.427 485.633 470.203 485.771 471.969 485.64C472.736 485.522 473.467 485.237 474.112 484.806C474.757 484.374 475.299 483.807 475.701 483.144C475.86 482.822 475.948 482.471 475.962 482.113C475.975 481.755 475.913 481.397 475.78 481.065C475.646 480.732 475.444 480.431 475.187 480.181C474.929 479.932 474.622 479.739 474.285 479.616C472.245 478.932 469.125 481.248 467.985 482.808C467.913 482.892 467.289 484.008 466.917 484.656C467.073 484.212 467.241 483.792 467.397 483.348C467.721 482.46 468.021 481.56 468.345 480.588C468.489 480.12 468.633 479.652 468.777 479.16C468.921 478.668 469.029 478.176 469.161 477.672C469.437 476.472 469.665 475.272 469.869 474.072C471.464 474.734 473.153 475.139 474.873 475.272C475.648 475.271 476.413 475.1 477.114 474.77C477.815 474.44 478.435 473.96 478.929 473.364C479.136 473.072 479.278 472.739 479.347 472.388C479.416 472.036 479.41 471.675 479.33 471.326C479.25 470.977 479.096 470.649 478.881 470.363C478.665 470.078 478.391 469.841 478.077 469.668C476.157 468.684 472.725 470.508 471.357 471.864C471.273 471.948 470.397 473.064 469.941 473.64C470.049 472.908 470.169 472.176 470.265 471.444C470.529 469.308 470.733 467.136 470.937 464.964C471.009 464.304 471.081 463.644 471.141 462.984C472.798 463.634 474.54 464.039 476.313 464.184C477.089 464.179 477.854 464.006 478.557 463.677C479.259 463.347 479.882 462.869 480.381 462.276C480.588 461.984 480.73 461.651 480.799 461.3C480.868 460.948 480.862 460.586 480.782 460.238C480.702 459.889 480.548 459.561 480.333 459.275C480.117 458.99 479.843 458.753 479.529 458.58C477.609 457.584 474.177 459.408 472.809 460.764C472.701 460.872 471.453 462.432 471.153 462.84C471.309 461.388 471.477 459.936 471.705 458.52C471.981 456.596 472.382 454.692 472.905 452.82C474.572 453.477 476.327 453.882 478.113 454.02C478.888 454.019 479.653 453.848 480.354 453.518C481.055 453.188 481.675 452.708 482.169 452.112C482.376 451.82 482.518 451.487 482.587 451.136C482.656 450.784 482.65 450.423 482.57 450.074C482.49 449.725 482.336 449.397 482.121 449.111C481.905 448.826 481.631 448.589 481.317 448.416C479.397 447.432 475.965 449.256 474.597 450.612C474.489 450.72 473.145 452.4 472.929 452.724C472.929 452.616 472.929 452.496 473.013 452.388C473.6 450.527 474.355 448.724 475.269 447C475.761 446.04 476.277 445.152 476.805 444.3C478.353 445.121 480.016 445.704 481.737 446.028C482.508 446.112 483.287 446.027 484.021 445.778C484.755 445.529 485.425 445.123 485.985 444.588C486.223 444.319 486.401 444.003 486.508 443.66C486.615 443.317 486.649 442.956 486.607 442.599C486.565 442.242 486.449 441.899 486.265 441.59C486.082 441.282 485.835 441.015 485.541 440.808C483.741 439.608 480.129 441.048 478.617 442.248L477.237 443.628C477.477 443.244 477.729 442.848 477.969 442.488C478.869 441.132 479.781 439.944 480.597 438.888C481.065 438.288 481.497 437.772 481.905 437.28C483.649 437.299 485.385 437.052 487.053 436.548C487.774 436.265 488.424 435.829 488.959 435.27C489.493 434.71 489.9 434.041 490.149 433.308C490.237 432.961 490.251 432.599 490.189 432.246C490.127 431.894 489.991 431.558 489.791 431.261C489.59 430.964 489.33 430.713 489.025 430.524C488.721 430.335 488.38 430.212 488.025 430.164C485.877 429.936 483.333 432.876 482.541 434.628C482.481 434.784 481.689 437.28 481.737 437.28C481.341 437.748 480.909 438.24 480.453 438.792C479.613 439.824 478.665 441 477.741 442.392C476.715 443.828 475.773 445.322 474.921 446.868C473.962 448.597 473.159 450.408 472.521 452.28C472.521 452.28 472.521 452.28 472.521 452.34C472.521 451.716 472.521 449.94 472.521 449.808C472.269 447.9 470.673 444.36 468.549 443.964C468.196 443.91 467.835 443.931 467.49 444.025C467.145 444.119 466.823 444.284 466.546 444.511C466.269 444.737 466.042 445.019 465.881 445.338C465.72 445.657 465.627 446.007 465.609 446.364C465.638 447.139 465.835 447.898 466.187 448.588C466.54 449.278 467.039 449.883 467.649 450.36C469.131 451.33 470.749 452.074 472.449 452.568C471.848 454.487 471.375 456.443 471.033 458.424C470.829 459.624 470.661 460.752 470.493 461.928C470.493 461.376 470.493 460.884 470.493 460.824C470.241 458.904 468.645 455.364 466.521 454.968C466.168 454.914 465.807 454.935 465.462 455.029C465.117 455.123 464.795 455.288 464.518 455.515C464.241 455.741 464.014 456.023 463.853 456.342C463.692 456.661 463.599 457.011 463.581 457.368C463.612 458.144 463.811 458.903 464.166 459.593C464.52 460.283 465.021 460.888 465.633 461.364C467.08 462.318 468.662 463.05 470.325 463.536L470.145 464.88C469.893 467.052 469.641 469.212 469.329 471.324C469.221 472.068 469.089 472.788 468.957 473.52C468.957 473.04 468.957 472.632 468.957 472.56C468.705 470.652 467.109 467.112 464.985 466.716C464.632 466.662 464.271 466.683 463.926 466.777C463.581 466.871 463.259 467.036 462.982 467.263C462.705 467.489 462.478 467.771 462.317 468.09C462.156 468.409 462.063 468.759 462.045 469.116C462.076 469.892 462.275 470.651 462.63 471.341C462.984 472.031 463.485 472.636 464.097 473.112C465.498 474.045 467.031 474.762 468.645 475.236C468.489 475.98 468.333 476.724 468.153 477.432C468.009 477.924 467.913 478.392 467.745 478.872C467.577 479.352 467.445 479.82 467.289 480.288C466.965 481.176 466.641 482.1 466.293 482.964C466.065 483.564 465.837 484.164 465.609 484.704C465.717 483.96 465.921 482.508 465.921 482.388C465.9 480.7 465.441 479.046 464.589 477.588C464.607 477.401 464.607 477.212 464.589 477.024C464.544 476.668 464.424 476.326 464.237 476.019C464.05 475.713 463.801 475.449 463.505 475.245C463.21 475.042 462.875 474.902 462.522 474.837C462.169 474.771 461.806 474.78 461.457 474.864C459.381 475.416 458.061 479.076 457.953 480.996C457.953 481.116 458.025 482.352 458.085 483.132C457.977 482.676 457.881 482.232 457.773 481.764C457.557 480.852 457.305 479.928 457.053 478.956L456.621 477.528C456.477 477.048 456.285 476.556 456.117 476.064C455.697 474.936 455.229 473.82 454.725 472.704C456.408 472.346 458.026 471.735 459.525 470.892C460.171 470.464 460.716 469.899 461.12 469.238C461.524 468.576 461.779 467.835 461.865 467.064C461.875 466.706 461.809 466.35 461.672 466.019C461.534 465.688 461.329 465.39 461.068 465.145C460.808 464.899 460.498 464.711 460.16 464.593C459.822 464.475 459.462 464.43 459.105 464.46C456.957 464.688 455.097 468.06 454.713 469.992C454.713 470.112 454.557 471.492 454.509 472.248C454.197 471.588 453.897 470.916 453.561 470.244C452.613 468.312 451.581 466.392 450.561 464.472L449.637 462.696C451.381 462.341 453.06 461.722 454.617 460.86C455.263 460.428 455.806 459.861 456.21 459.198C456.614 458.535 456.869 457.792 456.957 457.02C456.967 456.662 456.901 456.306 456.764 455.975C456.626 455.644 456.421 455.346 456.16 455.101C455.9 454.855 455.59 454.667 455.252 454.549C454.914 454.431 454.554 454.386 454.197 454.416C452.061 454.644 450.201 458.016 449.805 459.948C449.805 460.092 449.601 462.084 449.577 462.588C448.905 461.292 448.245 459.984 447.645 458.676C446.825 456.911 446.12 455.096 445.533 453.24C447.29 452.882 448.981 452.259 450.549 451.392C451.194 450.963 451.738 450.398 452.142 449.737C452.546 449.075 452.801 448.334 452.889 447.564C452.899 447.207 452.833 446.851 452.697 446.521C452.56 446.19 452.356 445.892 452.097 445.646C451.838 445.399 451.53 445.21 451.193 445.09C450.856 444.969 450.498 444.921 450.141 444.948C447.993 445.188 446.133 448.548 445.749 450.48C445.749 450.636 445.521 452.772 445.509 453.168C445.509 453.06 445.437 452.952 445.401 452.844C444.868 450.968 444.503 449.049 444.309 447.108C444.189 446.028 444.141 445.008 444.105 444C445.849 443.838 447.557 443.409 449.169 442.728C449.862 442.365 450.467 441.854 450.942 441.232C451.417 440.611 451.75 439.892 451.917 439.128C451.965 438.773 451.937 438.411 451.836 438.067C451.735 437.723 451.563 437.404 451.331 437.131C451.099 436.857 450.813 436.635 450.49 436.479C450.168 436.323 449.816 436.236 449.457 436.224C447.309 436.224 445.077 439.416 444.489 441.252C444.489 441.348 444.237 442.392 444.093 443.16C444.093 442.704 444.093 442.236 444.093 441.804C444.093 440.172 444.201 438.684 444.309 437.364C444.369 436.608 444.441 435.936 444.513 435.3C445.974 434.353 447.285 433.192 448.401 431.856C448.846 431.222 449.148 430.498 449.286 429.736C449.425 428.974 449.397 428.191 449.205 427.44C449.085 427.101 448.894 426.792 448.645 426.532C448.397 426.272 448.096 426.067 447.763 425.931C447.43 425.795 447.073 425.731 446.713 425.743C446.354 425.755 446.001 425.843 445.677 426C443.757 426.996 443.277 430.8 443.577 432.744C443.577 432.912 444.321 435.432 444.357 435.408C444.273 436.02 444.189 436.608 444.117 437.388C443.985 438.708 443.853 440.196 443.817 441.84C443.752 443.601 443.792 445.364 443.937 447.12C444.087 449.094 444.416 451.05 444.921 452.964C444.921 452.964 444.921 452.964 444.921 453.024C444.585 452.496 443.589 451.032 443.505 450.936C442.245 449.472 438.945 447.408 436.965 448.248C436.644 448.398 436.357 448.614 436.124 448.881C435.89 449.148 435.714 449.461 435.608 449.8C435.502 450.138 435.468 450.495 435.507 450.848C435.547 451.201 435.659 451.541 435.837 451.848C436.299 452.477 436.893 452.996 437.577 453.369C438.261 453.742 439.019 453.961 439.797 454.008Z" fill="#263238"/>
<path d="M476.771 443.88C476.771 443.88 477.467 441.372 477.479 441.204C477.755 439.296 477.143 435.456 475.199 434.52C474.873 434.373 474.519 434.296 474.161 434.294C473.803 434.293 473.449 434.367 473.121 434.512C472.794 434.657 472.501 434.87 472.261 435.136C472.022 435.402 471.841 435.715 471.731 436.056C471.553 436.811 471.543 437.596 471.703 438.355C471.863 439.114 472.188 439.829 472.655 440.448C473.85 441.789 475.237 442.946 476.771 443.88Z" fill="#263238"/>
<path d="M468.98 489.828H452.924L454.52 526.98H467.372L468.98 489.828Z" fill="#263238"/>
<path d="M489.458 528.084H281.594V568.356H489.458V528.084Z" fill="white" stroke="#263238" stroke-width="1.2" stroke-linecap="round" stroke-linejoin="round"/>
<path d="M489.458 528.084H281.594V541.524H489.458V528.084Z" fill="#263238" stroke="#263238" stroke-width="1.2" stroke-linecap="round" stroke-linejoin="round"/>
<path d="M495.576 528.084H275.472V535.248H495.576V528.084Z" fill="white" stroke="#263238" stroke-width="1.2" stroke-linecap="round" stroke-linejoin="round"/>
<path d="M419.227 514.464L393.271 449.856C393.217 449.598 393.106 449.355 392.947 449.144C392.789 448.933 392.585 448.76 392.352 448.637C392.119 448.513 391.861 448.443 391.598 448.43C391.334 448.417 391.071 448.462 390.827 448.562C390.583 448.663 390.364 448.815 390.185 449.009C390.007 449.204 389.873 449.435 389.793 449.686C389.714 449.938 389.691 450.204 389.726 450.466C389.761 450.727 389.853 450.978 389.995 451.2L415.939 515.808C416.261 516.633 416.416 517.514 416.395 518.4C416.392 520.233 415.663 521.991 414.368 523.288C413.073 524.586 411.317 525.318 409.483 525.324H388.723V528.924H409.483C412.272 528.921 414.946 527.811 416.917 525.837C418.888 523.864 419.995 521.189 419.995 518.4C419.997 517.051 419.736 515.714 419.227 514.464Z" fill="#263238"/>
<path d="M400.927 385.938L394.062 385.251L381.778 508.095L388.642 508.782L400.927 385.938Z" fill="white" stroke="#263238" stroke-width="1.20599" stroke-linecap="round" stroke-linejoin="round"/>
<path d="M365.697 521.46L298.653 524.412V527.784H365.697V521.46Z" fill="white" stroke="#263238" stroke-width="1.2" stroke-linecap="round" stroke-linejoin="round"/>
<path d="M176.88 516.264L170.592 568.212H276.792L244.92 552.888C244.92 552.888 248.112 548.424 248.424 545.544C248.736 542.664 240.024 526.968 239.232 525.552L238.524 520.824C238.524 520.824 237 498.468 237.876 494.124C238.752 489.78 240.912 479.58 236.568 468.072C232.224 456.564 220.968 436.812 220.968 436.812L187.368 427.044C187.368 427.044 171.96 448.32 174.78 470.892C176.488 485.953 177.19 501.111 176.88 516.264Z" fill="#B2B2B2" stroke="#263238" stroke-width="1.2" stroke-linecap="round" stroke-linejoin="round"/>
<path d="M276.795 568.212L244.923 552.888L218.475 568.212H276.795Z" fill="#263238" stroke="#263238" stroke-width="1.2" stroke-linecap="round" stroke-linejoin="round"/>
<path d="M244.924 552.888L202.144 565.344" stroke="#263238" stroke-width="1.2" stroke-linecap="round" stroke-linejoin="round"/>
<path d="M208.852 559.92L199.912 567.264" stroke="#263238" stroke-width="1.2" stroke-linecap="round" stroke-linejoin="round"/>
<path d="M245.088 359.76C246.503 363.793 247.39 367.992 247.728 372.252C248.448 379.968 246.924 384.18 248.856 386.556C250.788 388.932 252.696 389.568 251.568 392.076C250.44 394.584 245.676 396.264 245.676 396.264C245.676 396.264 241.128 406.488 238.392 409.704C235.656 412.92 225.3 409.704 225.3 409.704L221.772 420.684L197.664 409.02L200.784 397.788L195.984 383.1C195.984 383.1 207 350.4 245.088 359.76Z" fill="white" stroke="#263238" stroke-width="1.2" stroke-linecap="round" stroke-linejoin="round"/>
<path d="M225.3 409.656L220.092 406.86L222.816 415.704L225.3 409.656Z" fill="#263238" stroke="#263238" stroke-width="1.2" stroke-linecap="round" stroke-linejoin="round"/>
<path d="M234.192 395.521C234.192 395.521 236.88 399.12 240.372 398.988" stroke="#263238" stroke-width="1.2" stroke-linecap="round" stroke-linejoin="round"/>
<path d="M244.804 381.336C244.624 383.004 243.856 384.3 243.088 384.216C242.32 384.132 241.816 382.716 241.996 381.048C242.176 379.38 242.932 378.096 243.712 378.168C244.492 378.24 244.996 379.668 244.804 381.336Z" fill="#263238"/>
<path d="M240.844 375.468C240.844 375.468 243.64 371.616 246.328 375.168" stroke="#263238" stroke-width="1.2" stroke-linecap="round" stroke-linejoin="round"/>
<path d="M211.32 338.161C211.32 338.161 192.264 336.625 187.128 348.313C181.992 360.001 181.848 376.141 183.888 381.805C185.928 387.469 192.288 395.977 194.82 398.425C197.352 400.873 201.588 402.625 205.248 401.029C208.908 399.433 213.336 392.485 214.452 388.021C215.568 383.557 214.908 379.333 216.012 379.237C218.658 379.431 221.318 379.265 223.92 378.745C229.26 377.761 240.012 372.985 245.868 364.861C251.724 356.737 250.668 347.689 248.448 344.185C246.228 340.681 222.456 331.669 211.32 338.161Z" fill="#263238" stroke="#263238" stroke-width="1.2" stroke-linecap="round" stroke-linejoin="round"/>
<path d="M211.023 334.632C211.023 334.632 211.251 338.808 208.623 341.364C205.995 343.92 192.735 349.32 192.735 349.32C192.735 349.32 188.379 359.784 186.735 362.892C185.091 366 183.279 366.684 181.215 365.592C179.151 364.5 169.635 359.376 170.271 357.48C170.907 355.584 172.995 354.264 173.055 351.66C173.115 349.056 171.231 346.008 172.731 344.208C174.22 342.586 175.824 341.074 177.531 339.684C177.531 339.684 174.531 330.648 177.087 329.16C179.643 327.672 185.667 328.524 187.227 328.248C188.787 327.972 191.091 320.352 198.243 320.88C200.255 320.979 202.211 321.579 203.932 322.627C205.653 323.675 207.084 325.137 208.095 326.88C208.866 326.713 209.672 326.838 210.357 327.23C211.042 327.622 211.557 328.254 211.803 329.004C212.219 330.913 211.943 332.908 211.023 334.632Z" fill="white" stroke="#263238" stroke-width="1.2" stroke-linecap="round" stroke-linejoin="round"/>
<path d="M187.252 328.248L192.58 329.448" stroke="#263238" stroke-width="1.2" stroke-linecap="round" stroke-linejoin="round"/>
<path d="M192.941 326.004C192.941 326.004 193.277 329.088 190.625 333.612C187.973 338.136 178.973 349.212 175.613 352.14" stroke="#263238" stroke-width="1.2" stroke-linecap="round" stroke-linejoin="round"/>
<path d="M177.6 339.684C178.925 338.338 180.57 337.349 182.382 336.812C184.193 336.275 186.111 336.206 187.956 336.612" stroke="#263238" stroke-width="1.2" stroke-linecap="round" stroke-linejoin="round"/>
<path d="M207.098 328.333C207.098 328.333 199.13 337.777 193.478 343.933C187.826 350.089 180.422 354.157 179.714 358.885" stroke="#263238" stroke-width="1.2" stroke-linecap="round" stroke-linejoin="round"/>
<path d="M200.845 336C200.845 336 207.277 330.768 211.021 334.644" stroke="#263238" stroke-width="1.2" stroke-linecap="round" stroke-linejoin="round"/>
<path d="M222.457 384.48C222.457 384.48 218.257 374.448 213.841 377.04C209.425 379.632 210.685 390.684 212.773 393.732C214.861 396.78 218.833 394.14 218.833 394.14" fill="white"/>
<path d="M222.457 384.48C222.457 384.48 218.257 374.448 213.841 377.04C209.425 379.632 210.685 390.684 212.773 393.732C214.861 396.78 218.833 394.14 218.833 394.14" stroke="#263238" stroke-width="1.2" stroke-linecap="round" stroke-linejoin="round"/>
<path d="M193.719 406.572C193.719 406.572 225.603 415.032 227.583 417.6C229.563 420.168 229.107 422.4 228.015 423.9C226.881 426.054 225.937 428.302 225.195 430.62C225.195 430.62 226.719 435.42 225.855 437.352C225.165 438.474 224.156 439.364 222.956 439.907C221.756 440.45 220.422 440.622 219.123 440.4C216.723 439.752 188.295 429.984 187.215 429.336C186.135 428.688 185.691 423.696 187.863 422.136C190.035 420.576 188.943 422.352 190.035 420.612C191.127 418.872 187.647 407.22 193.719 406.572Z" fill="#B2B2B2" stroke="#263238" stroke-width="1.2" stroke-linecap="round" stroke-linejoin="round"/>
<path d="M291.602 500.316C291.602 500.316 307.394 502.356 308.402 502.188C309.41 502.02 314.858 506.088 319.274 508.812C323.69 511.536 325.382 513.732 327.77 516.12C330.158 518.508 333.374 519.72 332.006 520.704C330.638 521.688 329.978 521.724 327.938 521.04C325.898 520.356 323.522 519.516 323.522 519.516C322.043 520.41 320.303 520.77 318.59 520.536C315.761 519.746 312.984 518.78 310.274 517.644C307.66 517.919 305.018 517.745 302.462 517.128C299.234 516.12 292.61 510 292.61 510L288.698 510.336L287.498 501.336L291.602 500.316Z" fill="white" stroke="#263238" stroke-width="1.2" stroke-linecap="round" stroke-linejoin="round"/>
<path d="M310.936 510.852C311.897 511.39 312.809 512.013 313.66 512.712C316.204 514.584 325.372 516.12 323.512 519.516" stroke="#263238" stroke-width="1.2" stroke-linecap="round" stroke-linejoin="round"/>
<path d="M337.803 512.305C337.803 512.305 338.091 515.041 337.659 515.761C337.227 516.481 335.655 516.481 334.791 514.753C334.204 513.282 333.863 511.725 333.783 510.145L337.803 512.305Z" fill="white" stroke="#263238" stroke-width="1.2" stroke-miterlimit="10"/>
<path d="M334.969 511.968C334.603 513.069 334.046 514.097 333.324 515.004C332.616 515.46 331.201 514.764 331.177 512.832C331.297 511.256 331.679 509.711 332.305 508.26L334.969 511.968Z" fill="white" stroke="#263238" stroke-width="1.2" stroke-miterlimit="10"/>
<path d="M337.659 509.568C337.659 509.568 340.539 512.16 340.251 514.752C339.963 517.344 337.947 516.768 337.383 515.04C336.819 513.312 336.183 511.296 336.183 511.296L337.659 509.568Z" fill="white" stroke="#263238" stroke-width="1.2" stroke-miterlimit="10"/>
<path d="M287.93 490.14C287.93 490.14 304.43 487.104 308.99 487.536C313.55 487.968 326.354 493.392 327.866 494.256C329.378 495.12 338.294 501.456 338.51 503.16C338.551 504.979 338.402 506.797 338.066 508.584C338.066 508.584 342.41 509.46 340.898 511.404C339.386 513.348 336.098 512.928 334.166 512.28C332.234 511.632 325.91 507.48 324.398 506.856C322.886 506.232 317.45 507.504 313.322 506.196C309.194 504.888 302.69 498.816 302.69 498.816L289.202 502.728L287.93 490.14Z" fill="white" stroke="#263238" stroke-width="1.2" stroke-miterlimit="10"/>
<path d="M325.444 495.48C327.243 495.926 328.853 496.935 330.04 498.36C332.44 500.94 338.068 508.584 338.068 508.584C331.864 507.6 326.308 501.66 326.308 501.66" fill="white"/>
<path d="M325.444 495.48C327.243 495.926 328.853 496.935 330.04 498.36C332.44 500.94 338.068 508.584 338.068 508.584C331.864 507.6 326.308 501.66 326.308 501.66" stroke="#263238" stroke-width="1.2" stroke-miterlimit="10"/>
<path d="M193.285 447.804C193.285 447.804 186.997 459.96 190.465 490.356C193.933 520.752 206.065 538.548 213.037 538.764C220.009 538.98 272.077 524.004 277.297 520.956C282.517 517.908 292.897 514.884 293.569 514.668C294.241 514.452 295.969 508.152 294.445 499.692C293.86 495.957 293.059 492.259 292.045 488.616L271.645 492.312L240.613 497.52C240.718 496.918 240.626 496.298 240.352 495.751C240.077 495.205 239.635 494.761 239.089 494.484C237.063 493.563 234.953 492.836 232.789 492.312C232.789 492.312 227.149 453.912 215.425 443.904" fill="#B2B2B2"/>
<path d="M193.285 447.804C193.285 447.804 186.997 459.96 190.465 490.356C193.933 520.752 206.065 538.548 213.037 538.764C220.009 538.98 272.077 524.004 277.297 520.956C282.517 517.908 292.897 514.884 293.569 514.668C294.241 514.452 295.969 508.152 294.445 499.692C293.86 495.957 293.059 492.259 292.045 488.616L271.645 492.312L240.613 497.52C240.718 496.918 240.626 496.298 240.352 495.751C240.077 495.205 239.635 494.761 239.089 494.484C237.063 493.563 234.953 492.836 232.789 492.312C232.789 492.312 227.149 453.912 215.425 443.904" stroke="#263238" stroke-width="1.2" stroke-linecap="round" stroke-linejoin="round"/>
<path d="M232.803 492.312C232.803 492.312 215.223 504.024 208.275 505.332" stroke="#263238" stroke-width="1.2" stroke-linecap="round" stroke-linejoin="round"/>
<path d="M210.698 515.592C209.168 516.692 207.564 517.687 205.898 518.568" stroke="#263238" stroke-width="1.2" stroke-linecap="round" stroke-linejoin="round"/>
<path d="M230.619 497.304C225.307 503.179 219.541 508.628 213.375 513.6" stroke="#263238" stroke-width="1.2" stroke-linecap="round" stroke-linejoin="round"/>
<path d="M232.613 514.044C231.903 514.93 231.098 515.735 230.213 516.444" stroke="#263238" stroke-width="1.2" stroke-linecap="round" stroke-linejoin="round"/>
<path d="M239.306 499.476C238.253 503.713 236.6 507.778 234.398 511.548" stroke="#263238" stroke-width="1.2" stroke-linecap="round" stroke-linejoin="round"/>
<path d="M278.909 509.46C278.909 510.66 278.909 511.86 278.812 513.144" stroke="#263238" stroke-width="1.2" stroke-linecap="round" stroke-linejoin="round"/>
<path d="M274.036 492.744C274.036 492.744 277.636 495.684 278.668 505.044" stroke="#263238" stroke-width="1.2" stroke-linecap="round" stroke-linejoin="round"/>
<path d="M173.15 568.356H153.602C153.602 568.356 140.93 517.836 146.03 478.872C146.272 477.062 147.164 475.402 148.539 474.201C149.915 473 151.68 472.34 153.506 472.344C154.497 472.343 155.479 472.537 156.394 472.917C157.309 473.297 158.14 473.855 158.839 474.558C159.537 475.261 160.089 476.095 160.464 477.013C160.838 477.931 161.026 478.913 161.018 479.904C160.922 493.788 162.194 525.864 173.15 568.356Z" fill="#263238" stroke="#263238" stroke-width="1.2" stroke-linecap="round" stroke-linejoin="round"/>
<path d="M15.5859 568.356H581.374" stroke="#263238" stroke-width="1.2" stroke-linecap="round" stroke-linejoin="round"/>
</svg>
