<svg width="611" height="611" viewBox="0 0 611 611" fill="none" xmlns="http://www.w3.org/2000/svg">
<path d="M489.655 527.403C519.851 500.25 542.287 463.163 559.224 427.199C584.385 373.773 597.778 307.113 562.658 255.166C542.397 225.203 510.747 206.286 475.615 199.162C441.814 192.319 408.942 193.797 379.871 172.376C350.47 150.685 324.881 123.63 298.559 98.4445C230.885 33.6785 107.927 52.2529 50.823 139.455C-6.28104 226.657 9.27502 339.936 64.265 392.482C113.646 439.688 182.542 448.914 237.068 485.819C264.086 504.149 282.979 531.118 311.61 547.212C344.91 565.921 385.737 573.595 423.252 564.039C448.792 557.525 470.739 544.413 489.655 527.403Z" fill="#92E3A9"/>
<path opacity="0.92" d="M489.655 527.403C519.851 500.25 542.287 463.163 559.224 427.199C584.385 373.773 597.778 307.113 562.658 255.166C542.397 225.203 510.747 206.286 475.615 199.162C441.814 192.319 408.942 193.797 379.871 172.376C350.47 150.685 324.881 123.63 298.559 98.4445C230.885 33.6785 107.927 52.2529 50.823 139.455C-6.28104 226.657 9.27502 339.936 64.265 392.482C113.646 439.688 182.542 448.914 237.068 485.819C264.086 504.149 282.979 531.118 311.61 547.212C344.91 565.921 385.737 573.595 423.252 564.039C448.792 557.525 470.739 544.413 489.655 527.403Z" fill="#C7E5CD"/>
<path d="M545.941 542.385L541.211 497.989" stroke="#263238" stroke-width="0.99" stroke-linecap="round" stroke-linejoin="round"/>
<path d="M541.187 499.236C541.187 499.236 532.694 492.625 532.694 477.509C532.694 462.392 544.022 450.124 544.022 450.124C544.022 450.124 556.303 465.24 553.468 480.344C550.633 495.447 541.187 499.236 541.187 499.236Z" fill="#31A74F" stroke="#263238" stroke-width="0.99" stroke-linecap="round" stroke-linejoin="round"/>
<path d="M541.211 497.989L543.374 464.628" stroke="#263238" stroke-width="0.99" stroke-linecap="round" stroke-linejoin="round"/>
<path d="M550.303 539.11C554.426 528.484 559.459 518.234 565.346 508.474" stroke="#263238" stroke-width="0.99" stroke-linecap="round" stroke-linejoin="round"/>
<path d="M560.898 516.502C560.898 516.502 556.181 506.812 562.853 493.284C569.525 479.757 585.118 473.732 585.118 473.732C585.118 473.732 589.456 492.71 580.23 505.016C571.004 517.321 560.898 516.502 560.898 516.502Z" fill="#31A74F" stroke="#263238" stroke-width="0.99" stroke-linecap="round" stroke-linejoin="round"/>
<path d="M560.898 516.503L578.091 488.238" stroke="#263238" stroke-width="0.99" stroke-linecap="round" stroke-linejoin="round"/>
<path d="M538.279 543.069C535.717 534.533 532.234 526.302 527.892 518.519L521.281 507.13" stroke="#263238" stroke-width="0.99" stroke-linecap="round" stroke-linejoin="round"/>
<path d="M526.596 515.94C521.38 517.543 515.842 517.798 510.5 516.682C505.159 515.567 500.186 513.117 496.046 509.561C481.382 497.244 482.201 472.107 482.201 472.107C482.201 472.107 510.625 468.05 522.099 484.156C525.426 488.666 527.578 493.932 528.363 499.48C529.148 505.028 528.541 510.685 526.596 515.94Z" fill="#31A74F" stroke="#263238" stroke-width="0.99" stroke-linecap="round" stroke-linejoin="round"/>
<path d="M526.596 515.941L492.906 480.833" stroke="#263238" stroke-width="0.99" stroke-linecap="round" stroke-linejoin="round"/>
<path d="M561.484 532.877H525.521V568.144H561.484V532.877Z" fill="#263238" stroke="#263238" stroke-width="0.99" stroke-linecap="round" stroke-linejoin="round"/>
<path d="M512.018 87.6784V203.854C512.018 209.629 509.724 215.168 505.64 219.252C501.556 223.336 496.017 225.63 490.242 225.63H293.194C287.419 225.63 281.88 223.336 277.797 219.252C273.713 215.168 271.418 209.629 271.418 203.854V87.6784C271.417 84.8183 271.979 81.9859 273.073 79.3432C274.167 76.7005 275.771 74.2993 277.793 72.2768C279.815 70.2544 282.217 68.6505 284.859 67.5567C287.502 66.4629 290.334 65.9008 293.194 65.9024H490.218C493.08 65.8976 495.915 66.4573 498.56 67.5497C501.206 68.642 503.61 70.2455 505.635 72.2682C507.66 74.2909 509.266 76.6932 510.361 79.3375C511.457 81.9818 512.02 84.8162 512.018 87.6784Z" fill="white" stroke="#263238" stroke-width="0.99" stroke-linecap="round" stroke-linejoin="round"/>
<path d="M420.052 133.03C422.475 117.985 412.243 103.824 397.198 101.401C382.153 98.9773 367.992 109.209 365.569 124.254C363.145 139.3 373.377 153.461 388.423 155.884C403.468 158.307 417.629 148.075 420.052 133.03Z" fill="#31A74F"/>
<path d="M404.849 122.285C404.849 124.663 404.143 126.988 402.822 128.966C401.501 130.943 399.623 132.484 397.426 133.394C395.228 134.304 392.811 134.543 390.478 134.079C388.146 133.615 386.003 132.469 384.321 130.788C382.64 129.106 381.495 126.964 381.031 124.631C380.567 122.299 380.805 119.881 381.715 117.684C382.625 115.486 384.166 113.608 386.144 112.287C388.121 110.966 390.446 110.261 392.824 110.261C394.404 110.259 395.968 110.569 397.428 111.173C398.887 111.776 400.213 112.662 401.33 113.779C402.447 114.896 403.333 116.222 403.936 117.682C404.54 119.141 404.85 120.706 404.849 122.285Z" fill="white"/>
<path d="M373.015 147.862C375.586 150.517 378.664 152.629 382.067 154.071C385.47 155.513 389.128 156.256 392.824 156.256C396.52 156.256 400.178 155.513 403.581 154.071C406.984 152.629 410.062 150.517 412.633 147.862V147.055C412.633 144.242 411.515 141.544 409.526 139.555C407.537 137.566 404.839 136.448 402.026 136.448H383.635C380.82 136.448 378.121 137.565 376.13 139.554C374.139 141.543 373.019 144.241 373.015 147.055V147.862Z" fill="white"/>
<path d="M511.492 83.0226H271.98C273.047 78.1737 275.737 73.8345 279.606 70.7233C283.475 67.6122 288.291 65.9156 293.255 65.9146H490.217C495.182 65.9156 499.998 67.6122 503.867 70.7233C507.736 73.8345 510.426 78.1737 511.492 83.0226Z" fill="#31A74F" stroke="#263238" stroke-width="0.99" stroke-linecap="round" stroke-linejoin="round"/>
<path d="M99.8618 348.6V346.792" stroke="#263238" stroke-width="0.99" stroke-linecap="round" stroke-linejoin="round"/>
<path d="M99.8618 343.211V188.273C99.8618 185.143 100.479 182.043 101.677 179.152C102.875 176.26 104.631 173.632 106.845 171.419C109.06 169.206 111.688 167.452 114.58 166.255C117.473 165.058 120.573 164.443 123.703 164.444H237.068" stroke="#263238" stroke-width="0.99" stroke-linecap="round" stroke-linejoin="round" stroke-dasharray="2.93 2.93"/>
<path d="M238.913 164.444H240.709" stroke="#263238" stroke-width="0.99" stroke-linecap="round" stroke-linejoin="round"/>
<path d="M252.624 165.434L233.145 154.18V176.677L252.624 165.434Z" fill="#263238"/>
<path d="M438.576 499.505H440.384" stroke="#263238" stroke-width="0.99" stroke-linecap="round" stroke-linejoin="round"/>
<path d="M443.965 499.505H450.649C456.992 499.505 463.074 496.985 467.559 492.5C472.044 488.015 474.564 481.933 474.564 475.59V249.52" stroke="#263238" stroke-width="0.99" stroke-linecap="round" stroke-linejoin="round" stroke-dasharray="2.93 2.93"/>
<path d="M474.564 247.736V245.939" stroke="#263238" stroke-width="0.99" stroke-linecap="round" stroke-linejoin="round"/>
<path d="M431.757 498.454L451.236 509.696V487.199L431.757 498.454Z" fill="#263238"/>
<path d="M354.072 180.145C353.247 180.145 352.533 179.964 351.932 179.604C351.339 179.235 350.879 178.726 350.55 178.077C350.23 177.42 350.069 176.663 350.069 175.806C350.069 174.94 350.23 174.183 350.55 173.534C350.879 172.877 351.339 172.364 351.932 171.995C352.533 171.627 353.247 171.442 354.072 171.442C355.066 171.442 355.879 171.691 356.512 172.187C357.145 172.676 357.542 173.369 357.702 174.267H356.127C356.015 173.794 355.787 173.422 355.442 173.149C355.098 172.877 354.637 172.74 354.06 172.74C353.539 172.74 353.09 172.865 352.714 173.113C352.337 173.353 352.049 173.706 351.848 174.171C351.648 174.628 351.548 175.172 351.548 175.806C351.548 176.439 351.648 176.983 351.848 177.44C352.049 177.889 352.337 178.238 352.714 178.486C353.09 178.726 353.539 178.847 354.06 178.847C354.637 178.847 355.098 178.722 355.442 178.474C355.787 178.218 356.015 177.865 356.127 177.416H357.702C357.542 178.266 357.145 178.935 356.512 179.424C355.879 179.904 355.066 180.145 354.072 180.145ZM359.079 180V173.846H360.365L360.497 174.964C360.641 174.692 360.825 174.463 361.05 174.279C361.274 174.087 361.539 173.942 361.843 173.846C362.148 173.75 362.484 173.702 362.853 173.702V175.217H362.24C361.999 175.217 361.775 175.245 361.567 175.301C361.358 175.357 361.174 175.453 361.014 175.589C360.861 175.717 360.741 175.894 360.653 176.118C360.565 176.342 360.521 176.623 360.521 176.959V180H359.079ZM366.645 180.145C366.052 180.145 365.527 180.013 365.071 179.748C364.614 179.484 364.257 179.111 364.001 178.63C363.744 178.149 363.616 177.592 363.616 176.959C363.616 176.318 363.744 175.753 364.001 175.265C364.257 174.776 364.61 174.395 365.059 174.123C365.515 173.842 366.048 173.702 366.657 173.702C367.266 173.702 367.787 173.834 368.22 174.099C368.653 174.363 368.985 174.724 369.217 175.18C369.458 175.629 369.578 176.138 369.578 176.707C369.578 176.787 369.578 176.875 369.578 176.971C369.578 177.06 369.57 177.16 369.554 177.272H364.662V176.334H368.136C368.112 175.878 367.959 175.521 367.679 175.265C367.406 175 367.066 174.868 366.657 174.868C366.361 174.868 366.088 174.94 365.84 175.084C365.599 175.221 365.403 175.429 365.251 175.709C365.107 175.982 365.035 176.326 365.035 176.743V177.092C365.035 177.484 365.103 177.821 365.239 178.101C365.383 178.382 365.575 178.594 365.816 178.738C366.056 178.883 366.329 178.955 366.633 178.955C366.986 178.955 367.266 178.887 367.475 178.75C367.683 178.614 367.839 178.43 367.943 178.197H369.41C369.298 178.558 369.113 178.887 368.857 179.183C368.608 179.48 368.296 179.716 367.919 179.892C367.543 180.061 367.118 180.145 366.645 180.145ZM372.954 180.145C372.457 180.145 372.044 180.061 371.715 179.892C371.395 179.724 371.155 179.496 370.994 179.207C370.834 178.919 370.754 178.606 370.754 178.27C370.754 177.885 370.85 177.552 371.042 177.272C371.243 176.983 371.535 176.763 371.92 176.611C372.304 176.451 372.773 176.37 373.326 176.37H374.841C374.841 176.034 374.801 175.757 374.72 175.541C374.64 175.317 374.508 175.152 374.324 175.048C374.14 174.936 373.895 174.88 373.591 174.88C373.27 174.88 372.998 174.952 372.773 175.096C372.557 175.241 372.421 175.457 372.365 175.745H370.946C370.994 175.321 371.135 174.956 371.367 174.652C371.607 174.347 371.92 174.115 372.304 173.954C372.697 173.786 373.13 173.702 373.603 173.702C374.172 173.702 374.656 173.798 375.057 173.99C375.458 174.183 375.762 174.463 375.971 174.832C376.179 175.192 376.283 175.629 376.283 176.142V180H375.057L374.913 179.027C374.825 179.187 374.716 179.335 374.588 179.472C374.468 179.608 374.328 179.728 374.168 179.832C374.007 179.928 373.823 180.004 373.615 180.061C373.414 180.117 373.194 180.145 372.954 180.145ZM373.266 179.003C373.49 179.003 373.691 178.959 373.867 178.871C374.051 178.782 374.208 178.662 374.336 178.51C374.472 178.358 374.576 178.181 374.648 177.981C374.728 177.781 374.777 177.568 374.793 177.344V177.296H373.482C373.202 177.296 372.97 177.332 372.785 177.404C372.609 177.476 372.481 177.58 372.401 177.717C372.32 177.845 372.28 177.993 372.28 178.161C372.28 178.338 372.32 178.49 372.401 178.618C372.481 178.746 372.593 178.843 372.737 178.907C372.889 178.971 373.066 179.003 373.266 179.003ZM380.434 180C380.033 180 379.681 179.936 379.376 179.808C379.072 179.68 378.835 179.468 378.667 179.171C378.507 178.875 378.427 178.474 378.427 177.969V175.048H377.369V173.846H378.427L378.595 172.2H379.869V173.846H381.528V175.048H379.869V177.969C379.869 178.274 379.933 178.486 380.061 178.606C380.19 178.718 380.414 178.774 380.735 178.774H381.516V180H380.434ZM385.579 180.145C384.986 180.145 384.461 180.013 384.004 179.748C383.548 179.484 383.191 179.111 382.935 178.63C382.678 178.149 382.55 177.592 382.55 176.959C382.55 176.318 382.678 175.753 382.935 175.265C383.191 174.776 383.544 174.395 383.992 174.123C384.449 173.842 384.982 173.702 385.591 173.702C386.2 173.702 386.721 173.834 387.154 174.099C387.586 174.363 387.919 174.724 388.151 175.18C388.392 175.629 388.512 176.138 388.512 176.707C388.512 176.787 388.512 176.875 388.512 176.971C388.512 177.06 388.504 177.16 388.488 177.272H383.596V176.334H387.07C387.045 175.878 386.893 175.521 386.613 175.265C386.34 175 386 174.868 385.591 174.868C385.295 174.868 385.022 174.94 384.774 175.084C384.533 175.221 384.337 175.429 384.185 175.709C384.04 175.982 383.968 176.326 383.968 176.743V177.092C383.968 177.484 384.036 177.821 384.173 178.101C384.317 178.382 384.509 178.594 384.75 178.738C384.99 178.883 385.263 178.955 385.567 178.955C385.92 178.955 386.2 178.887 386.408 178.75C386.617 178.614 386.773 178.43 386.877 178.197H388.344C388.231 178.558 388.047 178.887 387.791 179.183C387.542 179.48 387.23 179.716 386.853 179.892C386.477 180.061 386.052 180.145 385.579 180.145ZM395.014 180V176.971L392.201 171.586H393.836L395.843 175.733H395.651L397.646 171.586H399.257L396.456 176.971V180H395.014ZM402.036 180.145C401.451 180.145 400.927 180.009 400.462 179.736C400.005 179.464 399.644 179.087 399.38 178.606C399.124 178.117 398.995 177.556 398.995 176.923C398.995 176.282 399.128 175.721 399.392 175.241C399.656 174.752 400.017 174.375 400.474 174.111C400.939 173.838 401.463 173.702 402.048 173.702C402.633 173.702 403.154 173.838 403.611 174.111C404.068 174.375 404.424 174.752 404.681 175.241C404.945 175.721 405.077 176.282 405.077 176.923C405.077 177.556 404.945 178.117 404.681 178.606C404.424 179.087 404.064 179.464 403.599 179.736C403.142 180.009 402.621 180.145 402.036 180.145ZM402.036 178.907C402.333 178.907 402.597 178.835 402.83 178.69C403.07 178.538 403.258 178.314 403.395 178.017C403.539 177.721 403.611 177.356 403.611 176.923C403.611 176.483 403.543 176.118 403.407 175.83C403.27 175.533 403.082 175.313 402.842 175.168C402.609 175.016 402.345 174.94 402.048 174.94C401.76 174.94 401.495 175.016 401.255 175.168C401.015 175.313 400.822 175.533 400.678 175.83C400.542 176.118 400.474 176.483 400.474 176.923C400.474 177.356 400.542 177.721 400.678 178.017C400.822 178.314 401.011 178.538 401.243 178.69C401.475 178.835 401.74 178.907 402.036 178.907ZM408.785 180.145C408.304 180.145 407.891 180.049 407.547 179.856C407.202 179.664 406.934 179.379 406.741 179.003C406.557 178.618 406.465 178.141 406.465 177.572V173.846H407.907V177.416C407.907 177.921 408.019 178.302 408.244 178.558C408.476 178.807 408.809 178.931 409.241 178.931C409.522 178.931 409.774 178.867 409.999 178.738C410.223 178.61 410.399 178.422 410.528 178.173C410.664 177.925 410.732 177.621 410.732 177.26V173.846H412.174V180H410.888L410.792 179.015C410.616 179.359 410.355 179.636 410.011 179.844C409.666 180.045 409.257 180.145 408.785 180.145ZM413.814 180V173.846H415.1L415.232 174.964C415.377 174.692 415.561 174.463 415.785 174.279C416.01 174.087 416.274 173.942 416.579 173.846C416.883 173.75 417.22 173.702 417.588 173.702V175.217H416.975C416.735 175.217 416.511 175.245 416.302 175.301C416.094 175.357 415.91 175.453 415.749 175.589C415.597 175.717 415.477 175.894 415.389 176.118C415.301 176.342 415.257 176.623 415.257 176.959V180H413.814Z" fill="black"/>
<path d="M337.551 202.141C336.758 202.141 336.061 201.961 335.46 201.6C334.867 201.239 334.406 200.738 334.077 200.097C333.749 199.448 333.584 198.691 333.584 197.826C333.584 196.968 333.753 196.211 334.089 195.554C334.426 194.889 334.907 194.372 335.532 194.003C336.165 193.627 336.914 193.438 337.779 193.438C338.757 193.438 339.566 193.675 340.207 194.148C340.857 194.612 341.273 195.261 341.458 196.095H339.847C339.727 195.678 339.49 195.354 339.138 195.121C338.785 194.889 338.328 194.773 337.767 194.773C337.198 194.773 336.71 194.897 336.301 195.145C335.9 195.386 335.592 195.738 335.375 196.203C335.167 196.66 335.063 197.205 335.063 197.838C335.063 198.471 335.167 199.016 335.375 199.472C335.592 199.929 335.896 200.278 336.289 200.518C336.682 200.751 337.142 200.867 337.671 200.867C338.457 200.867 339.05 200.646 339.45 200.206C339.851 199.765 340.087 199.192 340.159 198.487H337.984V197.393H341.614V201.997H340.292L340.171 200.843C339.987 201.115 339.775 201.352 339.534 201.552C339.294 201.744 339.009 201.892 338.681 201.997C338.36 202.093 337.984 202.141 337.551 202.141ZM343.157 201.997V195.842H344.443L344.575 196.96C344.72 196.688 344.904 196.459 345.128 196.275C345.353 196.083 345.617 195.939 345.922 195.842C346.226 195.746 346.563 195.698 346.931 195.698V197.213H346.318C346.078 197.213 345.854 197.241 345.645 197.297C345.437 197.353 345.253 197.449 345.092 197.585C344.94 197.713 344.82 197.89 344.732 198.114C344.644 198.338 344.599 198.619 344.599 198.956V201.997H343.157ZM350.724 202.141C350.131 202.141 349.606 202.009 349.149 201.744C348.692 201.48 348.336 201.107 348.079 200.626C347.823 200.146 347.695 199.589 347.695 198.956C347.695 198.314 347.823 197.75 348.079 197.261C348.336 196.772 348.688 196.391 349.137 196.119C349.594 195.838 350.127 195.698 350.736 195.698C351.345 195.698 351.866 195.83 352.298 196.095C352.731 196.359 353.064 196.72 353.296 197.177C353.536 197.625 353.657 198.134 353.657 198.703C353.657 198.783 353.657 198.871 353.657 198.968C353.657 199.056 353.649 199.156 353.633 199.268H348.74V198.33H352.214C352.19 197.874 352.038 197.517 351.757 197.261C351.485 196.996 351.144 196.864 350.736 196.864C350.439 196.864 350.167 196.936 349.918 197.08C349.678 197.217 349.482 197.425 349.329 197.705C349.185 197.978 349.113 198.322 349.113 198.739V199.088C349.113 199.48 349.181 199.817 349.317 200.097C349.462 200.378 349.654 200.59 349.894 200.734C350.135 200.879 350.407 200.951 350.712 200.951C351.064 200.951 351.345 200.883 351.553 200.747C351.761 200.61 351.918 200.426 352.022 200.194H353.488C353.376 200.554 353.192 200.883 352.935 201.179C352.687 201.476 352.375 201.712 351.998 201.888C351.621 202.057 351.197 202.141 350.724 202.141ZM357.825 202.141C357.232 202.141 356.708 202.009 356.251 201.744C355.794 201.48 355.437 201.107 355.181 200.626C354.925 200.146 354.796 199.589 354.796 198.956C354.796 198.314 354.925 197.75 355.181 197.261C355.437 196.772 355.79 196.391 356.239 196.119C356.696 195.838 357.228 195.698 357.837 195.698C358.446 195.698 358.967 195.83 359.4 196.095C359.833 196.359 360.165 196.72 360.398 197.177C360.638 197.625 360.758 198.134 360.758 198.703C360.758 198.783 360.758 198.871 360.758 198.968C360.758 199.056 360.75 199.156 360.734 199.268H355.842V198.33H359.316C359.292 197.874 359.14 197.517 358.859 197.261C358.587 196.996 358.246 196.864 357.837 196.864C357.541 196.864 357.269 196.936 357.02 197.08C356.78 197.217 356.583 197.425 356.431 197.705C356.287 197.978 356.215 198.322 356.215 198.739V199.088C356.215 199.48 356.283 199.817 356.419 200.097C356.563 200.378 356.756 200.59 356.996 200.734C357.236 200.879 357.509 200.951 357.813 200.951C358.166 200.951 358.446 200.883 358.655 200.747C358.863 200.61 359.019 200.426 359.124 200.194H360.59C360.478 200.554 360.294 200.883 360.037 201.179C359.789 201.476 359.476 201.712 359.1 201.888C358.723 202.057 358.298 202.141 357.825 202.141ZM362.114 201.997V195.842H363.389L363.485 196.816C363.669 196.471 363.933 196.199 364.278 195.999C364.623 195.798 365.031 195.698 365.504 195.698C365.985 195.698 366.398 195.798 366.742 195.999C367.087 196.191 367.351 196.479 367.535 196.864C367.728 197.249 367.824 197.721 367.824 198.282V201.997H366.382V198.427C366.382 197.938 366.265 197.565 366.033 197.309C365.809 197.044 365.48 196.912 365.047 196.912C364.775 196.912 364.522 196.98 364.29 197.116C364.066 197.245 363.885 197.433 363.749 197.681C363.621 197.922 363.557 198.222 363.557 198.583V201.997H362.114ZM369.476 201.997V195.842H370.918V201.997H369.476ZM370.197 194.905C369.932 194.905 369.712 194.825 369.536 194.664C369.368 194.504 369.283 194.3 369.283 194.051C369.283 193.803 369.368 193.603 369.536 193.45C369.712 193.29 369.932 193.21 370.197 193.21C370.461 193.21 370.678 193.29 370.846 193.45C371.022 193.603 371.11 193.803 371.11 194.051C371.11 194.3 371.022 194.504 370.846 194.664C370.678 194.825 370.461 194.905 370.197 194.905ZM375.409 202.141C374.816 202.141 374.292 202.009 373.835 201.744C373.378 201.48 373.021 201.107 372.765 200.626C372.509 200.146 372.38 199.589 372.38 198.956C372.38 198.314 372.509 197.75 372.765 197.261C373.021 196.772 373.374 196.391 373.823 196.119C374.279 195.838 374.812 195.698 375.421 195.698C376.03 195.698 376.551 195.83 376.984 196.095C377.417 196.359 377.749 196.72 377.982 197.177C378.222 197.625 378.342 198.134 378.342 198.703C378.342 198.783 378.342 198.871 378.342 198.968C378.342 199.056 378.334 199.156 378.318 199.268H373.426V198.33H376.9C376.876 197.874 376.724 197.517 376.443 197.261C376.171 196.996 375.83 196.864 375.421 196.864C375.125 196.864 374.852 196.936 374.604 197.08C374.364 197.217 374.167 197.425 374.015 197.705C373.871 197.978 373.799 198.322 373.799 198.739V199.088C373.799 199.48 373.867 199.817 374.003 200.097C374.147 200.378 374.34 200.59 374.58 200.734C374.82 200.879 375.093 200.951 375.397 200.951C375.75 200.951 376.03 200.883 376.239 200.747C376.447 200.61 376.603 200.426 376.708 200.194H378.174C378.062 200.554 377.877 200.883 377.621 201.179C377.373 201.476 377.06 201.712 376.683 201.888C376.307 202.057 375.882 202.141 375.409 202.141ZM382.14 201.997L385.229 193.583H386.839L389.916 201.997H388.378L386.022 195.265L383.654 201.997H382.14ZM383.522 200.013L383.906 198.871H388.053L388.438 200.013H383.522ZM393.617 202.141C393.016 202.141 392.483 202.005 392.018 201.732C391.553 201.46 391.189 201.083 390.924 200.602C390.66 200.121 390.528 199.569 390.528 198.944C390.528 198.302 390.66 197.737 390.924 197.249C391.189 196.76 391.553 196.379 392.018 196.107C392.483 195.834 393.016 195.698 393.617 195.698C394.378 195.698 395.015 195.898 395.528 196.299C396.041 196.7 396.369 197.249 396.514 197.946H394.999C394.919 197.625 394.751 197.377 394.494 197.201C394.246 197.016 393.949 196.924 393.605 196.924C393.292 196.924 393.016 197.004 392.775 197.165C392.535 197.317 392.347 197.541 392.211 197.838C392.074 198.134 392.006 198.495 392.006 198.919C392.006 199.232 392.042 199.512 392.114 199.761C392.194 200.009 392.307 200.222 392.451 200.398C392.595 200.566 392.763 200.694 392.956 200.783C393.156 200.871 393.372 200.915 393.605 200.915C393.837 200.915 394.046 200.875 394.23 200.795C394.422 200.714 394.586 200.598 394.723 200.446C394.859 200.294 394.951 200.109 394.999 199.893H396.514C396.377 200.574 396.049 201.119 395.528 201.528C395.007 201.936 394.37 202.141 393.617 202.141ZM400.812 202.141C400.211 202.141 399.679 202.005 399.214 201.732C398.749 201.46 398.384 201.083 398.12 200.602C397.856 200.121 397.723 199.569 397.723 198.944C397.723 198.302 397.856 197.737 398.12 197.249C398.384 196.76 398.749 196.379 399.214 196.107C399.679 195.834 400.211 195.698 400.812 195.698C401.574 195.698 402.211 195.898 402.724 196.299C403.236 196.7 403.565 197.249 403.709 197.946H402.195C402.115 197.625 401.946 197.377 401.69 197.201C401.441 197.016 401.145 196.924 400.8 196.924C400.488 196.924 400.211 197.004 399.971 197.165C399.731 197.317 399.542 197.541 399.406 197.838C399.27 198.134 399.202 198.495 399.202 198.919C399.202 199.232 399.238 199.512 399.31 199.761C399.39 200.009 399.502 200.222 399.646 200.398C399.791 200.566 399.959 200.694 400.151 200.783C400.352 200.871 400.568 200.915 400.8 200.915C401.033 200.915 401.241 200.875 401.425 200.795C401.618 200.714 401.782 200.598 401.918 200.446C402.054 200.294 402.147 200.109 402.195 199.893H403.709C403.573 200.574 403.244 201.119 402.724 201.528C402.203 201.936 401.566 202.141 400.812 202.141ZM407.96 202.141C407.375 202.141 406.85 202.005 406.385 201.732C405.929 201.46 405.568 201.083 405.303 200.602C405.047 200.113 404.919 199.553 404.919 198.919C404.919 198.278 405.051 197.717 405.316 197.237C405.58 196.748 405.941 196.371 406.397 196.107C406.862 195.834 407.387 195.698 407.972 195.698C408.557 195.698 409.078 195.834 409.535 196.107C409.991 196.371 410.348 196.748 410.604 197.237C410.869 197.717 411.001 198.278 411.001 198.919C411.001 199.553 410.869 200.113 410.604 200.602C410.348 201.083 409.987 201.46 409.523 201.732C409.066 202.005 408.545 202.141 407.96 202.141ZM407.96 200.903C408.256 200.903 408.521 200.831 408.753 200.686C408.994 200.534 409.182 200.31 409.318 200.013C409.462 199.717 409.535 199.352 409.535 198.919C409.535 198.479 409.466 198.114 409.33 197.826C409.194 197.529 409.006 197.309 408.765 197.165C408.533 197.012 408.268 196.936 407.972 196.936C407.683 196.936 407.419 197.012 407.179 197.165C406.938 197.309 406.746 197.529 406.602 197.826C406.465 198.114 406.397 198.479 406.397 198.919C406.397 199.352 406.465 199.717 406.602 200.013C406.746 200.31 406.934 200.534 407.167 200.686C407.399 200.831 407.663 200.903 407.96 200.903ZM414.708 202.141C414.227 202.141 413.815 202.045 413.47 201.852C413.126 201.66 412.857 201.376 412.665 200.999C412.48 200.614 412.388 200.137 412.388 199.569V195.842H413.831V199.412C413.831 199.917 413.943 200.298 414.167 200.554C414.4 200.803 414.732 200.927 415.165 200.927C415.445 200.927 415.698 200.863 415.922 200.734C416.147 200.606 416.323 200.418 416.451 200.17C416.587 199.921 416.655 199.617 416.655 199.256V195.842H418.098V201.997H416.812L416.716 201.011C416.539 201.356 416.279 201.632 415.934 201.84C415.59 202.041 415.181 202.141 414.708 202.141ZM419.738 201.997V195.842H421.012L421.108 196.816C421.292 196.471 421.557 196.199 421.901 195.999C422.246 195.798 422.654 195.698 423.127 195.698C423.608 195.698 424.021 195.798 424.365 195.999C424.71 196.191 424.974 196.479 425.159 196.864C425.351 197.249 425.447 197.721 425.447 198.282V201.997H424.005V198.427C424.005 197.938 423.889 197.565 423.656 197.309C423.432 197.044 423.103 196.912 422.671 196.912C422.398 196.912 422.146 196.98 421.913 197.116C421.689 197.245 421.509 197.433 421.372 197.681C421.244 197.922 421.18 198.222 421.18 198.583V201.997H419.738ZM429.695 201.997C429.295 201.997 428.942 201.932 428.638 201.804C428.333 201.676 428.097 201.464 427.928 201.167C427.768 200.871 427.688 200.47 427.688 199.965V197.044H426.63V195.842H427.688L427.856 194.196H429.13V195.842H430.789V197.044H429.13V199.965C429.13 200.27 429.194 200.482 429.323 200.602C429.451 200.714 429.675 200.771 429.996 200.771H430.777V201.997H429.695Z" fill="#31A74F"/>
<path d="M329.683 351.765C330.722 349.788 332.282 348.133 334.196 346.98C336.109 345.828 338.301 345.222 340.535 345.228H445.077C445.077 345.228 452.629 345.228 450.368 359.586C448.107 373.945 417.117 461.611 409.553 488.055C401.989 514.499 400.486 570.43 400.486 570.43H275.035C275.035 570.43 285.092 436.902 329.683 351.765Z" fill="white" stroke="#263238" stroke-width="0.99" stroke-linecap="round" stroke-linejoin="round"/>
<path d="M426.942 370.169C416.372 394.829 393.948 492.369 390.38 570.43H400.486C400.486 570.43 402.038 514.462 409.553 488.055C417.069 461.647 448.095 373.945 450.368 359.586C452.641 345.228 445.077 345.228 445.077 345.228C445.077 345.228 435.411 350.397 426.942 370.169Z" fill="#263238" stroke="#263238" stroke-width="0.99" stroke-linecap="round" stroke-linejoin="round"/>
<path d="M228.147 347.207C228.147 347.207 208.962 344.873 196.29 331.553C183.618 318.233 223.834 270.734 245.304 259.541C266.775 248.347 275.622 251.414 298.644 268.388C321.667 285.362 344.14 312.6 343.858 330.869C343.577 349.138 333.63 357.875 347.524 366.881C361.419 375.887 400.743 401.464 406.486 419.036C412.229 436.609 402.27 458.47 379.211 470.36C356.152 482.25 318.319 481.7 281.879 469.92C245.439 458.14 237.508 420.869 242.2 405.704C246.893 390.539 259.308 380.116 255.569 368.58C251.83 357.044 228.147 347.207 228.147 347.207Z" fill="#263238" stroke="#263238" stroke-width="0.99" stroke-linecap="round" stroke-linejoin="round"/>
<path d="M244.595 399.594C244.595 399.594 224.762 396.833 215.585 402.759C206.408 408.686 161.133 486.087 161.133 486.087L136.118 452.421L114.428 462.161C114.428 462.161 124.595 501.509 136.424 521.086C148.253 540.662 154.998 542.642 159.055 541.994C171.129 540.075 206.102 499.615 206.102 499.615L218.811 541.896L210.184 572.63H370.877L351.386 540.124C351.386 540.124 376.816 422.812 370.339 410.385C363.863 397.957 326.127 399.594 314.262 399.594H280.29C275.141 400.615 269.909 401.155 264.661 401.207C257.949 401.012 251.252 400.474 244.595 399.594Z" fill="#31A74F"/>
<path d="M351.936 403.554L352.266 403.688L349.186 411.533L348.844 411.399L351.936 403.554ZM351.093 412.279L351.423 412.413L354.514 404.568L354.172 404.433L351.093 412.279ZM365.109 437.244L364.755 437.146L363.398 441.973H363.777L365.109 437.244ZM367.431 437.904L367.077 437.806L365.855 441.973H366.221L367.431 437.904ZM352.767 438.173L353.916 441.973H354.294L353.072 438.063L352.767 438.173ZM355.431 437.379L355.077 437.476L356.433 441.973H356.812L355.431 437.379ZM365.28 419.427L369.459 412.095L369.154 411.912L364.962 419.244L365.28 419.427ZM367.37 420.649L371.292 413.794C371.292 413.586 371.292 413.403 371.219 413.207L367.052 420.478L367.37 420.649ZM370.119 431.073L370.816 430.157L370.889 429.484L369.826 430.853L370.119 431.073ZM359.745 423.631L365.586 429.741L365.842 429.497L360.001 423.387L359.745 423.631ZM357.899 425.256L363.728 431.366L363.997 431.122L358.156 425.012L357.899 425.256ZM351.459 425.256L351.557 424.902L347.048 423.79V424.157L351.459 425.256ZM346.987 421.59L352.058 422.873L352.144 422.519L347.048 421.297L346.987 421.59ZM352.645 432.503L352.535 432.161L347.048 434.067V434.446L352.645 432.503ZM351.777 429.863L346.987 431.452V431.831L351.875 430.205L351.777 429.863ZM349.125 498.136L352.205 490.291L351.875 490.157L348.783 498.002L349.125 498.136ZM354.111 491.037L351.032 498.882L351.362 499.016L354.453 491.171L354.111 491.037ZM353.952 527.819L353.011 524.678L352.657 524.776L353.806 528.564L353.952 527.819ZM360.062 475.053L359.72 475.175L362.58 483.106H362.653L362.763 482.556L360.062 475.053ZM361.981 474.356L363.484 478.499C363.484 478.267 363.569 478.034 363.606 477.79L362.323 474.234L361.981 474.356ZM367.333 453.704L367.529 454.352L367.639 453.619L367.333 453.704ZM359.292 453.228L358.804 461.635H359.158L359.647 453.216L359.292 453.228ZM361.211 461.782H361.565L362.054 453.362H361.7L361.211 461.782ZM350.934 452.861L351.105 452.544L346.95 450.307V450.723L350.934 452.861ZM346.95 447.973L352.07 450.723L352.241 450.405L347.048 447.656L346.95 447.973ZM350.152 460.694L349.92 460.425L347.048 463.138V463.615L350.152 460.694ZM348.575 458.874L348.343 458.592L346.95 459.814V460.291L348.575 458.874ZM347.048 473.33V473.709L354.649 470.739L354.514 470.409L347.048 473.33ZM347.048 470.739V471.13L353.769 468.503L353.635 468.161L347.048 470.739ZM351.533 486.039L351.618 485.684L347.048 484.658V485.024L351.533 486.039ZM352.058 483.692L352.144 483.338L347.048 482.189V482.556L352.058 483.692ZM351.459 512.018L351.557 511.676L346.987 510.515V510.894L351.459 512.018ZM347.048 508.352L352.119 509.648L352.205 509.293L347.048 507.998V508.352ZM352.706 519.265L352.596 518.923L347.048 520.756V521.147L352.706 519.265ZM351.948 516.98L351.838 516.637L347.048 518.226V518.605L351.948 516.98ZM362.812 445.346L363.777 441.961H363.398L362.47 445.248L362.812 445.346ZM366.27 441.961H365.903L364.791 445.896L365.134 446.006L366.27 441.961ZM355.15 446.226L355.504 446.128L354.282 441.961H353.903L355.15 446.226ZM357.802 445.432L356.763 441.961H356.384L357.459 445.542L357.802 445.432ZM359.818 561.949L362.677 569.868L363.02 569.746L360.16 561.827L359.818 561.949ZM365.28 568.927L362.421 561.008L362.079 561.131L364.938 569.049L365.28 568.927ZM369.325 570.882L368.971 570.784L368.457 572.617H368.836L369.325 570.882ZM347.048 537.497L351.032 539.636L351.203 539.318L347.048 537.082V537.497ZM347.048 534.76L351.936 537.436L352.009 537.069L347.048 534.356V534.76ZM350.189 547.456L349.956 547.175L347.048 549.778V550.242L350.189 547.456ZM348.612 545.623L348.38 545.354L346.987 546.576V547.053L348.612 545.623ZM354.453 557.061L347.048 560.018V560.41L354.649 557.428L354.453 557.061ZM346.987 557.782L353.708 555.155L353.573 554.825L346.987 557.391V557.782ZM346.987 571.31V571.689L351.032 572.593H351.496L351.557 572.348L346.987 571.31ZM351.997 570.344L352.083 569.99L346.987 568.841V569.22L351.997 570.344ZM262.095 411.362L262.424 411.497L265.516 403.651L265.174 403.517L262.095 411.362ZM264.331 412.242L264.673 412.376L267.752 404.531L267.422 404.397L264.331 412.242ZM343.296 423.179L346.962 424.12V423.753L343.358 422.837L343.296 423.179ZM343.981 420.503L343.883 420.845L346.987 421.639V421.26L343.981 420.503ZM347.048 434.446V434.067L344.604 434.886L344.714 435.228L347.048 434.446ZM343.773 432.588L343.883 432.93L346.987 431.904V431.525L343.773 432.588ZM337.272 441.973H337.687L339.276 439.212L338.971 439.028L337.272 441.973ZM340.058 441.973H340.474L341.366 440.409L341.06 440.226L340.058 441.973ZM321.887 438.601L321.606 438.833L324.184 441.973H324.649L321.887 438.601ZM323.476 437.305L327.3 441.973H327.765L323.757 437.085L323.476 437.305ZM314.359 441.423L314.03 441.546L314.176 441.973H314.567L314.359 441.423ZM316.29 440.727L316.742 441.949H317.121L316.632 440.58L316.29 440.727ZM303.068 441.949L304.107 437.855L303.753 437.77L302.689 441.949H303.068ZM306.087 438.356L305.17 441.949H305.5L306.392 438.454L306.087 438.356ZM278.384 437.22L278.029 437.122L276.661 441.949H277.04L278.384 437.22ZM280.693 437.88L280.351 437.782L279.129 441.949H279.508L280.693 437.88ZM266.029 438.148L267.178 441.949H267.557L266.335 438.038L266.029 438.148ZM268.681 437.354L268.339 437.452L269.695 441.949H270.062L268.681 437.354ZM278.53 419.403L282.722 412.071L282.404 411.888L278.213 419.22L278.53 419.403ZM280.315 420.429L280.62 420.601L284.812 413.269L284.494 413.085L280.315 420.429ZM328.131 425.806L335.891 429.093L336.026 428.763L328.266 425.476L328.131 425.806ZM327.19 428.018L334.95 431.305L335.085 430.975L327.264 427.7L327.19 428.018ZM333.728 415.358L334.07 415.456L336.368 407.342L336.013 407.244L333.728 415.358ZM336.038 416.018L336.392 416.116L338.677 408.002L338.335 407.904L336.038 416.018ZM323.427 400.939L325.871 409.004L326.213 408.906L323.83 400.816L323.427 400.939ZM325.724 400.242L328.168 408.307L328.51 408.209L326.066 400.144L325.724 400.242ZM299.097 434.788L296.653 426.723L296.311 426.82L298.755 434.898L299.097 434.788ZM301.406 434.091L298.962 426.026L298.608 426.124L301.052 434.201L301.406 434.091ZM310.938 429.423L319.284 428.201V427.847L310.938 429.069V429.423ZM311.28 431.806L319.626 430.584V430.23L311.28 431.452V431.806ZM317.39 421.529L317.744 421.615L319.626 413.403L319.272 413.317L317.39 421.529ZM321.618 413.855L319.736 422.067L320.091 422.152L321.973 413.941L321.618 413.855ZM292.058 416.849L292.363 417.044L296.873 409.92L296.567 409.737L292.058 416.849ZM298.913 411.216L298.608 411.02L294.099 418.144L294.404 418.34L298.913 411.216ZM291.08 403.016L298.803 399.643V399.558H298.144L290.97 402.686L291.08 403.016ZM291.899 404.886L292.046 405.216L299.769 401.855L299.622 401.525L291.899 404.886ZM284.567 399.558H284.188L282.282 406.181L282.636 406.279L284.567 399.558ZM280.351 405.668L282.062 399.558H281.683L279.997 405.521L280.351 405.668ZM313.419 402.148L312.588 399.594H312.209L313.003 402.234L313.419 402.148ZM310.767 402.943L311.121 402.845L310.144 399.607H309.765L310.767 402.943ZM283.101 430.878L283.382 431.097L288.514 424.413L288.221 424.193L283.101 430.878ZM285.007 432.344L285.3 432.564L290.42 425.867L290.139 425.647L285.007 432.344ZM273.007 423.656L278.848 429.766L279.117 429.521L273.276 423.411L273.007 423.656ZM271.198 425.256L277.04 431.366L277.296 431.122L271.467 425.012L271.198 425.256ZM303.19 414.454L303.044 414.784L310.803 418.083L310.95 417.741L303.19 414.454ZM303.985 412.572L311.744 415.859L311.891 415.529L304.131 412.242L303.985 412.572ZM264.771 425.256L264.856 424.902L260.286 423.79V424.157L264.771 425.256ZM260.298 421.59L265.357 422.873L265.455 422.519L260.286 421.297L260.298 421.59ZM265.956 432.503L265.834 432.161L260.286 434.067V434.446L265.956 432.503ZM265.076 429.863L260.298 431.452V431.831L265.186 430.205L265.076 429.863ZM265.174 490.157L262.095 498.002L262.424 498.136L265.516 490.291L265.174 490.157ZM267.422 491.037L264.331 498.882L264.673 499.016L267.752 491.171L267.422 491.037ZM343.553 448.865L346.987 450.723V450.307L343.724 448.548L343.553 448.865ZM344.861 446.421L344.69 446.727L346.987 447.949V447.533L344.861 446.421ZM347.048 463.138L343.639 466.096L343.871 466.364L347.048 463.615V463.138ZM342.294 464.544L347.048 460.438V459.961L342.062 464.263L342.294 464.544ZM346.669 473.538L346.791 473.88L347.048 473.77V473.391L346.669 473.538ZM345.789 471.301L345.912 471.631L347.048 471.191V470.8L345.789 471.301ZM347.011 484.743L343.345 483.912L343.26 484.267L346.999 485.11L347.011 484.743ZM347.011 482.299L343.883 481.591L343.81 481.945L347.011 482.666V482.299ZM347.011 510.589L343.382 509.574L343.296 509.929L346.962 510.87L347.011 510.589ZM344.005 507.338L343.907 507.692L347.048 508.352V507.986L344.005 507.338ZM347.048 521.147V520.756L344.604 521.574L344.714 521.917L347.048 521.147ZM347.048 518.605V518.226L343.834 519.289L343.944 519.631L347.048 518.605ZM297.435 446.25L289.675 442.951L289.541 443.281L297.3 446.58L297.435 446.25ZM288.6 445.505L296.359 448.792L296.494 448.462L288.734 445.175L288.6 445.505ZM339.252 525.9L338.946 525.729L337.272 528.674H337.687L339.252 525.9ZM341.341 527.122L341.036 526.939L340.034 528.699H340.449L341.341 527.122ZM321.581 525.546L324.16 528.699H324.624L321.863 525.314L321.581 525.546ZM323.451 524.018L327.276 528.699H327.74L323.732 523.811L323.451 524.018ZM314.335 528.149L314.005 528.271L314.152 528.699H314.543L314.335 528.149ZM316.266 527.452L316.718 528.674H317.097L316.608 527.306L316.266 527.452ZM304.046 524.605L303.691 524.507L302.628 528.699H303.056L304.046 524.605ZM306.025 525.106L305.109 528.699H305.5L306.392 525.191L306.025 525.106ZM278.323 523.957L277.968 523.86L276.6 528.748H276.978L278.323 523.957ZM280.632 524.617L280.29 524.519L279.068 528.699H279.447L280.632 524.617ZM265.968 524.886L267.117 528.699H267.496L266.274 524.788L265.968 524.886ZM268.278 524.202L269.634 528.699H270.001L268.62 524.092L268.278 524.202ZM282.343 498.662L278.152 505.994L278.469 506.177L282.661 498.845L282.343 498.662ZM284.787 500.031L284.469 499.847L280.29 507.179L280.596 507.363L284.787 500.031ZM318.869 459.876L313.492 453.362L313.223 453.595L318.551 460.12L318.869 459.876ZM317.011 461.403L311.61 454.853L311.329 455.085L316.669 461.611L317.011 461.403ZM303.801 457.835L306.661 465.753L307.003 465.631L304.144 457.713L303.801 457.835ZM306.074 457.016L308.934 464.935L309.264 464.812L306.404 456.894L306.074 457.016ZM336.001 515.501L328.241 512.214L328.107 512.544L335.867 515.831L336.001 515.501ZM335.06 517.725L327.3 514.426L327.166 514.768L334.926 518.055L335.06 517.725ZM335.989 493.994L333.704 502.108L334.046 502.206L336.343 494.092L335.989 493.994ZM338.653 494.751L338.311 494.654L336.013 502.756L336.368 502.853L338.653 494.751ZM326.225 495.619L323.781 487.554L323.439 487.652L325.883 495.729L326.225 495.619ZM328.535 494.923L326.091 486.857L325.736 486.955L328.18 495.033L328.535 494.923ZM304.095 473.819L299.903 481.151L300.209 481.322L304.4 473.99L304.095 473.819ZM302.311 472.804L301.993 472.621L297.814 479.953L298.119 480.124L302.311 472.804ZM288.074 479.464L282.734 472.914L282.453 473.147L287.793 479.672L288.074 479.464ZM289.932 477.937L284.604 471.411L284.323 471.643L289.651 478.169L289.932 477.937ZM273.068 475.285L275.928 483.216L276.27 483.094L273.398 475.163L273.068 475.285ZM275.329 474.466L278.188 482.397L278.53 482.275L275.671 474.344L275.329 474.466ZM333.606 480.882L333.96 480.967L336.038 472.804L335.683 472.707L333.606 480.882ZM338.372 473.391L338.017 473.305L335.94 481.468L336.294 481.554L338.372 473.391ZM324.588 480.246L316.828 476.959L316.693 477.289L324.453 480.588L324.588 480.246ZM325.529 478.035L317.72 474.747L317.586 475.077L325.345 478.364L325.529 478.035ZM299.097 521.489L296.653 513.411L296.311 513.521L298.755 521.587L299.097 521.489ZM301.406 520.792L298.962 512.715L298.608 512.825L301.052 520.89L301.406 520.792ZM319.284 514.939V514.585L310.938 515.807V516.161L319.284 514.939ZM319.626 517.322V516.967L311.28 518.189V518.544L319.626 517.322ZM317.72 508.352L319.602 500.14L319.247 500.055L317.366 508.279L317.72 508.352ZM320.066 508.89L321.948 500.678L321.594 500.593L319.712 508.804L320.066 508.89ZM296.848 496.67L296.543 496.474L292.058 503.55L292.363 503.745L296.848 496.67ZM298.889 497.953L298.583 497.758L294.074 504.882L294.38 505.077L298.889 497.953ZM298.779 486.381L298.645 486.051L290.909 489.424L291.056 489.753L298.779 486.381ZM299.744 488.593L299.598 488.263L291.875 491.635L292.021 491.965L299.744 488.593ZM284.897 484.927L284.555 484.817L282.282 492.87L282.636 492.967L284.897 484.927ZM280.29 492.381L282.575 484.267L282.233 484.169L279.936 492.283L280.29 492.381ZM313.345 488.8L310.901 480.735L310.547 480.833L312.991 488.91L313.345 488.8ZM308.274 481.468L310.718 489.534L311.072 489.436L308.628 481.371L308.274 481.468ZM296.555 460.694L289.822 465.778L290.042 466.059L296.775 460.988L296.555 460.694ZM291.496 468.026L298.217 462.943L298.009 462.662L291.276 467.733L291.496 468.026ZM285.679 461.049L283.345 452.947L282.991 453.057L285.337 461.146L285.679 461.049ZM280.681 453.717L283.015 461.916L283.37 461.819L281.06 453.692L280.681 453.717ZM272.64 453.24L272.152 461.647H272.506L272.995 453.228L272.64 453.24ZM274.547 461.794H274.913L275.402 453.375H275.036L274.547 461.794ZM288.392 511.053L288.099 510.833L282.979 517.53L283.26 517.75L288.392 511.053ZM290.298 512.519L290.017 512.299L284.885 518.996L285.178 519.216L290.298 512.519ZM272.885 510.295L278.726 516.405L278.995 516.149L273.154 510.039L272.885 510.295ZM271.198 512.018L277.04 518.128L277.296 517.884L271.467 511.774L271.198 512.018ZM332.567 465.081L332.286 464.861L326.983 471.411L327.264 471.643L332.567 465.081ZM330.417 463.346L325.113 469.896L325.394 470.128L330.685 463.566L330.417 463.346ZM331.895 450.918H331.541L330.588 459.289H330.954L331.895 450.918ZM329.146 450.601L328.205 458.984H328.559L329.5 450.613L329.146 450.601ZM310.95 504.491L303.19 501.204L303.044 501.534L310.803 504.821L310.95 504.491ZM303.985 499.31L311.744 502.597L311.891 502.267L304.131 498.98L303.985 499.31ZM264.282 452.984L264.453 452.666L260.298 450.43V450.845L264.282 452.984ZM260.298 448.096L265.418 450.845L265.589 450.527L260.286 447.656L260.298 448.096ZM263.5 460.817L263.255 460.548L260.286 463.138V463.615L263.5 460.817ZM261.923 458.996L261.679 458.715L260.298 459.937V460.413L261.923 458.996ZM267.752 470.434L260.298 473.354V473.733L267.887 470.764L267.752 470.434ZM267.007 468.527L266.885 468.185L260.286 470.739V471.13L267.007 468.527ZM264.783 486.063L264.856 485.709L260.298 484.682V485.049L264.783 486.063ZM260.286 482.556L265.296 483.692L265.382 483.338L260.286 482.189V482.556ZM264.771 512.018L264.856 511.676L260.298 510.515V510.894L264.771 512.018ZM260.286 508.352L265.345 509.648L265.443 509.293L260.286 507.998V508.352ZM265.944 519.265L265.822 518.923L260.286 520.756V521.147L265.944 519.265ZM265.186 516.98L265.064 516.637L260.286 518.226V518.605L265.186 516.98ZM334.742 446.336L335.048 446.507L337.651 441.961H337.272L334.742 446.336ZM336.832 447.558L337.138 447.729L340.437 441.986H340.021L336.832 447.558ZM327.19 445.114L324.612 441.961H324.148L326.909 445.334L327.19 445.114ZM328.779 443.819L329.06 443.586L327.728 441.961H327.264L328.779 443.819ZM317.195 449.342L314.531 442.01H314.14L316.852 449.513L317.195 449.342ZM319.113 448.645L319.455 448.523L317.085 441.961H316.706L319.113 448.645ZM301.638 445.945L301.993 446.03L303.032 441.961H302.653L301.638 445.945ZM303.972 446.544L304.327 446.629L305.549 441.961H305.17L303.972 446.544ZM276.05 445.322L277.003 441.937H276.624L275.695 445.224L276.05 445.322ZM279.508 441.937H279.129L278.017 445.871L278.372 445.981L279.508 441.937ZM268.388 446.201L268.73 446.104L267.508 441.937H267.129L268.388 446.201ZM271.04 445.407L269.989 441.937H269.622L270.685 445.517L271.04 445.407ZM343.712 535.285L343.541 535.603L346.975 537.46V537.045L343.712 535.285ZM344.848 533.171L344.677 533.489L346.975 534.711V534.308L344.848 533.171ZM347.048 550.242V549.778L343.639 552.723L343.871 552.992L347.048 550.242ZM347.048 547.065V546.589L342.062 550.902L342.294 551.171L347.048 547.065ZM346.669 560.165L346.791 560.507L347.048 560.41V560.018L346.669 560.165ZM345.789 557.929L345.912 558.271L347.048 557.819V557.428L345.789 557.929ZM343.345 570.528L343.26 570.882L346.999 571.725V571.346L343.345 570.528ZM347.011 568.878L343.883 568.169L343.81 568.524L347.011 569.257V568.878ZM297.435 532.939L289.675 529.652L289.541 529.982L297.3 533.269L297.435 532.939ZM288.6 532.194L296.359 535.493L296.494 535.151L288.734 531.864L288.6 532.194ZM313.223 540.247L318.551 546.772L318.832 546.54L313.492 540.027L313.223 540.247ZM316.975 548.067L311.61 541.554L311.329 541.774L316.669 548.3L316.975 548.067ZM306.966 552.344L304.107 544.414L303.765 544.536L306.624 552.467L306.966 552.344ZM309.227 551.526L306.368 543.595L306.038 543.717L308.897 551.648L309.227 551.526ZM304.339 560.703L304.034 560.52L299.842 567.852L300.148 568.035L304.339 560.703ZM302.249 559.481L301.932 559.31L297.752 566.642L298.058 566.825L302.249 559.481ZM288.013 566.141L282.734 559.676L282.453 559.896L287.793 566.422L288.013 566.141ZM289.871 564.613L284.543 558.1L284.262 558.32L289.59 564.845L289.871 564.613ZM276.209 569.77L273.337 561.851L273.007 561.974L275.866 569.892L276.209 569.77ZM278.469 568.951L275.61 561.033L275.268 561.155L278.127 569.074L278.469 568.951ZM335.903 559.505L335.549 559.42L333.472 567.583L333.826 567.668L335.903 559.505ZM338.237 560.092L337.883 560.006L335.806 568.181L336.16 568.267L338.237 560.092ZM324.588 567.008L316.828 563.721L316.693 564.051L324.453 567.338L324.588 567.008ZM325.529 564.784L317.72 561.436L317.586 561.766L325.345 565.065L325.529 564.784ZM284.543 571.518L284.201 572.74H284.579L284.885 571.664L284.543 571.518ZM282.563 570.955L282.221 570.858L281.695 572.691H282.074L282.563 570.955ZM310.571 567.583L312.111 572.691H312.49L310.926 567.473L310.571 567.583ZM308.616 568.169L308.274 568.267L309.594 572.691H309.972L308.616 568.169ZM296.775 547.847L296.555 547.566L289.822 552.638L290.042 552.931L296.775 547.847ZM298.217 549.778L298.009 549.485L291.276 554.556L291.496 554.849L298.217 549.778ZM285.337 547.982L285.679 547.872L283.345 539.782L282.991 539.88L285.337 547.982ZM283.37 548.544L281.06 540.393L280.718 540.491L283.052 548.581L283.37 548.544ZM272.506 548.544L272.995 540.137H272.64L272.152 548.556L272.506 548.544ZM274.95 548.691L275.439 540.271H275.072L274.583 548.678L274.95 548.691ZM332.604 551.843L332.323 551.611L327.019 558.161L327.3 558.393L332.604 551.843ZM330.453 550.096L325.15 556.646L325.431 556.878L330.722 550.328L330.453 550.096ZM331.932 537.68H331.577L330.624 546.051H330.991L331.932 537.68ZM329.182 537.375L328.241 545.746H328.596L329.537 537.363L329.182 537.375ZM264.319 539.746L264.49 539.428L260.335 537.192V537.607L264.319 539.746ZM265.626 537.302L260.286 534.356V534.76L265.406 537.521L265.626 537.302ZM263.5 547.456L263.255 547.175L260.286 549.766V550.242L263.5 547.456ZM261.923 545.623L261.679 545.354L260.298 546.576V547.053L261.923 545.623ZM267.752 557.061L260.298 559.982V560.373L267.887 557.391L267.752 557.061ZM260.298 557.782L267.007 555.155L266.885 554.825L260.298 557.391V557.782ZM260.298 571.31V571.689L264.343 572.593H264.795L264.856 572.348L260.298 571.31ZM265.308 570.344L265.394 569.99L260.298 568.841V569.22L265.308 570.344ZM335.06 533.183L337.663 528.638H337.272L334.828 533L335.06 533.183ZM340.034 528.638L336.844 534.198L337.15 534.381L340.449 528.638H340.034ZM326.922 532.01L327.203 531.778L324.624 528.638H324.16L326.922 532.01ZM328.791 530.483L329.072 530.251L327.74 528.638H327.276L328.791 530.483ZM317.207 536.006L314.543 528.674H314.152L316.865 536.165L317.207 536.006ZM319.125 535.322L319.467 535.2L317.097 528.638H316.718L319.125 535.322ZM302.017 532.707L303.056 528.638H302.677L301.663 532.621L302.017 532.707ZM303.997 533.208L304.351 533.293L305.573 528.638H305.194L303.997 533.208ZM276.074 531.986L277.027 528.613H276.649L275.72 531.888L276.074 531.986ZM279.154 528.613L278.042 532.548L278.396 532.646L279.532 528.613H279.154ZM268.412 532.878L268.754 532.768L267.532 528.613H267.154L268.412 532.878ZM270.71 532.181L271.064 532.084L270.013 528.613H269.646L270.71 532.181ZM256.62 423.216L260.286 424.157V423.79L256.681 422.873L256.62 423.216ZM257.304 420.539L257.219 420.882L260.323 421.676V421.297L257.304 420.539ZM260.286 434.446V434.067L257.842 434.886L257.964 435.228L260.286 434.446ZM257.084 432.588L257.194 432.93L260.298 431.904V431.525L257.084 432.588ZM250.51 441.973H250.925L252.514 439.212L252.196 439.028L250.51 441.973ZM253.284 441.973H253.699L254.604 440.409L254.286 440.226L253.284 441.973ZM235.125 438.601L234.844 438.833L237.422 441.973H237.887L235.125 438.601ZM236.714 437.305L240.526 441.973H241.003L236.995 437.085L236.714 437.305ZM227.597 441.423L227.255 441.546L227.414 441.973H227.793L227.597 441.423ZM229.528 440.727L229.968 441.949H230.359L229.87 440.58L229.528 440.727ZM216.294 441.949L217.333 437.855L216.991 437.77L215.927 441.949H216.294ZM219.325 438.356L218.408 441.949H218.787L219.667 438.454L219.325 438.356ZM190.278 441.949L191.61 437.22L191.267 437.122L189.899 441.949H190.278ZM193.944 437.88L193.589 437.782L192.367 441.949H192.746L193.944 437.88ZM241.333 425.806L249.092 429.093L249.239 428.763L241.479 425.476L241.333 425.806ZM240.392 428.018L248.188 431.366L248.335 431.036L240.575 427.7L240.392 428.018ZM246.93 415.358L247.284 415.456L249.569 407.342L249.227 407.244L246.93 415.358ZM249.251 416.018L249.593 416.116L251.891 408.002L251.549 407.904L249.251 416.018ZM236.726 400.939L239.17 409.004L239.512 408.906L237.068 400.816L236.726 400.939ZM239.035 400.242L241.479 408.307L241.822 408.209L239.378 400.144L239.035 400.242ZM209.634 426.82L212.078 434.898L212.42 434.788L209.976 426.723L209.634 426.82ZM214.718 434.152L212.274 426.087L211.931 426.185L214.375 434.262L214.718 434.152ZM224.249 429.484L232.595 428.262V427.908L224.249 429.13V429.484ZM224.53 431.513V431.867L232.877 430.645V430.291L224.53 431.513ZM232.913 413.464L232.559 413.378L230.689 421.59L231.031 421.676L232.913 413.464ZM234.917 413.916L233.035 422.128L233.378 422.214L235.259 414.002L234.917 413.916ZM205.296 416.849L205.601 417.044L210.111 409.92L209.805 409.737L205.296 416.849ZM207.337 418.144L207.642 418.34L212.151 411.216L211.846 411.02L207.337 418.144ZM226.62 402.099L225.838 399.497H225.471L226.278 402.148L226.62 402.099ZM223.968 402.894L224.31 402.796L223.443 399.888L223.088 399.961L223.968 402.894ZM196.302 430.829L196.583 431.049L201.703 424.364L201.422 424.144L196.302 430.829ZM203.634 425.818L203.341 425.598L198.221 432.295L198.514 432.515L203.634 425.818ZM216.465 414.466L216.331 414.796L224.09 418.095L224.225 417.753L216.465 414.466ZM217.272 412.584L225.031 415.871L225.166 415.541L217.406 412.254L217.272 412.584ZM178.461 490.242L175.369 498.088L175.711 498.222L178.791 490.377L178.461 490.242ZM180.697 491.122L177.618 498.967L177.948 499.102L181.039 491.257L180.697 491.122ZM256.828 448.951L260.274 450.808V450.393L256.999 448.633L256.828 448.951ZM258.147 446.507L257.976 446.812L260.274 448.034V447.619L258.147 446.507ZM260.286 463.138L256.864 466.096L257.109 466.364L260.286 463.615V463.138ZM255.532 464.544L260.286 460.438V459.961L255.3 464.263L255.532 464.544ZM259.895 473.538L260.029 473.88L260.286 473.77V473.391L259.895 473.538ZM260.286 470.8L259.064 471.301L259.198 471.631L260.335 471.191L260.286 470.8ZM260.286 484.719L256.62 483.888L256.547 484.242L260.286 485.085V484.719ZM257.158 481.542L257.072 481.896L260.286 482.617V482.25L257.158 481.542ZM260.286 510.479L256.681 509.562L256.583 509.916L260.249 510.857L260.286 510.479ZM257.268 507.228L257.182 507.582L260.286 508.352V507.986L257.268 507.228ZM260.286 521.147V520.756L257.842 521.574L257.964 521.917L260.286 521.147ZM260.286 518.605V518.226L257.072 519.289L257.182 519.631L260.286 518.605ZM202.852 443.281L210.612 446.58L210.758 446.25L202.999 442.951L202.852 443.281ZM201.911 445.505L209.671 448.792L209.817 448.462L202.058 445.175L201.911 445.505ZM252.575 525.9L252.257 525.729L250.51 528.674H250.925L252.575 525.9ZM254.665 527.122L254.347 526.939L253.345 528.699H253.76L254.665 527.122ZM234.905 525.546L237.483 528.699H237.948L235.186 525.314L234.905 525.546ZM236.775 524.018L240.587 528.699H241.064L237.056 523.811L236.775 524.018ZM227.659 528.149L227.316 528.271L227.475 528.699H227.854L227.659 528.149ZM229.589 527.452L230.029 528.674H230.42L229.931 527.306L229.589 527.452ZM215.988 528.674H216.355L217.394 524.58L217.052 524.483L215.988 528.674ZM219.386 525.082L218.469 528.674H218.848L219.728 525.167L219.386 525.082ZM179.634 524.764L179.292 524.862L179.964 527.086L180.257 526.817L179.634 524.764ZM181.944 524.067L181.589 524.177L181.907 525.228L182.2 524.947L181.944 524.067ZM195.984 498.809L195.667 498.637L191.475 505.969L191.793 506.153L195.984 498.809ZM193.882 507.363L198.074 500.031L197.756 499.847L193.565 507.179L193.882 507.363ZM232.18 459.851L226.803 453.362L226.522 453.595L231.862 460.12L232.18 459.851ZM230.31 461.379L224.97 454.853L224.701 455.085L230.029 461.611L230.31 461.379ZM217.113 457.81L219.972 465.729L220.314 465.607L217.455 457.688L217.113 457.81ZM219.373 456.992L222.233 464.91L222.575 464.788L219.716 456.869L219.373 456.992ZM249.288 515.477L241.528 512.189L241.382 512.519L249.141 515.807L249.288 515.477ZM248.347 517.701L240.587 514.401L240.441 514.743L248.2 518.031L248.347 517.701ZM249.276 493.969L246.978 502.083L247.333 502.181L249.618 494.067L249.276 493.969ZM251.94 494.727L251.598 494.629L249.288 502.731L249.63 502.829L251.94 494.727ZM239.512 495.595L237.068 487.529L236.726 487.627L239.17 495.705L239.512 495.595ZM241.822 494.898L239.378 486.833L239.035 486.931L241.479 495.008L241.822 494.898ZM217.382 473.794L213.19 481.126L213.508 481.297L217.699 473.965L217.382 473.794ZM215.292 472.572L211.1 479.904L211.418 480.075L215.61 472.743L215.292 472.572ZM195.74 473.122L201.08 479.648L201.349 479.415L196.045 472.914L195.74 473.122ZM197.597 471.595L202.938 478.12L203.219 477.888L197.964 471.387L197.597 471.595ZM186.343 475.261L189.202 483.191L189.544 483.069L186.685 475.138L186.343 475.261ZM188.616 474.442L191.475 482.373L191.805 482.25L188.946 474.32L188.616 474.442ZM246.844 480.882L247.198 480.967L249.264 472.804L248.921 472.707L246.844 480.882ZM251.598 473.391L251.255 473.305L249.178 481.468L249.532 481.554L251.598 473.391ZM237.899 480.246L230.139 476.959L229.993 477.289L237.752 480.588L237.899 480.246ZM238.84 478.035L231.08 474.747L230.934 475.077L238.693 478.364L238.84 478.035ZM211.956 512.825L214.4 520.89L214.742 520.792L212.298 512.715L211.956 512.825ZM232.608 514.939V514.585L224.261 515.807V516.161L232.608 514.939ZM232.938 517.322V516.967L224.591 518.189V518.544L232.938 517.322ZM231.031 508.352L232.913 500.14L232.559 500.055L230.689 508.279L231.031 508.352ZM233.378 508.89L235.259 500.678L234.917 500.593L233.035 508.804L233.378 508.89ZM209.842 496.474L206.665 501.497L206.799 501.961L210.184 496.621L209.842 496.474ZM211.883 497.758L207.581 504.552L207.716 505.004L212.188 497.953L211.883 497.758ZM204.208 489.424L204.355 489.753L212.078 486.381L211.931 486.051L204.208 489.424ZM213.043 488.593L212.897 488.263L205.174 491.635L205.308 491.965L213.043 488.593ZM198.196 484.927L197.842 484.817L195.52 492.87L195.862 492.967L198.196 484.927ZM193.577 492.381L195.874 484.267L195.532 484.169L193.235 492.283L193.577 492.381ZM226.657 488.8L224.213 480.735L223.87 480.833L226.314 488.91L226.657 488.8ZM221.573 481.468L224.017 489.534L224.359 489.436L221.915 481.371L221.573 481.468ZM209.854 460.694L203.133 465.778L203.353 466.059L210.074 460.988L209.854 460.694ZM204.575 467.696L204.795 467.99L211.528 462.906L211.308 462.625L204.575 467.696ZM196.302 453.032L198.636 461.122L198.99 461.024L196.644 452.922L196.302 453.032ZM193.992 453.692L196.326 461.794L196.669 461.696L194.298 453.692H193.992ZM185.438 461.623H185.805L186.294 453.203H185.927L185.438 461.623ZM188.689 453.375H188.335L187.846 461.794H188.2L188.689 453.375ZM191.646 515.318L186.489 509.953L186.233 510.198L191.402 515.574L191.646 515.318ZM184.754 511.652L184.522 512.018L189.752 517.456L189.997 517.2L184.754 511.652ZM245.854 464.971L245.573 464.751L240.282 471.301L240.563 471.533L245.854 464.971ZM243.703 463.236L238.4 469.786L238.681 470.018L243.984 463.456L243.703 463.236ZM245.206 450.918H244.84L243.899 459.289H244.253L245.206 450.918ZM242.445 450.601L241.504 458.984H241.87L242.811 450.613L242.445 450.601ZM224.249 504.491L216.489 501.204L216.355 501.534L224.115 504.821L224.249 504.491ZM225.19 502.267L217.43 498.98L217.296 499.31L225.056 502.597L225.19 502.267ZM176.799 460.829L176.567 460.56L176.286 460.804L175.675 461.806L176.799 460.829ZM181.064 470.446L173.61 473.366V473.745L181.198 470.776L181.064 470.446ZM180.318 468.54L180.184 468.197L173.61 470.776V471.167L180.318 468.54ZM178.082 486.075L178.168 485.721L173.61 484.694V485.061L178.082 486.075ZM178.62 483.729L178.693 483.375L173.61 482.226V482.593L178.62 483.729ZM178.07 512.018L178.168 511.676L173.61 510.515V510.894L178.07 512.018ZM173.61 508.352L178.669 509.648L178.754 509.293L173.61 507.986V508.352ZM179.255 519.265L179.145 518.923L173.61 520.743V521.134L179.255 519.265ZM178.498 516.98L178.388 516.637L173.61 518.214V518.593L178.498 516.98ZM248.066 446.348L248.384 446.519L250.987 441.973H250.51L248.066 446.348ZM250.156 447.57L250.473 447.741L253.76 441.998H253.345L250.156 447.57ZM240.526 445.126L237.948 441.973H237.483L240.245 445.346L240.526 445.126ZM242.103 443.831L242.384 443.599L241.064 441.973H240.587L242.103 443.831ZM230.518 449.354L227.854 442.022H227.475L230.176 449.525L230.518 449.354ZM232.449 448.658L232.791 448.535L230.42 441.973H230.029L232.449 448.658ZM214.974 445.957L215.329 446.043L216.355 441.973H215.988L214.974 445.957ZM217.308 446.556L217.65 446.641L218.872 441.973H218.494L217.308 446.556ZM189.031 445.26L189.386 445.358L190.339 441.973H189.96L189.031 445.26ZM192.844 441.973H192.465L191.353 445.908L191.695 446.018L192.844 441.973ZM256.864 535.64L260.31 537.497V537.082L257.035 535.322L256.864 535.64ZM258.184 533.196L258.013 533.513L260.31 534.735V534.332L258.184 533.196ZM260.286 550.242V549.766L256.864 552.723L257.109 552.992L260.286 550.242ZM260.286 547.065V546.589L255.3 550.902L255.532 551.171L260.286 547.065ZM259.895 560.165L260.029 560.507L260.286 560.41V560.018L259.895 560.165ZM259.015 557.929L259.15 558.271L260.286 557.819V557.428L259.015 557.929ZM256.571 570.528L256.498 570.882L260.237 571.725V571.346L256.571 570.528ZM260.237 568.878L257.109 568.169L257.023 568.524L260.237 569.257V568.878ZM226.522 540.247L231.862 546.772L232.143 546.54L226.803 540.027L226.522 540.247ZM230.274 548.067L224.934 541.554L224.665 541.774L229.993 548.3L230.274 548.067ZM220.278 552.344L217.834 545.526L217.663 546.124L219.948 552.467L220.278 552.344ZM222.538 551.526L219.679 543.595L219.337 543.717L222.196 551.648L222.538 551.526ZM217.65 560.703L217.333 560.52L213.141 567.852L213.459 568.035L217.65 560.703ZM215.206 559.334L212.628 563.953L212.225 565.383L215.61 559.469L215.206 559.334ZM249.19 559.53L248.848 559.444L246.771 567.607L247.125 567.693L249.19 559.53ZM251.524 560.116L251.182 560.031L249.105 568.206L249.459 568.291L251.524 560.116ZM237.899 567.008L230.139 563.721L229.993 564.051L237.752 567.338L237.899 567.008ZM238.84 564.784L231.08 561.497L230.934 561.827L238.693 565.126L238.84 564.784ZM223.883 567.583L225.422 572.691H225.801L224.225 567.473L223.883 567.583ZM221.915 568.169L221.573 568.267L222.905 572.691H223.284L221.915 568.169ZM245.866 551.794L245.585 551.562L240.294 558.112L240.575 558.344L245.866 551.794ZM243.716 550.047L238.412 556.597L238.693 556.829L243.997 550.279L243.716 550.047ZM245.206 537.631H244.84L243.899 546.002H244.253L245.206 537.631ZM242.445 537.326L241.504 545.697H241.87L242.811 537.314L242.445 537.326ZM248.371 533.281L250.974 528.735H250.51L248.066 533.098L248.371 533.281ZM253.333 528.735L250.143 534.295L250.461 534.479L253.748 528.735H253.333ZM240.233 532.108L240.514 531.876L237.936 528.735H237.471L240.233 532.108ZM242.09 530.581L242.371 530.348L241.052 528.735H240.575L242.09 530.581ZM230.506 536.104L227.842 528.772H227.463L230.164 536.263L230.506 536.104ZM232.437 535.42L232.779 535.297L230.408 528.735H230.017L232.437 535.42ZM215.451 530.764L215.659 531.436L216.343 528.735H215.976L215.451 530.764ZM217.296 533.306L217.638 533.391L218.86 528.735H218.481L217.296 533.306ZM173.218 473.538L173.353 473.88L173.61 473.77V473.391L173.218 473.538ZM173.61 470.8L172.388 471.301L172.522 471.631L173.658 471.191L173.61 470.8ZM169.858 484.242L173.61 485.085V484.719L169.944 483.888L169.858 484.242ZM170.396 481.896L173.61 482.617V482.25L170.469 481.468L170.396 481.896ZM173.61 510.54L169.944 509.623L169.858 509.978L173.524 510.919L173.61 510.54ZM170.591 507.289L170.506 507.644L173.61 508.426V508.059L170.591 507.289ZM173.61 521.208V520.817L171.166 521.635L171.275 521.978L173.61 521.208ZM173.61 518.666V518.287L170.383 519.35L170.493 519.692L173.61 518.666ZM165.862 525.998L165.557 525.827L163.87 528.772H164.286L165.862 525.998ZM167.952 527.22L167.646 527.037L166.644 528.796H167.06L167.952 527.22ZM148.204 525.644L150.77 528.796H151.247L148.485 525.411L148.204 525.644ZM150.062 524.116L153.886 528.796H154.351L150.343 523.908L150.062 524.116ZM143.218 527.428L142.876 527.55L143.328 528.772H143.707L143.218 527.428ZM137.964 455.208L139.186 456.772L137.964 455.146V455.208ZM130.375 457.933L133.247 465.851L133.577 465.729L130.754 457.688L130.375 457.933ZM132.648 457.114L135.508 465.032L135.85 464.91L132.99 456.992L132.648 457.114ZM162.526 515.477L154.766 512.189L154.632 512.519L162.392 515.807L162.526 515.477ZM161.585 517.701L153.838 514.401L153.691 514.743L161.451 518.031L161.585 517.701ZM162.526 493.969L160.229 502.083L160.571 502.181L162.868 494.067L162.526 493.969ZM165.19 494.727L164.836 494.629L162.55 502.731L162.893 502.829L165.19 494.727ZM152.762 495.595L150.318 487.529L149.976 487.627L152.42 495.705L152.762 495.595ZM155.06 494.898L152.616 486.833L152.273 486.931L154.717 495.008L155.06 494.898ZM130.962 473.977L130.656 473.794L126.465 481.126L126.782 481.297L130.962 473.977ZM128.872 472.755L128.567 472.572L124.375 479.904L124.693 480.075L128.872 472.755ZM151.198 480.246L143.438 476.959L143.304 477.289L151.064 480.588L151.198 480.246ZM152.139 478.035L144.379 474.747L144.245 475.077L152.005 478.364L152.139 478.035ZM137.548 516.112L145.895 514.89V514.536L137.548 515.758V516.112ZM137.89 518.495L146.237 517.273V516.919L137.89 518.141V518.495ZM144 508.23L144.355 508.303L146.237 500.092L145.882 500.006L144 508.23ZM148.229 500.544L146.347 508.756L146.701 508.841L148.583 500.629L148.229 500.544ZM125.255 486.002L122.041 487.407L122.163 487.749L125.402 486.332L125.255 486.002ZM126.208 488.214L122.823 489.692L122.945 490.035L126.355 488.544L126.208 488.214ZM137.206 480.882L139.65 488.959L140.004 488.849L137.56 480.784L137.206 480.882ZM134.897 481.578L137.341 489.644L137.695 489.546L135.251 481.481L134.897 481.578ZM116.444 465.949L116.664 466.23L123.398 461.159L123.178 460.865L116.444 465.949ZM124.852 463.077L124.632 462.796L117.899 467.867L118.118 468.161L124.852 463.077ZM137.573 504.515L129.813 501.228L129.666 501.558L137.426 504.845L137.573 504.515ZM130.607 499.334L138.367 502.621L138.514 502.291L130.754 498.943L130.607 499.334ZM170.347 535.383L170.176 535.701L170.481 535.456L170.347 535.383ZM171.483 533.269L171.312 533.587L172.204 534.063L172.497 533.807L171.483 533.269ZM157.638 542.092H158.005L158.506 537.57H158.151L157.638 542.092ZM155.194 541.676L155.548 541.786L156.049 537.302H155.695L155.194 541.676ZM164.225 528.674H163.809L161.365 533.037L161.671 533.22L164.225 528.674ZM166.998 528.674H166.583L163.394 534.234L163.711 534.418L166.998 528.674ZM153.483 532.047L153.752 531.815L151.186 528.674H150.709L153.483 532.047ZM155.341 530.519L155.622 530.287L154.29 528.674H153.825L155.341 530.519ZM143.267 528.674L145.015 533.562L145.687 534.344L143.646 528.723L143.267 528.674Z" fill="white"/>
<path d="M244.595 399.594C244.595 399.594 224.762 396.833 215.585 402.759C206.408 408.686 161.133 486.087 161.133 486.087L136.118 452.421L114.428 462.161C114.428 462.161 124.595 501.509 136.424 521.086C148.253 540.662 154.998 542.642 159.055 541.994C171.129 540.075 206.102 499.615 206.102 499.615L218.811 541.896L210.184 572.63H370.877L351.386 540.124C351.386 540.124 376.816 422.812 370.339 410.385C363.863 397.957 326.127 399.594 314.262 399.594H280.29C275.141 400.615 269.909 401.155 264.661 401.207C257.949 401.012 251.252 400.474 244.595 399.594Z" stroke="#263238" stroke-width="0.99"/>
<path d="M206.115 499.615C201.462 490.32 199.656 479.859 200.921 469.541C203.28 453.081 213.471 435.057 213.471 435.057C213.471 435.057 193.137 464.385 193.137 474.161C193.137 483.937 199.186 498.234 199.186 498.234L193.907 513.301L206.115 499.615Z" fill="#263238" stroke="#263238" stroke-width="0.99" stroke-linecap="round" stroke-linejoin="round"/>
<path d="M261.422 383.378L261.96 400.633L247.406 401.171C247.406 401.171 244.4 464.482 257.353 475.81C270.306 487.138 309.41 399.594 309.41 399.594L295.968 396.894L291.655 361.847L261.422 383.378Z" fill="white" stroke="#263238" stroke-width="0.99" stroke-linecap="round" stroke-linejoin="round"/>
<path d="M293.207 368.69L262.082 398.018V387.643L293.207 368.69Z" fill="#263238" stroke="#263238" stroke-width="0.99" stroke-linecap="round" stroke-linejoin="round"/>
<path d="M257.353 475.81C257.353 475.81 258.917 465.619 266.75 452.299L257.353 475.81Z" fill="white"/>
<path d="M257.353 475.81C257.353 475.81 258.917 465.619 266.75 452.299" stroke="#263238" stroke-width="0.99" stroke-linecap="round" stroke-linejoin="round"/>
<path d="M255.154 286.083L219.716 322.926C222.5 330.767 223.849 339.046 223.699 347.366C223.284 360.417 235.149 379.614 244.852 388.535C254.555 397.456 274.351 383.745 281.744 378.906C286.682 375.56 291.286 371.746 295.492 367.517C298.188 367.4 300.811 366.601 303.115 365.194C305.419 363.788 307.328 361.821 308.665 359.476C308.665 359.476 257.17 304.449 255.154 286.083Z" fill="white" stroke="#263238" stroke-width="0.99" stroke-linecap="round" stroke-linejoin="round"/>
<path d="M245.549 323.916C246.774 326.412 247.567 329.097 247.895 331.859C248.005 335.268 242.029 351.239 242.885 352.303C243.74 353.366 246.416 356.885 248.506 356.433" stroke="#263238" stroke-width="0.99" stroke-linecap="round" stroke-linejoin="round"/>
<path d="M260.286 341.378C265.279 339.507 270.769 339.443 275.805 341.195" stroke="#263238" stroke-width="0.49" stroke-linecap="round" stroke-linejoin="round"/>
<path d="M232.705 342.649C235.375 341.9 238.133 341.513 240.905 341.5" stroke="#263238" stroke-width="0.49" stroke-linecap="round" stroke-linejoin="round"/>
<path d="M241.076 314.885C239.707 314.784 238.333 315 237.061 315.517C235.789 316.034 234.654 316.839 233.744 317.867C230.677 321.399 229.186 324.478 228.416 321.985C227.646 319.492 231.068 314.91 232.278 313.981C233.488 313.052 239.158 309.411 241.076 314.885Z" fill="#263238"/>
<path d="M256.241 312.832C259.836 312.819 263.383 313.656 266.592 315.276C271.272 317.843 269.036 312.637 265.748 311.146C262.461 309.655 256.767 309.802 256.241 312.832Z" fill="#263238"/>
<path d="M310.498 374.115C310.718 377.781 308.824 380.836 306.294 380.983C303.765 381.13 301.529 378.295 301.309 374.653C301.089 371.011 302.616 361.614 305.146 361.468C307.675 361.321 310.29 370.461 310.498 374.115Z" fill="#92E3A9" stroke="#263238" stroke-width="0.99" stroke-linecap="round" stroke-linejoin="round"/>
<path d="M239.622 336.05C239.793 338.494 238.864 340.474 237.557 340.559C236.249 340.645 235.113 338.775 234.905 336.38C234.697 333.985 235.663 331.956 236.97 331.871C238.278 331.785 239.512 333.704 239.622 336.05Z" fill="#263238"/>
<path d="M265.993 335.109C266.164 337.553 265.235 339.521 263.94 339.619C262.644 339.716 261.496 337.834 261.276 335.427C261.056 333.02 262.046 331.016 263.341 330.93C264.636 330.845 265.834 332.714 265.993 335.109Z" fill="#263238"/>
<path d="M248.335 363.386C248.335 363.386 254.555 365.378 262.999 358.156" stroke="#263238" stroke-width="0.99" stroke-linecap="round" stroke-linejoin="round"/>
<path d="M136.119 452.446L124.742 437.207C124.216 433.15 123.202 424.768 123.031 419.11C122.799 411.411 123.178 406.706 118.803 399.875C114.428 393.044 102.22 382.254 101.072 379.749C99.9229 377.244 96.599 384.307 98.6887 388.89C100.778 393.472 102.685 394.877 102.685 394.877C102.685 394.877 80.212 383.708 79.4666 385.529C78.7212 387.35 89.9269 419.55 95.0593 428.042C97.1978 431.586 103.125 436.328 105.984 440.434C107.383 442.46 108.582 444.616 109.564 446.873C112.228 458.201 115.332 470.666 116.896 471.118C120.452 472.157 135.544 472.401 136.119 452.446Z" fill="white" stroke="#263238" stroke-width="0.99" stroke-miterlimit="10"/>
<path d="M104.175 417.436C103.97 417.491 103.756 417.505 103.545 417.477C103.334 417.449 103.131 417.38 102.947 417.273C102.763 417.166 102.602 417.024 102.473 416.855C102.344 416.686 102.25 416.493 102.196 416.287L84.3179 350.189C84.2223 349.789 84.2829 349.368 84.4873 349.012C84.6917 348.655 85.0245 348.39 85.4177 348.27C85.8308 348.162 86.2702 348.22 86.6406 348.433C87.0111 348.645 87.283 348.995 87.3974 349.407L105.324 415.48C105.425 415.892 105.362 416.326 105.147 416.691C104.933 417.057 104.584 417.324 104.175 417.436Z" fill="#263238" stroke="#263238" stroke-width="0.99" stroke-miterlimit="10"/>
<path d="M91.2834 375.386C91.2834 375.386 74.0287 384.502 75.0919 386.286C76.155 388.071 79.3078 394.437 80.7497 394.291C82.1917 394.144 92.6642 385.59 93.4219 384.515C94.1795 383.439 91.2834 375.386 91.2834 375.386Z" fill="#CFCFCF" stroke="#263238" stroke-width="0.99" stroke-miterlimit="10"/>
<path d="M94.3627 386.58C94.3627 386.58 80.0286 397.15 80.493 398.69C80.9573 400.23 87.9838 418.45 89.2058 419.928C90.4278 421.407 101.646 416.262 101.646 416.262L94.3627 386.58Z" fill="#CFCFCF" stroke="#263238" stroke-width="0.99" stroke-miterlimit="10"/>
<path d="M96.5379 396.405C96.5379 396.405 82.8148 407.183 83.7191 407.525" stroke="#263238" stroke-width="0.99" stroke-miterlimit="10"/>
<path d="M99.1287 408.087L87.593 414.845" stroke="#263238" stroke-width="0.99" stroke-miterlimit="10"/>
<path d="M102.648 394.877L108.978 401.061C108.978 401.061 100.571 419.012 108.624 428.922" stroke="#263238" stroke-width="0.99" stroke-miterlimit="10"/>
<path d="M352.413 403.419C352.413 403.419 367.773 401.415 374.409 414.112C381.044 426.808 422.506 539.024 423.179 549.754C423.851 560.483 395.781 563.11 386.433 558.442C377.085 553.774 350.995 498.32 348.355 490.963" fill="#31A74F"/>
<path d="M359.16 481.328L356.866 489.441L357.219 489.541L359.513 481.428L359.16 481.328Z" fill="white"/>
<path d="M362.604 458.299L360.27 450.197L359.916 450.307L362.262 458.397L362.604 458.299Z" fill="white"/>
<path d="M361.81 482.03L361.467 481.933L359.17 490.047L359.512 490.144L361.81 482.03Z" fill="white"/>
<path d="M364.999 476.617L359.659 470.091L359.378 470.323L364.718 476.837L364.999 476.617Z" fill="white"/>
<path d="M376.525 485.36L368.796 488.731L368.943 489.067L376.671 485.696L376.525 485.36Z" fill="white"/>
<path d="M375.801 495.081L375.496 494.886L370.987 502.01L371.292 502.206L375.801 495.081Z" fill="white"/>
<path d="M357.606 450.967L359.94 459.069L360.294 458.959L357.948 450.869L357.606 450.967Z" fill="white"/>
<path d="M368.946 500.715L369.252 500.91L373.761 493.798L373.455 493.603L368.946 500.715Z" fill="white"/>
<path d="M366.857 475.089L361.529 468.564L361.248 468.796L366.575 475.309L366.857 475.089Z" fill="white"/>
<path d="M374.926 459.929L368.186 464.995L368.406 465.288L375.146 460.222L374.926 459.929Z" fill="white"/>
<path d="M373.248 423.998L375.679 432.075L376.021 431.965L373.602 423.9L373.248 423.998Z" fill="white"/>
<path d="M373.7 458.275L373.48 457.981L366.747 463.053L366.967 463.346L373.7 458.275Z" fill="white"/>
<path d="M369.252 414.258L371.781 410.262C371.696 410.176 371.622 410.079 371.537 409.981L368.946 414.062L369.252 414.258Z" fill="white"/>
<path d="M361.859 429.472L362.152 429.692L367.272 422.995L366.991 422.775L361.859 429.472Z" fill="white"/>
<path d="M366.453 440.458L374.213 443.745L374.36 443.415L366.6 440.128L366.453 440.458Z" fill="white"/>
<path d="M375.557 423.301L377.989 431.378L378.331 431.268L375.912 423.203L375.557 423.301Z" fill="white"/>
<path d="M375.044 477.264L379.235 469.945L378.918 469.773L374.739 477.081L375.044 477.264Z" fill="white"/>
<path d="M365.669 442.375L365.531 442.702L373.293 445.995L373.431 445.669L365.669 442.375Z" fill="white"/>
<path d="M375.564 483.164L367.835 486.534L367.982 486.87L375.711 483.5L375.564 483.164Z" fill="white"/>
<path d="M394.706 558.613L394.572 558.943L398.47 560.605H399.423L394.706 558.613Z" fill="white"/>
<path d="M396.392 532.401L394.022 525.839L393.533 524.482L393.191 524.605L393.643 525.839L396.05 532.523L396.392 532.401Z" fill="white"/>
<path d="M388.278 538.951L393.618 545.476L393.887 545.244L388.559 538.719L388.278 538.951Z" fill="white"/>
<path d="M394.119 533.22L391.468 525.839L391.26 525.301L390.93 525.411L391.077 525.839L393.789 533.342L394.119 533.22Z" fill="white"/>
<path d="M396.49 514.145L388.144 515.318L388.193 515.672L396.539 514.499L396.49 514.145Z" fill="white"/>
<path d="M420.735 550.169L422.995 548.214L422.922 547.811L420.478 549.9L420.735 550.169Z" fill="white"/>
<path d="M359.952 428.006L360.233 428.226L365.366 421.529L365.072 421.309L359.952 428.006Z" fill="white"/>
<path d="M350.333 472.335L349.988 472.459L352.851 480.39L353.196 480.265L350.333 472.335Z" fill="white"/>
<path d="M419.146 548.348L422.372 545.562C422.332 545.433 422.3 545.303 422.274 545.171L418.914 548.079L419.146 548.348Z" fill="white"/>
<path d="M395.757 543.717L390.417 537.204L390.136 537.424L395.476 543.949L395.757 543.717Z" fill="white"/>
<path d="M351.984 450.666L351.494 459.084L351.86 459.105L352.35 450.688L351.984 450.666Z" fill="white"/>
<path d="M387.885 477.846L387.534 477.952L389.962 486.026L390.313 485.921L387.885 477.846Z" fill="white"/>
<path d="M383.297 454.022L382.963 454.143L385.825 462.074L386.158 461.954L383.297 454.022Z" fill="white"/>
<path d="M382.071 439.15L380.91 443.733L381.264 443.818L382.449 439.15L383.341 435.643L382.987 435.558L382.071 439.15Z" fill="white"/>
<path d="M379.59 439.15L378.575 443.134L378.93 443.22L379.956 439.15L381.007 435.057L380.653 434.971L379.59 439.15Z" fill="white"/>
<path d="M385.187 478.694L387.618 486.76L387.96 486.662L385.541 478.584L385.187 478.694Z" fill="white"/>
<path d="M381.012 454.875L380.679 454.996L383.542 462.926L383.875 462.806L381.012 454.875Z" fill="white"/>
<path d="M352.601 471.482L352.257 471.606L355.118 479.537L355.463 479.413L352.601 471.482Z" fill="white"/>
<path d="M371.292 415.48L373.345 412.242L373.125 411.9L370.987 415.297L371.292 415.48Z" fill="white"/>
<path d="M380.91 496.45L388.669 499.737L388.804 499.407L381.044 496.12L380.91 496.45Z" fill="white"/>
<path d="M359.586 409.297L359.268 409.114L355.076 416.421L355.394 416.605L359.586 409.297Z" fill="white"/>
<path d="M416.702 527.049L416.543 526.597L413.794 531.411L414.099 531.582L416.702 527.049Z" fill="white"/>
<path d="M408.82 534.748L408.466 534.711L407.512 543.082L407.879 543.118L408.82 534.748Z" fill="white"/>
<path d="M404.204 511.619L404.066 511.945L411.828 515.238L411.966 514.912L404.204 511.619Z" fill="white"/>
<path d="M414.588 525.839L415.651 523.994C415.651 523.835 415.553 523.688 415.492 523.529L414.172 525.839L411.667 530.214L411.985 530.385L414.588 525.839Z" fill="white"/>
<path d="M409.492 548.91L409.211 548.678L403.908 555.228L404.189 555.46L409.492 548.91Z" fill="white"/>
<path d="M411.582 512.104L405.13 509.366L404.995 509.696L411.741 512.556L411.582 512.104Z" fill="white"/>
<path d="M407.61 547.395L407.329 547.163L402.038 553.713L402.319 553.945L407.61 547.395Z" fill="white"/>
<path d="M398.885 497.806L398.531 497.721L396.649 505.933L397.003 506.018L398.885 497.806Z" fill="white"/>
<path d="M403.847 529.224L404.128 528.992L401.549 525.839L398.787 522.466L398.506 522.698L401.085 525.839L403.847 529.224Z" fill="white"/>
<path d="M357.166 417.619L357.484 417.802L361.675 410.482L361.357 410.311L357.166 417.619Z" fill="white"/>
<path d="M381.01 541.57L380.677 541.69L383.54 549.621L383.873 549.501L381.01 541.57Z" fill="white"/>
<path d="M412.914 556.67L412.559 556.572L411.912 559.114L412.315 559.004L412.914 556.67Z" fill="white"/>
<path d="M383.305 540.722L382.972 540.843L385.833 548.774L386.167 548.654L383.305 540.722Z" fill="white"/>
<path d="M394.559 472.254L397.785 473.623C397.785 473.464 397.663 473.305 397.614 473.159L394.694 471.937L394.559 472.254Z" fill="white"/>
<path d="M415.248 557.232L414.893 557.146L414.6 558.283L415.016 558.136L415.248 557.232Z" fill="white"/>
<path d="M373.419 532.328L367.015 529.615L367.284 530.116L373.272 532.658L373.419 532.328Z" fill="white"/>
<path d="M351.533 422.519L355.7 426.857L355.969 426.613L351.557 422.03L351.533 422.519Z" fill="white"/>
<path d="M388.278 452.262L391.138 455.745L390.735 454.694L388.596 452.03L388.278 452.262Z" fill="white"/>
<path d="M353.964 428.531L354.221 428.275L351.41 425.342L351.386 425.843L353.964 428.531Z" fill="white"/>
<path d="M400.339 484.804L402.771 492.882L403.113 492.772L400.694 484.707L400.339 484.804Z" fill="white"/>
<path d="M374.36 530.116L366.6 526.816L366.453 527.146L374.213 530.446L374.36 530.116Z" fill="white"/>
<path d="M365.366 508.23L365.072 508.01L359.952 514.695L360.233 514.915L365.366 508.23Z" fill="white"/>
<path d="M375.943 509.855L375.592 509.961L378.02 518.035L378.371 517.93L375.943 509.855Z" fill="white"/>
<path d="M376.021 518.666L373.602 510.588L373.248 510.698L375.679 518.764L376.021 518.666Z" fill="white"/>
<path d="M367.272 509.684L366.991 509.477L361.859 516.161L362.152 516.381L367.272 509.684Z" fill="white"/>
<path d="M354.954 443.085L355.309 443.183L356.445 439.15L357.594 435.081L357.252 434.971L356.066 439.15L354.954 443.085Z" fill="white"/>
<path d="M353.561 439.15L352.633 442.437L352.987 442.535L353.94 439.15L355.272 434.421L354.93 434.323L353.561 439.15Z" fill="white"/>
<path d="M359.586 495.986L359.268 495.802L355.076 503.122L355.394 503.293L359.586 495.986Z" fill="white"/>
<path d="M361.675 497.183L361.357 497L357.166 504.32L357.484 504.491L361.675 497.183Z" fill="white"/>
<path d="M381.02 470.971L376.828 478.279L377.134 478.462L381.325 471.142L381.02 470.971Z" fill="white"/>
<path d="M396.185 497.183L394.303 505.395L394.657 505.48L396.539 497.269L396.185 497.183Z" fill="white"/>
<path d="M398.751 476.25L393.753 474.136L393.618 474.466L398.922 476.715C398.861 476.58 398.812 476.409 398.751 476.25Z" fill="white"/>
<path d="M396.209 512.116L396.16 511.762L387.814 512.935L387.863 513.289L396.209 512.116Z" fill="white"/>
<path d="M400.657 520.939L400.376 521.171L404.201 525.839L405.716 527.697L405.997 527.464L404.665 525.839L400.657 520.939Z" fill="white"/>
<path d="M382.449 525.839L383.341 522.344L382.987 522.259L382.071 525.839L380.91 530.422L381.264 530.507L382.449 525.839Z" fill="white"/>
<path d="M380.11 498.373L379.971 498.699L387.734 501.992L387.872 501.666L380.11 498.373Z" fill="white"/>
<path d="M379.956 525.839L381.007 521.745L380.653 521.66L379.59 525.839L378.575 529.823L378.93 529.92L379.956 525.839Z" fill="white"/>
<path d="M405.484 542.849L406.425 534.479L406.071 534.442L405.117 542.813L405.484 542.849Z" fill="white"/>
<path d="M352.413 403.419C352.413 403.419 367.773 401.415 374.409 414.112C381.044 426.808 422.506 539.024 423.179 549.754C423.851 560.483 395.781 563.11 386.433 558.442C377.085 553.774 350.995 498.32 348.355 490.963" stroke="#263238" stroke-width="0.99"/>
<path d="M259.553 556.401C259.553 556.401 228.16 552.393 222.807 553.053C217.455 553.713 193.418 569.758 193.418 569.758H261.508L259.553 556.401Z" fill="#CFCFCF" stroke="#263238" stroke-width="0.99" stroke-linecap="round" stroke-linejoin="round"/>
<path d="M389.146 535.016L259.614 556.401L261.508 569.758H421.223C422.465 563.147 423.136 556.442 423.227 549.717C423.227 539.697 417.215 528.344 417.215 528.344" fill="#92E3A9"/>
<path d="M399.875 557.073L402.307 565.139L402.649 565.041L400.229 556.963L399.875 557.073Z" fill="white"/>
<path d="M408.747 534.247L403.443 540.796L403.724 541.029L409.028 534.479L408.747 534.247Z" fill="white"/>
<path d="M401.574 539.281L401.855 539.513L407.146 532.963L406.865 532.731L401.574 539.281Z" fill="white"/>
<path d="M384.722 550.951L387.154 559.029L387.496 558.919L385.077 550.854L384.722 550.951Z" fill="white"/>
<path d="M404.959 564.344L402.527 556.267L402.185 556.377L404.616 564.442L404.959 564.344Z" fill="white"/>
<path d="M387.42 550.131L387.069 550.237L389.498 558.311L389.849 558.206L387.42 550.131Z" fill="white"/>
<path d="M412.103 542.134L410.028 550.306L410.383 550.396L412.459 542.224L412.103 542.134Z" fill="white"/>
<path d="M410.616 569.758H410.995L412.767 563.501L412.413 563.403L410.616 569.758Z" fill="white"/>
<path d="M380.58 568.377L380.445 568.707L382.914 569.758H383.842L380.58 568.377Z" fill="white"/>
<path d="M414.406 542.68L412.329 550.852L412.684 550.942L414.761 542.77L414.406 542.68Z" fill="white"/>
<path d="M352.15 543.737L351.806 543.862L354.667 551.793L355.012 551.669L352.15 543.737Z" fill="white"/>
<path d="M393.154 546.735L400.902 550.022L401.048 549.692L393.288 546.393L393.154 546.735Z" fill="white"/>
<path d="M395.72 569.452L395.647 569.757H396.013L396.074 569.525L395.72 569.452Z" fill="white"/>
<path d="M394.231 544.208L394.093 544.535L401.855 547.828L401.993 547.502L394.231 544.208Z" fill="white"/>
<path d="M358.914 542.58L364.254 549.106L364.535 548.874L359.195 542.348L358.914 542.58Z" fill="white"/>
<path d="M366.392 547.346L361.052 540.833L360.783 541.053L366.111 547.578L366.392 547.346Z" fill="white"/>
<path d="M418.694 533.917L419.439 533.269L419.293 532.915L418.462 533.648L418.694 533.917Z" fill="white"/>
<path d="M358.678 553.547L356.377 561.659L356.73 561.759L359.031 553.647L358.678 553.547Z" fill="white"/>
<path d="M420.246 551.269L423.191 551.941C423.191 551.819 423.191 551.697 423.191 551.574L420.307 550.915L420.246 551.269Z" fill="white"/>
<path d="M375.032 567.155L373.382 569.758H373.81L375.337 567.338L375.032 567.155Z" fill="white"/>
<path d="M423.105 554.018L419.794 553.273L419.708 553.615L423.081 554.385C423.093 554.263 423.105 554.141 423.105 554.018Z" fill="white"/>
<path d="M420.27 535.737L420.355 535.663L420.221 535.297L420.038 535.468L420.27 535.737Z" fill="white"/>
<path d="M375.071 555.461L367.342 558.831L367.489 559.167L375.218 555.797L375.071 555.461Z" fill="white"/>
<path d="M373.296 566.055L372.991 565.859L370.522 569.758H370.95L373.296 566.055Z" fill="white"/>
<path d="M360.988 554.156L358.688 562.268L359.04 562.368L361.34 554.256L360.988 554.156Z" fill="white"/>
<path d="M377.424 559.507L369.667 562.879L369.813 563.217L377.571 559.844L377.424 559.507Z" fill="white"/>
<path d="M380.861 543.411L380.555 543.228L376.364 550.548L376.669 550.731L380.861 543.411Z" fill="white"/>
<path d="M374.274 549.35L374.58 549.521L378.771 542.214L378.453 542.03L374.274 549.35Z" fill="white"/>
<path d="M288.395 555.431L280.666 558.803L280.813 559.139L288.541 555.767L288.395 555.431Z" fill="white"/>
<path d="M272.433 568.242L272.115 568.071L271.149 569.758H271.565L272.433 568.242Z" fill="white"/>
<path d="M270.037 561.754L272.139 554.324L271.748 554.385L269.695 561.656L270.037 561.754Z" fill="white"/>
<path d="M274.522 569.44L274.204 569.269L273.924 569.757H274.338L274.522 569.44Z" fill="white"/>
<path d="M315.154 547.798L315.3 547.468L314.836 547.285L314.176 547.383L315.154 547.798Z" fill="white"/>
<path d="M323.928 569.758H324.307L326.066 563.501L325.724 563.403L323.928 569.758Z" fill="white"/>
<path d="M327.093 545.256L325.663 550.902L326.005 551L327.484 545.195L327.093 545.256Z" fill="white"/>
<path d="M286.608 566.055L286.302 565.859L283.834 569.758H284.262L286.608 566.055Z" fill="white"/>
<path d="M288.649 567.338L288.343 567.155L286.681 569.758H287.109L288.649 567.338Z" fill="white"/>
<path d="M360.893 569.269L360.612 569.757H361.027L361.21 569.44L360.893 569.269Z" fill="white"/>
<path d="M414.735 564.063L413.122 569.758H413.5L415.077 564.161L414.735 564.063Z" fill="white"/>
<path d="M349.869 544.586L349.524 544.71L352.388 552.641L352.732 552.517L349.869 544.586Z" fill="white"/>
<path d="M328.034 564.063L326.433 569.758H326.799L328.388 564.161L328.034 564.063Z" fill="white"/>
<path d="M293.891 568.377L293.744 568.707L296.225 569.758H297.142L293.891 568.377Z" fill="white"/>
<path d="M359.121 568.242L358.804 568.071L357.838 569.758H358.254L359.121 568.242Z" fill="white"/>
<path d="M274.315 554.241L272.021 562.355L272.373 562.455L274.668 554.341L274.315 554.241Z" fill="white"/>
<path d="M341.977 559.823L341.634 559.688L338.555 567.534L338.885 567.668L341.977 559.823Z" fill="white"/>
<path d="M289.362 557.647L281.633 561.017L281.779 561.353L289.508 557.983L289.362 557.647Z" fill="white"/>
<path d="M344.213 560.691L343.871 560.568L340.791 568.414L341.133 568.536L344.213 560.691Z" fill="white"/>
<path d="M333.019 553.627L336.759 554.47L341.231 555.473L341.317 555.118L336.759 554.092L333.093 553.273L333.019 553.627Z" fill="white"/>
<path d="M341.769 553.126L341.855 552.772L336.759 551.623L333.63 550.915L333.545 551.269L336.759 551.99L341.769 553.126Z" fill="white"/>
<path d="M323.683 550.401L324.893 545.623L324.502 545.684L323.329 550.316L323.683 550.401Z" fill="white"/>
<path d="M314.359 549.692L310.4 548.006L309.74 548.116L314.213 550.022L314.359 549.692Z" fill="white"/>
<path d="M300.734 550.122L300.383 550.227L302.805 558.304L303.156 558.198L300.734 550.122Z" fill="white"/>
<path d="M300.807 558.919L298.376 550.854L298.033 550.951L300.465 559.029L300.807 558.919Z" fill="white"/>
<path d="M313.186 557.073L315.618 565.139L315.96 565.041L313.528 556.963L313.186 557.073Z" fill="white"/>
<path d="M309.019 569.452L308.946 569.757H309.324L309.373 569.525L309.019 569.452Z" fill="white"/>
<path d="M318.27 564.344L315.838 556.267L315.496 556.377L317.915 564.442L318.27 564.344Z" fill="white"/>
<path d="M389.146 535.016L259.614 556.401L261.508 569.758H421.223C422.465 563.147 423.136 556.442 423.227 549.717C423.227 539.697 417.215 528.344 417.215 528.344" stroke="#263238" stroke-width="0.99"/>
<path d="M417.631 567.595H256.62L251.341 479.024C251.197 478.161 251.243 477.278 251.475 476.434C251.708 475.591 252.121 474.809 252.686 474.141C253.251 473.474 253.955 472.937 254.748 472.569C255.541 472.201 256.405 472.01 257.28 472.01H416.946C417.822 472.008 418.687 472.198 419.481 472.565C420.275 472.933 420.98 473.469 421.546 474.137C422.111 474.805 422.524 475.588 422.755 476.432C422.987 477.277 423.031 478.161 422.885 479.024L417.631 567.595Z" fill="#263238" stroke="#263238" stroke-width="0.99" stroke-linecap="round" stroke-linejoin="round"/>
<path d="M264.526 474.136H415.786C416.64 474.127 417.485 474.305 418.263 474.656C419.042 475.008 419.734 475.526 420.291 476.173C420.849 476.82 421.258 477.581 421.491 478.403C421.724 479.224 421.774 480.087 421.639 480.93" stroke="white" stroke-width="0.99" stroke-linecap="round" stroke-linejoin="round"/>
<path d="M252.538 479.574C252.653 478.087 253.327 476.699 254.424 475.69C255.522 474.681 256.962 474.125 258.453 474.136" stroke="white" stroke-width="0.99" stroke-linecap="round" stroke-linejoin="round"/>
<path d="M418.303 558.967H255.923V567.595H418.303V558.967Z" fill="white" stroke="#263238" stroke-width="0.99" stroke-linecap="round" stroke-linejoin="round"/>
<path d="M348.05 520.157C348.05 523.969 342.893 527.061 336.539 527.061C330.184 527.061 325.04 523.969 325.04 520.157C325.04 516.344 330.197 513.252 336.539 513.252C342.881 513.252 348.05 516.344 348.05 520.157Z" fill="white" stroke="#263238" stroke-width="0.99" stroke-linecap="round" stroke-linejoin="round"/>
<path d="M96.4645 558.699C93.0519 558.529 89.7001 557.73 86.5786 556.34C85.7834 555.957 85.1669 555.283 84.8576 554.456C84.5483 553.63 84.5702 552.716 84.9187 551.905C85.2672 551.095 85.9154 550.45 86.728 550.106C87.5405 549.762 88.4545 549.745 89.2792 550.059C92.4319 551.403 96.4768 552.234 97.5643 551.77C99.544 549.534 102.611 536.03 98.6519 529.59C98.444 529.136 98.1303 528.738 97.737 528.43C97.3436 528.121 96.8822 527.912 96.3912 527.819C94.1427 527.513 90.8189 529.823 89.6336 530.922C88.9708 531.54 88.0899 531.869 87.1847 531.837C86.2795 531.805 85.4241 531.414 84.8067 530.751C84.1893 530.089 83.8604 529.208 83.8925 528.303C83.9246 527.397 84.315 526.542 84.9777 525.924C85.601 525.338 91.271 520.242 97.2955 521.036C98.7909 521.26 100.215 521.823 101.459 522.683C102.702 523.543 103.732 524.677 104.469 525.998C110.298 535.481 106.314 553.566 101.829 557.11C100.272 558.231 98.381 558.791 96.4645 558.699Z" fill="#263238" stroke="#263238" stroke-width="0.99" stroke-linecap="round" stroke-linejoin="round"/>
<path d="M90.4157 518.25H52.717V568.291H90.4157V518.25Z" fill="#263238" stroke="#263238" stroke-width="0.99" stroke-linecap="round" stroke-linejoin="round"/>
<path d="M56.1387 515.513C56.1387 515.513 56.1387 511.346 63.7762 507.179C71.4137 503.012 75.5807 496.767 71.4137 484.963C67.2467 473.158 67.9432 464.824 76.3017 457.871" stroke="#263238" stroke-width="0.99" stroke-linecap="round" stroke-linejoin="round"/>
<path d="M57.8738 471.093C58.2648 466.022 60.5255 461.733 65.2058 457.871" stroke="#263238" stroke-width="0.99" stroke-linecap="round" stroke-linejoin="round"/>
<path d="M60.3057 484.963C59.5427 482.857 58.9262 480.701 58.4604 478.511" stroke="#263238" stroke-width="0.99" stroke-linecap="round" stroke-linejoin="round"/>
<path d="M87.153 489.032C86.8603 487.651 86.4724 486.291 85.9921 484.963L85.3567 483.081" stroke="#263238" stroke-width="0.99" stroke-linecap="round" stroke-linejoin="round"/>
<path d="M70.717 515.513C70.717 515.513 70.717 511.346 78.3545 507.179C83.3647 504.441 86.9085 500.812 87.5318 495.313" stroke="#263238" stroke-width="0.99" stroke-linecap="round" stroke-linejoin="round"/>
<path d="M586.597 567.436H17.8291V580.022H586.597V567.436Z" fill="#263238"/>
</svg>
